<?xml version="1.0" encoding="utf-8"?>
<!-- Generator: Adobe Illustrator 21.0.0, SVG Export Plug-In . SVG Version: 6.00 Build 0)  -->
<svg version="1.1" id="Layer_1" xmlns="http://www.w3.org/2000/svg" xmlns:xlink="http://www.w3.org/1999/xlink" x="0px" y="0px"
	 viewBox="0 0 123 100" style="enable-background:new 0 0 123 100;" xml:space="preserve">
<style type="text/css">
	.st0{fill:#DF9234;}
	.st1{fill:#3F3F3E;}
	.st2{fill:#B39D8D;}
	.st3{opacity:0.5;}
	.st4{fill:#E5D3C9;}
	.st5{fill:#BB7F31;}
	.st6{opacity:0.5;fill:#BB7F31;}
	.st7{fill:#E2A13C;}
	.st8{opacity:0.6;fill:#565656;}
	.st9{fill:#E7CE97;}
	.st10{fill:#C17D0B;}
	.st11{fill:#E5C7B2;}
	.st12{fill:#583C04;}
	.st13{opacity:0.5;fill:#583C04;}
	.st14{fill:#958376;}
	.st15{fill:#E5BF81;}
	.st16{fill:#DE8708;}
	.st17{fill:#7B3C03;}
	.st18{fill:#82421C;}
	.st19{fill:#642E07;}
	.st20{fill:#E2A631;}
	.st21{fill:#382219;}
	.st22{fill:#FFFFFF;}
	.st23{fill:#7F5145;}
	.st24{opacity:0.5;fill:#FFFFFF;}
	.st25{opacity:0.3;fill:#FFFFFF;}
	.st26{opacity:0.3;fill:#FFF596;}
	.st27{opacity:0.5;fill:#E5D3C9;}
</style>
<g>
	<g>
		<path class="st0" d="M122.3,67.7c0.3-0.3,0.6-0.8,0.7-1.3c-1.4,0.6-2.8,0-4-0.9c0.6,0,1.3-0.1,1.7-0.4c0.1-0.1,0.2-0.2,0.1-0.3
			c-0.2-0.2-0.3-0.1-0.6-0.1c-0.5-0.1-1-0.3-1.6-0.5c-0.8-0.3-1.4-0.8-2-1.4c1.8-0.4,3.2,0.3,4.9,1.4c-0.1-1.7-1.6-2.9-3.2-3.7
			c-0.3-0.1-0.5-0.2-0.8-0.3c-2.2-0.8-5.7-0.3-8-1.5c1.8,0.6,4.2,0.4,5.7-0.7c-1-0.1-2.1-0.4-2.8-0.7c-2.5-1.2-4.3-3.5-5.2-6.1
			c-0.1-0.3-0.2-0.6-0.3-0.8c-0.9-2.4-0.9-5.2-1.2-7.7c-0.2-2.4-0.5-4.7-1.1-7.1c-0.9-4.1-3.1-7.6-6.2-10.4c-1.4-1.3-3.2-2-4.9-2.6
			c-1.9-0.7-3.8-0.7-5.7-0.9l-0.2-0.2c0,0-0.1,0-0.1,0c-0.1,0-0.2,0.1-0.2,0.2c0,0-0.1,0-0.1,0c0,0,0,0,0,0c0,0,0,0,0.1,0
			c-0.7,0.7,0,2.2,0.3,3c0.7,2.7,1.8,5.4,2.7,8c0.9,2.7,2,5.3,3.4,7.8c0.6,1.2,1.3,2.4,1.8,3.7c0.6,1.7,0.5,3.6,0.7,5.4
			c-0.2,1.6-0.3,3.3-0.3,4.9c0.1,1,0.2,1.9,0.4,2.9c0.3,0.9,0.6,1.8,1.1,2.7c0.5,0.6,1.1,1.2,1.7,1.8c-0.3-0.8-0.5-1.7-0.6-2.6
			c0.2,0.7,0.5,1.4,0.9,2.2c0.9,1.7,2.2,3.2,3.7,4.3c1.4,1.1,4.7,2.6,5.2,4.7c0.1,0.2,0.1,0.3,0.2,0.5c0.1-0.1,0.2-0.2,0.2-0.3
			c0.3-1.1,0.1-2.3-0.3-3.5c2.8,1.7,6.5,2.5,8.2,5.1c0.8,0.9,1,1.9,1,3.1c0,0,0,0,0,0c0.6-1.5,0.5-3.1,0-4.6
			c1.3,1.9,2.2,4.2,1.4,6.5c0,0.1,0.1,0.1,0.1,0.1c1-0.9,1.7-2.3,2-3.8c0.2-1.1,0-2.2-0.2-3.4c-0.2-0.8-0.6-1.4-1.2-2
			C120.6,68.3,121.5,68.2,122.3,67.7z"/>
		<path class="st1" d="M122.3,67.7c0.3-0.3,0.6-0.8,0.7-1.3c-1.4,0.6-2.8,0-4-0.9c0.6,0,1.3-0.1,1.7-0.4c0.1-0.1,0.2-0.2,0.1-0.3
			c-0.2-0.2-0.3-0.1-0.6-0.1c-0.5-0.1-1-0.3-1.6-0.5c-0.8-0.3-1.4-0.8-2-1.4c1.8-0.4,3.2,0.3,4.9,1.4c-0.1-1.7-1.6-2.9-3.2-3.7
			c-0.3-0.1-0.5-0.2-0.8-0.3c-2.2-0.8-5.7-0.3-8-1.5c1.8,0.6,4.2,0.4,5.7-0.7c-1-0.1-2.1-0.4-2.8-0.7c-2.5-1.2-4.3-3.5-5.2-6.1
			c-0.1-0.3-0.2-0.6-0.3-0.8c-0.9-2.4-0.9-5.2-1.2-7.7c-0.2-2.4-0.5-4.7-1.1-7.1c-0.4-1.9-1.1-3.6-2-5.3c0.1,0.2,0.1,0.5,0.2,0.7
			c0,0.1-0.1,0.2-0.2,0.1c-0.3-0.5-0.7-0.9-1.1-1.3c0.5,1.1,0.8,2.4,0.9,3.6c0,0.1-0.1,0.2-0.2,0.1c-0.3-0.6-0.7-1.2-1.2-1.8
			c0.5,1.8,1.1,3.6,1.8,5.3c0,0.1-0.1,0.2-0.2,0.1c-0.8-0.7-1.3-1.5-1.7-2.4c0.1,1.6,0.5,3.2,1,4.7c0,0.1-0.1,0.2-0.2,0.1
			c-0.6-0.7-1.1-1.5-1.6-2.2c0.4,1.2,0.8,2.3,1,3.5c0,0.1-0.1,0.2-0.2,0.1c-0.7-0.8-1.7-1.2-2.6-1.6c1.2,1.2,2.3,2.7,2.9,4.3
			c0,0.1-0.1,0.2-0.2,0.1c-0.4-0.4-0.9-0.8-1.4-1.2c0.9,1.5,1.3,3.2,1.6,4.8c0,0.1-0.1,0.2-0.2,0.1c-0.4-0.5-0.7-1-1.2-1.4
			c0.8,1.5,1,3.2,1.3,4.9c0,0.1-0.1,0.2-0.2,0.1c-0.6-0.8-1.1-1.6-1.7-2.4c0.3,0.9,0.5,1.8,0.9,2.6c0,0.1-0.1,0.2-0.1,0.1
			c-1.8-1.1-3.1-2.7-4.2-4.5c0.1,0.8,0.1,1.5,0.2,2.3c-0.2,1.6-0.3,3.3-0.3,4.9c0.1,1,0.2,1.9,0.4,2.9c0.3,0.9,0.6,1.8,1.1,2.7
			c0.5,0.6,1.1,1.2,1.7,1.8c-0.3-0.8-0.5-1.7-0.6-2.6c0.2,0.7,0.5,1.4,0.9,2.2c0.9,1.7,2.2,3.2,3.7,4.3c1.4,1.1,4.7,2.6,5.2,4.7
			c0.1,0.2,0.1,0.3,0.2,0.5c0.1-0.1,0.2-0.2,0.2-0.3c0.3-1.1,0.1-2.3-0.3-3.5c2.8,1.7,6.5,2.5,8.2,5.1c0.8,0.9,1,1.9,1,3.1
			c0,0,0,0,0,0c0.6-1.5,0.5-3.1,0-4.6c1.3,1.9,2.2,4.2,1.4,6.5c0,0.1,0.1,0.1,0.1,0.1c1-0.9,1.7-2.3,2-3.8c0.2-1.1,0-2.2-0.2-3.4
			c-0.2-0.8-0.6-1.4-1.2-2C120.6,68.3,121.5,68.2,122.3,67.7z"/>
		<path class="st2" d="M122.3,67.7c0.3-0.3,0.6-0.8,0.7-1.3c-1.4,0.6-2.8,0-4-0.9c0.6,0,1.3-0.1,1.7-0.4c0.1-0.1,0.2-0.2,0.1-0.3
			c-0.2-0.2-0.3-0.1-0.6-0.1c-0.5-0.1-1-0.3-1.6-0.5c-0.8-0.3-1.4-0.8-2-1.4c1.8-0.4,3.2,0.3,4.9,1.4c-0.1-1.7-1.6-2.9-3.2-3.7
			c-0.3-0.1-0.5-0.2-0.8-0.3c-2.2-0.8-5.7-0.3-8-1.5c1.8,0.6,4.2,0.4,5.7-0.7c-1-0.1-2.1-0.4-2.8-0.7c-2.5-1.2-4.3-3.5-5.2-6.1
			c-0.1-0.3-0.2-0.6-0.3-0.8c-0.9-2.4-0.9-5.2-1.2-7.7c-0.2-2.4-0.5-4.7-1.1-7.1c-0.9-4.1-3.1-7.6-6.2-10.4c-1.4-1.3-3.2-2-4.9-2.6
			c-1.9-0.7-3.8-0.7-5.7-0.9l-0.2-0.2c0,0-0.1,0-0.1,0c-0.1,0-0.2,0.1-0.2,0.2c0,0-0.1,0-0.1,0c0,0,0,0,0,0c0,0,0,0,0.1,0
			c-0.7,0.7,0,2.2,0.3,3c0.7,2.7,1.8,5.4,2.7,8c0.9,2.7,2,5.3,3.4,7.8c0.6,1.2,1.3,2.4,1.8,3.7c0.6,1.7,0.5,3.6,0.7,5.4
			c-0.2,1.6-0.3,3.3-0.3,4.9c0.1,1,0.2,1.9,0.4,2.9c0.3,0.9,0.6,1.8,1.1,2.7c0.5,0.6,1.1,1.2,1.7,1.8c-0.3-0.8-0.5-1.7-0.6-2.6
			c0.2,0.7,0.5,1.4,0.9,2.2c0.9,1.7,2.2,3.2,3.7,4.3c1.4,1.1,4.7,2.6,5.2,4.7c0.1,0.2,0.1,0.3,0.2,0.5c0.1-0.1,0.2-0.2,0.2-0.3
			c0.3-1.1,0.1-2.3-0.3-3.5c2.8,1.7,6.5,2.5,8.2,5.1c0.8,0.9,1,1.9,1,3.1c0,0,0,0,0,0c0.6-1.5,0.5-3.1,0-4.6
			c1.3,1.9,2.2,4.2,1.4,6.5c0,0.1,0.1,0.1,0.1,0.1c1-0.9,1.7-2.3,2-3.8c0.2-1.1,0-2.2-0.2-3.4c-0.2-0.8-0.6-1.4-1.2-2
			C120.6,68.3,121.5,68.2,122.3,67.7z M114.3,65.5c-0.9-1.2-1.9-2.2-3.2-3c0.4,0.7,0.6,1.3,0.7,2.1c0,0.1-0.1,0.1-0.2,0.1
			c-2-2.3-4.9-3.6-6.8-6c0.6,1.1,1.2,2.2,2.1,3.2c0,0.1-0.1,0.2-0.1,0.1c-0.4-0.3-0.7-0.5-1.1-0.8c0.8,1.2,1.7,2.3,2.6,3.4
			c0.1,0.1-0.1,0.2-0.1,0.1c-1.2-0.7-2.3-1.5-3.2-2.6c0.4,0.8,0.8,1.5,1.3,2.2c0,0.1-0.1,0.2-0.1,0.1c-1.3-0.9-2.6-1.9-3.4-3.3
			c0.2,0.7,0.4,1.4,0.8,2.1c0,0.1-0.1,0.2-0.2,0.1c-1.2-1.3-2.4-2.8-2.9-4.6c0,0.5,0.1,0.9,0.3,1.3c0,0.1-0.1,0.2-0.2,0.1
			c-1.1-1.6-2.4-3.6-2.3-5.6c0-0.1,0.1-0.2,0.2-0.1c0.4,0.5,0.7,1.1,1.3,1.5c-0.7-1.5-1-3.1-0.8-4.8c0-0.1,0.1-0.2,0.2-0.1
			c0.2,0.5,0.5,1,0.9,1.4c-0.3-0.8-0.5-1.6-0.3-2.4c0-0.1,0.1-0.1,0.2-0.1c0.2,0.4,0.5,0.9,0.7,1.3c-0.1-0.4-0.2-0.9-0.2-1.3
			c0-0.6,0.1-1.3,0.1-1.9c0-0.1,0.1-0.2,0.2-0.1c0.3,0.6,0.5,1.3,0.8,1.8c-0.1-1.7-0.1-3.4-0.5-5c0-0.1,0.1-0.2,0.2-0.1
			c0.4,0.5,0.7,1,1,1.5c-0.1-2.2-0.3-4.4-1.5-6.3c0-0.1,0.1-0.2,0.1-0.1c0.5,0.3,0.9,0.7,1.2,1.1c-0.2-0.9-0.7-1.7-1.2-2.5
			c0-0.1,0.1-0.2,0.1-0.1c0.6,0.2,1.2,0.3,1.8,0.4c-0.7-1-1.6-1.8-2.1-2.9c-0.5-1.1-0.9-2.2-1.7-3.1c0-0.1,0.1-0.2,0.1-0.1
			c0.3,0.2,0.7,0.5,1,0.8c-0.3-1-0.7-1.9-1.5-2.6c-0.1-0.1,0.1-0.2,0.1-0.1c0.5,0.2,0.9,0.5,1.2,0.9c-0.1-0.3-0.2-0.6-0.3-1
			C99,29.5,98,28.3,97,27.2c-0.1-0.1,0.1-0.1,0.1-0.1c1.9,0.1,3.4,1.9,4.3,3.4c1.2,1.9,2.1,4,2.6,6.2c0.6,2.7,0.6,5.5,1.1,8.3
			c0.4,2.7,1.1,5.3,2.2,7.8c0,0.1-0.1,0.2-0.2,0.1c-0.4-0.4-0.8-0.8-1.1-1.3c0.6,2.1,1.4,4.2,2.9,5.9c0.1,0.1-0.1,0.2-0.1,0.1
			c-0.7-0.6-1.4-1.1-1.9-1.9c0.7,1.8,1.7,3.3,3.3,4.5c1.8,1.4,3.5,3,4.2,5.2C114.5,65.5,114.4,65.6,114.3,65.5z"/>
		<g class="st3">
			<path class="st4" d="M105.6,52.1c-0.5-1-0.5-2.1-0.4-3.2c0,0,0,0,0,0c-0.2,0.4-0.3,0.8-0.3,1.2c-0.4-0.6-0.6-1.2-0.8-1.9
				c-0.2-0.6-0.4-1.3-0.5-2c0.2,0.6,0.5,1.3,1,1.6c0,0,0,0,0,0c-0.5-0.7-0.5-2.1-0.6-2.8c-0.2-1-0.3-2.2-0.1-3.2c0-0.1,0-0.3,0-0.4
				c-0.2,1-0.4,1.8-0.4,2.8c0,0.5,0.1,0.9,0.2,1.4c-0.1-0.1-0.1-0.3-0.1-0.4c-0.1-0.2-0.2,0-0.3,0.1c-0.2,0.8,0.1,1.7,0.3,2.5
				c0.2,0.9,0.5,1.8,1.1,2.4c-0.1,1.5,0.3,3,1.8,3.5c0,0,0.1,0,0.1,0C106.2,53.4,105.8,52.8,105.6,52.1z"/>
			<path class="st4" d="M102.7,56.6C102.7,56.6,102.7,56.6,102.7,56.6c0-0.3-0.4-0.1-0.4,0.1c0,0.7-0.1,1.4-0.5,1.9
				c0.1-1.3-0.3-2.4-0.8-3.6c0,0-0.1,0-0.1,0c0.1,0.5,0.2,1,0.3,1.5c-0.1-0.1-0.1-0.1-0.2-0.2c-0.3-0.3-0.5-0.8-0.6-1.2
				c-0.3-0.7-0.6-1.5-0.5-2.3c-0.1,0.2-0.2,0.5-0.3,0.8c0,0.6,0.1,1.2,0.2,1.8c0.2,0.8,0.6,2,1.5,1.9c0.1,0.6,0.1,1.2,0,1.9
				c0,0.2,0.2,0.2,0.3,0.1c0.4-0.4,0.6-0.8,0.8-1.2c0.2,1,0.7,2.1,1.4,2.8C103.1,59.7,103,57.9,102.7,56.6z"/>
			<path class="st4" d="M106.1,56c0,0.2-0.1,0.4-0.1,0.6c0,0-0.1,0.1-0.1,0.1c-0.1,0.2-0.1,0.4-0.1,0.6c-0.5-1-0.7-2.4-0.7-3.5
				c0,0,0,0,0,0c-0.2,0.9-0.3,1.8-0.2,2.7c0.1,0.5,0.3,1.4,0.7,1.8c0.2,0.1,0.4,0,0.5-0.1c0,0,0,0,0,0.1c0.3,1,0.9,1.8,1.8,2.2
				C106.9,59.2,106.3,57.6,106.1,56z"/>
			<path class="st4" d="M113.4,64.2c0.1-0.4-0.6-1.4-0.8-1.6c-0.1-0.2-0.3-0.4-0.5-0.5c0,0,0,0-0.1-0.1c-0.7-0.6-1.5-0.8-2.3-1.2
				c0,0-0.1,0.1-0.1,0.1c0.6,0.5,1.2,0.9,1.7,1.5c0,0,0.1,0.1,0.1,0.1c-0.3-0.1-0.6-0.1-0.9-0.2c-0.3-0.1-0.6-0.2-0.8-0.4
				c-0.1-0.1-0.4-0.3-0.6-0.4c0.2,0.4,0.5,0.9,1,1.2c0.6,0.4,1.4,0.7,2.1,0.6c0.3,0.3,0.6,0.6,1,0.9
				C113.3,64.2,113.4,64.2,113.4,64.2z"/>
			<path class="st4" d="M110.1,65.9C110.1,65.9,110.1,66,110.1,65.9c0,0.1,0.1,0.1,0.1,0.1c0.1,0.2,0.3,0.4,0.5,0.6
				c0.2,0.2,0.6-0.1,0.6-0.3c0.9,1.1,2.3,1.8,3.6,2.4c0,0-0.1-0.1-0.1-0.1c-1.1-0.3-1.8-1.1-2.5-2c-0.5-0.6-1.1-1.2-1.3-2
				c-0.1,0-0.3,0.2-0.3,0.3c0,0.2,0,0.4-0.1,0.6c-0.4-0.4-0.8-0.9-1.1-1.4C109.7,64.7,109.9,65.4,110.1,65.9z"/>
			<path class="st4" d="M116.8,65.8c0.4,0.9,0.9,1.9,1,2.9c-0.7-1.2-1.4-2.2-2.6-3c0.2,0.3,0.4,0.6,0.6,0.9c0,0,0,0.1,0.1,0.1
				c0.7,1,1.3,2.1,1.9,3.2c0.1,0.1,0.2,0.1,0.3,0.1C118.4,68.4,118.1,66.7,116.8,65.8z"/>
			<path class="st4" d="M112.3,60.7c0.3,0.6,0.9,0.9,1.6,1.1c0.6,0.2,1.6,0.3,2-0.2c0,0,0.1-0.1,0.1-0.1
				C114.7,61.7,113.2,61.4,112.3,60.7z"/>
			<path class="st4" d="M104.9,56.6c-0.4-0.7-0.8-1.2-1-2c-0.2-0.6-0.2-1.4-0.1-2c0-0.3-0.3-0.2-0.4-0.1c-0.3,0.3-0.4,0.7-0.5,1.1
				c-0.1-0.8,0-1.9,0-2.5c0-0.1-0.1,0-0.1,0c-0.3,1.1-0.7,3,0.1,4c0.1,0.2,0.4,0,0.5-0.2c0.2,0.7,0.5,1.4,1.2,2
				C104.7,57.1,105,56.8,104.9,56.6z"/>
			<path class="st4" d="M103.2,64.1c-0.8-0.6-1.5-1.4-1.9-2.4c0.2,1.7,1.5,3.6,3.2,3.4c0.1,0,0.1-0.1,0.2-0.1
				C104.2,64.8,103.6,64.4,103.2,64.1z"/>
		</g>
	</g>
	<path class="st5" d="M88.2,61c-0.7-1.1-1.6-2.1-2.2-3.3c0.1,0,0.2-0.2,0.2-0.3c-0.1-0.6-0.4-1.1-0.8-1.6c0,0,0-0.1,0-0.1
		c0,0,0,0,0,0c0,0,0,0,0,0c-0.2-0.2-0.4-0.4-0.6-0.6c-1.1-1.1-2.2-2.1-3.2-3.3c-2.1-2.3-4.2-4.1-7-5.4c-2.2-1-5.1-1.9-7.4-0.7
		c-0.8,0.5-1.2,1.3-1.4,2.3c0,0,0,0,0,0c-1.1,5.4,0.7,9.9,4.6,13.7c0.1,0.1,0.4-0.1,0.3-0.3c-0.1-0.2-0.3-0.6-0.4-0.9
		c0,0.1,0.1,0.1,0.1,0.2c0.5,0.9,1.1,1.7,1.9,2.4c2,1.8,4.3,3.4,5.2,6.1c1.1,3.4,0.4,6.5-1,9.8c-0.8,1.9-1.7,5.1-3.5,6.6
		c-0.8-0.8-2.3-1-3.4-0.6c-0.6-0.3-1.1-0.3-1.8-0.3c-0.2,0-0.3,0-0.5,0.1c-1.1-0.2-2.3,0.8-2.8,2.1c-0.5,1.4,0.2,2.2,1,3.3
		c0.5,0.6,1.4,0.8,2.2,0.6c0.1,0,2.2,0.7,4.2-0.4c0.3,0,0.5,0,0.7,0.1c0.4,0.1,1.3-0.2,1.7-0.3c1.9-0.5,1.6-2.5,3-3.4
		c1.2-0.8,1.6-2.6,2.1-3.8c0.9-2.3,1.6-4.6,2.3-6.9c1.5-4.4,1.8-10.1,5.1-13.5C87,62.7,88.5,61.6,88.2,61z"/>
	<path class="st6" d="M88.2,61c-0.7-1.1-1.6-2.1-2.2-3.3c0.1,0,0.2-0.2,0.2-0.3c-0.1-0.6-0.4-1.1-0.8-1.6c0,0,0-0.1,0-0.1
		c0,0,0,0,0,0c0,0,0,0,0,0c-0.2-0.2-0.4-0.4-0.6-0.6c-1.1-1.1-2.2-2.1-3.2-3.3c-2.1-2.3-4.2-4.1-7-5.4c-2.2-1-5.1-1.9-7.4-0.7
		c-0.8,0.5-1.2,1.3-1.4,2.3c0,0,0,0,0,0c-1.1,5.4,0.7,9.9,4.6,13.7c0.1,0.1,0.4-0.1,0.3-0.3c-0.1-0.2-0.3-0.6-0.4-0.9
		c0,0.1,0.1,0.1,0.1,0.2c0.5,0.9,1.1,1.7,1.9,2.4c2,1.8,4.3,3.4,5.2,6.1c1.1,3.4,0.4,6.5-1,9.8c-0.8,1.9-1.7,5.1-3.5,6.6
		c-0.3-0.3-0.8-0.5-1.2-0.7c0.2,0.2,0.2,0.5-0.1,0.7c-0.6,0.3-1.2,0.3-1.7,0.8c-0.4,0.5-0.7,1.1-1.2,1.6c-0.3,0.3-0.7,0.5-1.2,0.4
		c-0.5-0.2-0.8-0.6-0.7-1.2c0.2-0.6,0.6-1.1,1.1-1.5c0.5-0.4,1.1-0.5,1.7-0.7c-0.1,0-0.1,0-0.2-0.1c-1.2,0.4-2.5,0.4-3.1,1.7
		c-0.2,0.5-0.6,1.6-1.4,1.4c-0.4-0.1-0.5-0.4-0.6-0.7c-0.3,1.2,0.4,2,1.1,2.9c0.5,0.6,1.4,0.8,2.2,0.6c0.1,0,2.2,0.7,4.2-0.4
		c0.3,0,0.5,0,0.7,0.1c0.4,0.1,1.3-0.2,1.7-0.3c1.9-0.5,1.6-2.5,3-3.4c1.2-0.8,1.6-2.6,2.1-3.8c0.9-2.3,1.6-4.6,2.3-6.9
		c1.5-4.4,1.8-10.1,5.1-13.5C87,62.7,88.5,61.6,88.2,61z M82,70.3c-0.6,2-1.6,3.9-2.1,5.9c-0.5,2-1.1,3.9-1.7,5.8
		c-0.9,2.7-1.8,5.9-4.1,7.7c0,0-0.1,0-0.1,0c0.2-0.6,0.3-1.1,0.4-1.7c-0.4,0.7-1,1.4-1.9,1.4c-0.9,0-1.5-0.6-1.4-1.5
		c0.2-1.4,2.3-2.1,3.3-1.1c-0.1-0.4-0.4-0.7-0.8-1c-0.1-0.1,0.1-0.1,0.1-0.1c0.2,0,0.4,0.1,0.6,0.1c0-0.2,0-0.3,0-0.5
		c0,0-0.1,0,0-0.1c0.3-0.4,0.6-0.9,0.9-1.4c1.2-2,2.1-4.3,2.6-6.6c0.5-2.3,0.8-4.8,0.2-7c-1.1-4.1-5.6-6.3-6.5-10.4
		c0,0.5,0,1,0.1,1.5c0,0.1-0.1,0.2-0.2,0.1c-0.7-0.8-1.2-1.8-1.4-2.8c-0.1,0.3,0,0.7,0,1c0,0.1-0.1,0.2-0.2,0.1
		c-0.4-0.5-0.7-1.1-0.8-1.7c0,0,0,0,0,0c-0.1-0.3-0.1-0.5-0.1-0.8c0-0.1,0.1-0.1,0.2-0.1c0.2,0.2,0.4,0.5,0.6,0.8
		c0-0.4,0.1-0.8,0.2-1.1c0-0.1,0.1-0.1,0.2-0.1c0.2,0.9,0.6,1.7,1.1,2.4c-0.1-0.6-0.2-1.3-0.2-1.9c0-0.1,0.1-0.2,0.2-0.1
		c0.9,1.2,1.8,2.4,2.3,3.7c-0.1-0.9-0.3-1.8-0.6-2.7c0-0.1,0.1-0.2,0.2-0.1c0.4,0.5,0.7,1,1,1.5c-0.1-0.6-0.2-1.2-0.2-1.8
		c0-0.1,0.1-0.2,0.2-0.1c0.7,1.1,1.5,2.1,2.4,3.1c-0.2-0.9-0.5-1.8-0.4-2.8c0-0.1,0.1-0.2,0.2-0.1c0.7,2.3,1.9,4.4,3.6,6.2
		c0.1,0.1-0.1,0.2-0.1,0.1c-0.6-0.3-1.2-0.6-1.7-1c0.7,0.9,1.6,1.7,2.4,2.5c0.1,0.1-0.1,0.2-0.1,0.1c-0.7-0.2-1.4-0.5-2.1-0.7
		c1,0.9,1.9,2,2.5,3.2c0,0.1-0.1,0.2-0.1,0.1c-0.6-0.6-1.3-1-2-1.4c0.9,0.9,1.6,2,1.9,3.1c0.3-0.4,0.5-0.8,0.8-1.2
		c0,0,0.2-0.1,0.2,0c-0.1,0.8-0.3,1.6-0.4,2.4c0.3-0.4,0.7-0.9,1.2-1.2C81.9,70.2,82.1,70.2,82,70.3z"/>
	<path class="st6" d="M88.2,61c-0.7-1.1-1.6-2.1-2.2-3.3c0.1,0,0.2-0.2,0.2-0.3c-0.1-0.6-0.4-1.1-0.8-1.6c0,0,0-0.1,0-0.1
		c0,0,0,0,0,0c0,0,0,0,0,0c-0.2-0.2-0.4-0.4-0.6-0.6c-1.1-1.1-2.2-2.1-3.2-3.3c-2.1-2.3-4.2-4.1-7-5.4c-2.2-1-5.1-1.9-7.4-0.7
		c-0.8,0.5-1.2,1.3-1.4,2.3c0,0,0,0,0,0c-1.1,5.2,0.6,9.7,4.4,13.4c-0.4-0.5-0.8-1-1.1-1.6c-0.6-1.2-0.8-2.4-1-3.7l0,0l0,0
		c0,0,0,0,0,0c0-0.1,0.1-0.2,0.2-0.1c0.3,0.7,0.5,1.4,0.8,2.1c-0.2-0.8-0.4-1.5-0.2-2.3c0-0.1,0.1-0.2,0.2-0.1
		c0.3,0.5,0.5,1,0.8,1.5c-0.1-0.6-0.3-1.3-0.4-1.9c0-0.1,0.1-0.1,0.1-0.1c1.1,0.5,1.9,1.3,2.5,2.2c-0.2-0.4-0.4-0.9-0.6-1.3
		c0-0.1,0.1-0.2,0.1-0.1c0.6,0.3,1,0.7,1.5,1.2c-0.2-0.4-0.5-0.9-0.7-1.3c0-0.1,0.1-0.2,0.1-0.1c0.8,0.6,1.7,1.1,2.5,1.8
		c-0.1-0.7-0.3-1.4-0.6-2.1c0-0.1,0.1-0.1,0.1-0.1c0.6,0.3,1,0.9,1.4,1.5c-0.1-0.6-0.1-1.1,0.1-1.7c0-0.1,0.1-0.1,0.2-0.1
		c0.3,0.9,0.5,1.8,0.9,2.6c-0.1-1.1,0.1-2.1,0.6-3c0,0,0.2-0.1,0.2,0c0.1,1.8,0.5,3.6,1.4,5.2c-0.2-0.9-0.3-1.8-0.3-2.7
		c0-0.1,0.2-0.2,0.2-0.1c0.4,2.3,1.8,4.2,3.4,6c0.1,0.1-0.1,0.2-0.1,0.1c-0.4-0.1-0.8-0.3-1.2-0.5c0.4,0.5,0.9,0.9,1.3,1.4
		c0.1,0.1,0,0.1-0.1,0.1c-0.6,0.1-1.2-0.1-1.7-0.4c0.7,0.8,1.5,1.5,2,2.5c0,0.1-0.1,0.2-0.1,0.1c-0.5-0.4-1-0.7-1.5-1
		c0.7,0.9,1.3,2,1.4,3.2c0.3-1,0.6-2,1.1-3c0-0.1,0.2-0.1,0.2,0c0.1,1.9-0.8,3.6-1.2,5.4c-0.5,2.1-1.1,4-1.8,6
		c-0.7,2-1.4,4.1-2.1,6.1c-0.2,0.5-0.4,1-0.6,1.5c-0.1,0.4-0.3,0.8-0.5,1.1c-0.2,0.4-0.5,0.6-0.9,0.9c-0.2,0.2-0.4,0.4-0.6,0.7
		c-0.3,0.6-0.6,1.3-1,1.8c-0.7,0.8-1.8,1.2-2.8,0.8c-0.9-0.3-1.7-1.1-1.8-2c-0.1-0.8,0.3-1.5,0.9-2c-0.7,0.3-1.4,0.7-1.6,1.5
		c-0.1,0.5-0.1,1.1-0.4,1.5c-0.5,0.7-1.6,0.7-2.2,0.2c-0.4-0.4-0.5-0.8-0.4-1.3c0-0.1-0.1-0.3,0-0.5c-0.2,0.3-0.3,0.7-0.4,1.1
		c-0.2,0.6-0.5,1.5-1.3,1.3c0,0-0.1,0-0.1,0c0.1,0.2,0.3,0.4,0.5,0.6c0.5,0.6,1.4,0.8,2.2,0.6c0.1,0,2.2,0.7,4.2-0.4
		c0.3,0,0.5,0,0.7,0.1c0.4,0.1,1.3-0.2,1.7-0.3c1.9-0.5,1.6-2.5,3-3.4c1.2-0.8,1.6-2.6,2.1-3.8c0.9-2.3,1.6-4.6,2.3-6.9
		c1.5-4.4,1.8-10.1,5.1-13.5C87,62.7,88.5,61.6,88.2,61z"/>
	<path class="st6" d="M68.6,85.3C68.6,85.3,68.6,85.3,68.6,85.3c-0.1,0.1-0.1,0.2-0.2,0.2c0.3-0.1,0.7-0.2,1-0.3
		c-0.1,0-0.1,0-0.2-0.1C69,85.2,68.8,85.3,68.6,85.3z"/>
	<path class="st7" d="M100.8,65.8c-0.8-1.4-2.1-2.1-3.1-3.3c-1.2-1.4-1.4-2.9-1.5-4.5c0-2.8,1.1-5.6,2.1-8.3
		c0.1,0.4,0.1,0.9,0.3,1.3c0,0.1,1-2.2,1-2.3c0.4-1.1,0.4-2.3,0.1-3.5c0-0.1,0-0.1,0-0.2c0.2,0.3,0.8,0.8,0.8,0.7
		c0-1.1-0.1-2.3-0.6-3.3c0,0,0-0.1,0-0.1c0.3,0.3,0.6,0.5,0.9,0.8c0.1,0.1-0.6-3-1.7-3.9c0.5,0.1,1.5,0,1.5-0.1
		c-0.1-0.2-0.3-0.2-0.6-0.4c-0.4-0.3-0.8-0.5-1.1-0.8c-0.3-0.2-0.5-0.5-0.8-0.8c0,0,0,0,0,0c0-0.1,0-0.1,0-0.2
		c0.8,0.5,1.7,0.8,2.7,0.7c0.1,0-1.6-1.2-2.3-2c-0.1-0.2-0.3-0.3-0.4-0.5c0.3,0.2,0.7,0.3,1.1,0.3c0.1,0-0.9-3-1.9-4.1
		c0.1,0,0.9-0.3,0.6-0.4c-1-0.5-1.6-1.5-2.1-2.5c0.4,0.2,0.8,0.5,1.2,0.7c0.1,0.1-0.1-0.8-0.3-1.1c-0.3-0.5-0.7-0.9-1-1.4
		c-0.2-0.3-0.4-0.5-0.7-0.7C95.3,26,96,25,95.9,25c-0.8,0.2-1.5,0.1-2.3-0.2c-0.1,0-0.2-0.1-0.3-0.1c0-0.1-0.1-0.1-0.1-0.2
		c0.4,0.1,0.9,0.2,1.3,0.1c0.1,0-1-1.4-1.7-1.7c-0.5-0.3-1.1-0.4-1.6-0.4c0,0,0,0-0.1,0c0.6-0.1,1.4-1.2,1.2-1.1
		c-1.7,0.8-4.3-1.3-6-1.7c-0.6-0.1-1.4-0.3-2.1-0.2c-0.3,0-0.6-0.1-0.9-0.1c0,0,0,0,0,0c0.1,0,0.3-0.2,0.2-0.3
		c-0.5-0.4-1.4-0.4-1.9-0.5c-1.6-0.3-3.3-0.2-5,0c-3.7,0.6-7.2,2.3-10.8,3.4c-3.4,1.1-7,1.9-10.5,2.7c-2.1,0.5-4.4,1-6.6,1.1
		c-0.9,0-1.7,0.2-2.5,0.3c0.6-0.4,1.1-0.8,1.2-1.6c0-0.2-0.2-0.2-0.3-0.1c-1.6,1.2-3.9,1.2-5.8,1.2c-1.7,0-3.2-1.1-4.8-1.2
		c-0.9-0.1-1.4,0.1-2.1,0.6c-1.4,1-2.8,1.9-4.1,3c-2.2,1.8-4.3,3.7-5.9,6c-0.6,0.9-0.6,1.6-0.3,2.3c-0.1-0.1-0.1-0.1-0.2-0.2
		c0,0,0,0,0,0c0.1,0.1,0.2,0.2,0.3,0.4c0,0.1,0.1,0.1,0.1,0.2c-0.1-0.1-0.2-0.3-0.4-0.4c0,0-0.1,0,0,0c1.2,1.4,2.8,5,0.4,6.3
		c-0.2,0.1,0.8,0.1,1.2-0.1c0,0.2,0,0.3-0.1,0.5c-0.3,0.6-1.5,1.7-1.3,1.6c0,0,0,0,0,0l0,0l0,0c0.7-0.2,1.4-0.6,2-1.1
		c-0.3,0.7-0.6,1.5-0.7,2.3c0.1,0.4,0.2,0.7,0.3,1c0,0,0,0,0,0c0.5-0.8,0.9-1.5,1.5-2.2c-0.3,1.1-0.3,2.3,0,3.3
		c0.2,0.4,0.5,0.8,0.8,1.2c0-0.1,0.1-1.2,0.1-1.6c0.2,1,0.7,2,1.2,2.7c0.2,0.2,0.4,0.3,0.5,0.4c0.1-0.1-0.2-2.1,0-2.9
		c0.2,1.2,1.6,3.1,1.6,3c0-0.2-0.1-0.5-0.1-0.7c0,0.1,0,0.1,0.1,0.2c0,0.1,0.1,0.2,0.1,0.3c0.1,1.7,0.9,3.3,2.2,4.5c0,0,0.1,0,0.1,0
		c0.1,0.4,0.2,0.7,0.4,1.1c0.8,1.9,1.5,3.9,2.2,5.8c1.9,5.3,2.1,11,1.9,16.6c-0.1,2.3-0.4,4.6-0.8,6.8c-0.3,0.8-0.7,1.7-1.1,2.4
		c-0.5,0.9-1.3,1.8-2,2.6c-0.7,0.7-1.2,0.8-1.7,0.9c-0.3,0-0.7,0-1,0c-0.5-0.3-1.1-0.4-1.6,0c-0.9,0.6-1.4,1.4-1.5,2.5
		c-0.1,1.1,0.2,1.9,1.1,2.5c0.4,0.3,0.8,0.4,1.3,0.4c0.3,0.1,0.5,0.2,0.8,0.3c0.6,0.1,1.2,0,1.7-0.2c1.7,1,3.8,0.1,5.2-0.9
		c0.8-0.6,1.4-1.5,1.7-2.3c0.3-0.9,0.7-1.7,1.1-2.5c0.1-0.1,0.2-0.2,0.3-0.4c1.2-1.2,0.2-3.6,0-5.3c0.5-4,1.1-6.1,2.1-10.2
		c0.3-0.5,1.6-6.1,2.1-8.2c0.8-3,0.6-4.7-1.3-6.8c0.7,0.4,2.6,0.9,2.5,0.8c-0.1-0.2-0.3-0.3-0.4-0.4c-0.1-0.1-0.2-0.2-0.3-0.4
		c0,0,0,0,0,0c0.6,0.4,2.4,0.7,2.3,0.6c-0.4-0.3-0.9-0.6-1.3-1c0.9,0.5,3,0.6,2.9,0.5c-0.1-0.1-0.1-0.1-0.2-0.2c0.2,0,0.3,0,0.5,0
		c0.6,0.1,1.2,0.1,1.7,0.1c1.2,3.6,2,7.3,2.5,11.2c0.4,3.2,0.9,6.4,0.8,9.7c-0.1,1.5-0.1,3.1-0.1,4.6c-0.2,0.9-0.3,1.8-0.5,2.7
		c-0.2,1-0.8,1.8-1.2,2.7c0,0-0.1,0-0.1,0.1c0,0,0,0,0,0c0,0,0,0,0,0.1c0,0.1-0.2,0.2-0.3,0.2c-1.6-0.3-2.8,0.9-3.7,2
		c-0.2,0.5-0.3,1-0.4,1.5c-0.4,1.6-0.1,3.8,1.6,4.6c1.1,0.5,2.4,0.7,3.5,0.3c0.4,0.1,0.9,0.1,1.3,0c0.6,0.3,1.6,0.4,2.2,0.3
		c2.3-0.3,3.1-1.5,3.8-3.2c0.4-1,0.4-1.8,0.2-2.8c-0.1-0.6-0.2-1.3-0.5-1.6c-0.2-0.2-0.5-0.4-0.9-0.5c-0.4-0.1-0.6-0.4-0.7-0.8
		c-0.1-0.5-0.3-0.9-0.4-1.4c-0.1-0.3-0.2-0.7-0.3-1c-0.1-0.7-0.2-1.3-0.1-2c0.6-4,2.2-8.3,3.1-12.1c0.5-2,1.3-8.4,1.3-9.4
		c0-0.2,0-0.3,0-0.4c0.1,0.3,0.2,0.5,0.2,0.8c0.1,0.2,0.3,0.1,0.3-0.1c0.3-0.7,0.3-1.6,0.1-2.4c0,0.1,0.1,0.2,0.1,0.3
		c0.1,0.2,0.3-0.1,0.3-0.2c0-0.9-0.1-1.7-0.3-2.6c0.1,0,0.1,0.1,0.2,0.1c0.1,0.2,0.2-1.8-0.4-2.8c0.1,0,0.1-0.1,0.1-0.2
		c-0.1-0.8-0.3-1.7-1-2.2c0.5,0.3,1.8,0.7,1.7,0.6c-0.4-0.4-0.7-0.8-1-1.2c0.1,0,0.2,0.1,0.2,0.1c1.1,0.4,4,0.3,3.9,0.2
		c-0.1-0.2-0.2-0.3-0.3-0.4c0.8,0.3,2.5-0.1,2.5-0.2c0-0.2-0.1-0.3-0.2-0.4c0.8,0.2,4.1,1.4,4.1,1.3c0.1-0.5,0.2-0.8-0.2-1.2
		c-1-1.2,0.7,0.5,1,0.8c0.1,0.1,0.1-2,0.3-1.8c0.4,0.6,0.9,1.5,1,1.4c0.4-0.6,0.6-1.2,0.8-2c0.3-1.1,0,1,0,1
		c-0.1,0.2-0.1,0.4-0.1,0.6c0,0.1,0.9-0.4,1.3-0.6c0.5-0.4,1.2-0.7,1.8-1.1c0.1,0.5,0.3,1.1,0.5,1.6c0.8,2.6,1.9,4.9,3.5,7.1
		c2.5,3.2,6.4,4.4,10,6.2c0.3,0.2,0.7,0.5,0.9,0.8c0.9,1.6,0.9,8.6-0.7,15.8c-0.2,0.5-0.4,0.9-0.6,1.3c-0.3,0.6-0.8,1.1-1.3,1.5
		c-0.7-0.8-1.7-1.2-3-0.5c-0.1,0.1-0.3,0.2-0.4,0.2c-0.5-0.2-1.1-0.3-1.4-0.3c-1.8,0.2-3,2.1-3.3,3.7c-0.4,1.9,0.3,3.6,2,4.5
		c0.8,0.4,1.6,0.4,2.4,0.1c0.2,0.1,0.4,0.2,0.7,0.2c0.8,0,1.5-0.1,2.2-0.4c1.6,0.6,3.6,0.1,4.7-1.1c0.6-0.6,1-1.6,1-2.5
		c0-1.8-0.5-3.4-0.4-5.1c1-3.9,1.9-7.8,3.5-11.6c0.8-1.9,1.6-3.6,1.1-5.6c-0.1-0.4-0.3-0.6-0.5-0.9c0.2,0.3,0.5,0.6,0.8,0.7
		c0.1,0,0-1-0.2-1.1c0.1,0.1,0.2,0.2,0.5,0.4C101.4,67.7,101.2,66.4,100.8,65.8z"/>
	<path class="st1" d="M84.3,32.4c0.7,0.2,1.4,0.3,2.2,0.5c-0.1-0.8-0.9-1.3-1.3-1.9c0,0,0,0,0,0c-0.2-0.2-0.4-0.5-0.4-0.9
		c0-0.1,1.6,1,2.8,0c-0.8-0.1-2.2-0.9-2.1-0.8c1,0.2,2.1,0.3,3.1,0.1c-0.8-0.2-1.7-0.3-2.3-0.9c-0.1,0,1.6-0.1,2.3,0
		C88,28,86.9,27.5,87,27.5c1.5,0.2,3.1-0.3,4.1-1.4c-0.9,0.5-1.9,0.7-2.9,0.6c-0.1,0,1.7-0.2,2.5-1.1c-0.6-0.1-1.3,0-1.9,0
		c-0.1,0,1.8-0.7,2.8-0.8c-0.5-0.2-1.1-0.3-1.7-0.4c-0.1,0,1.7-0.3,2.5-0.2c-0.3-0.3-0.6-0.6-1-0.8c-0.1,0,2,0.4,2.8,1
		c-0.3-0.4-1-1.2-1.5-1.4c-0.5-0.3-1.1-0.4-1.6-0.4c0,0,0,0-0.1,0c0.6-0.1,1.4-1.2,1.2-1.1c-1.7,0.8-4.3-1.3-6-1.7
		c-0.6-0.1-1.4-0.3-2.1-0.2c-0.3,0-0.6-0.1-0.9-0.1c0,0,0,0,0,0c0.1,0,0.3-0.2,0.2-0.3c-0.5-0.4-1.4-0.4-1.9-0.5
		c-1.6-0.3-3.3-0.2-5,0c-3.7,0.6-7.2,2.3-10.8,3.4c-3.4,1.1-7,1.9-10.5,2.7c-2.1,0.5-4.4,1-6.6,1.1c-0.9,0-1.7,0.2-2.5,0.3
		c0.6-0.4,1.1-0.8,1.2-1.6c0-0.2-0.2-0.2-0.3-0.1c-1.6,1.2-3.9,1.2-5.8,1.2c-1.7,0-3.2-1.1-4.8-1.2c-0.9-0.1-1.4,0.1-2.1,0.6
		c-1.2,0.8-2.3,1.6-3.4,2.4c0.3,1.3,0.8,2.5,1.2,3.7c0.9,2.2,2,4.4,3.4,6.3c3,4,6.5,7.6,10.3,10.8c-0.2-1.1-0.8-2.1-1.5-2.9
		c-0.1-0.1,0.1-0.2,0.1-0.1c0.5,0.3,1,0.7,1.6,1c-0.3-0.6-0.8-1.2-1.2-1.7c-0.1-0.1,0.1-0.2,0.1-0.1c1.4,1.2,3,2.2,4.7,2.8
		c-0.4-0.5-0.7-1-1.1-1.4c-0.1-0.1,0.1-0.2,0.1-0.1c1.9,1,3.9,1.2,6,1.6c-0.3-0.2-0.6-0.5-0.9-0.7c-0.1,0,0-0.2,0.1-0.2
		c1,0.2,1.9,0.3,2.9,0.4c-0.3-0.3-0.6-0.6-0.9-0.8c-0.1,0,0-0.2,0.1-0.2c1.9,0.6,4,0.1,5.9,0.6c-0.4-0.6-1-0.8-1.6-1.1
		c-0.1,0,0-0.2,0.1-0.2c0.4,0,0.8,0.1,1.3,0.2c-0.5-0.6-1.2-0.9-1.7-1.3c-0.1-0.1,0-0.2,0.1-0.2c1.5,0.3,3,0.3,4.5,0.1
		c-0.6-0.7-1.3-1.3-2.1-1.8c-0.1,0,0-0.2,0.1-0.1c0.6,0.1,1.2,0.2,1.8,0.4c-0.4-0.3-0.7-0.6-1-0.9c-0.1-0.1,0.1-0.2,0.1-0.1
		c1.9,0.7,4,0.7,6,0.5c1.9-0.2,3.7-0.6,5.6-1.1c-0.5-0.5-1.2-0.8-1.9-1.1c-0.1,0,0-0.2,0.1-0.1c0.8,0.1,1.6,0.2,2.4,0
		c-0.8-0.5-1.7-0.7-2.5-1c-0.1,0,0-0.1,0.1-0.2c1.9-0.3,3.9-0.2,5.7-1.1c-0.5,0-1.1-0.2-1.6-0.3c-0.1,0,0-0.1,0-0.2
		c1-0.3,2-0.5,3.1-0.5c-0.9-0.6-2.1-0.7-3.2-0.8c-0.1,0,0-0.1,0-0.1c1.6-0.7,3.3-0.6,5-0.6c-0.4-0.4-0.9-0.7-1.3-1
		c-0.1-0.1,0-0.1,0.1-0.1c1.4-0.1,2.9,0.4,4.3,0.1c-0.3-0.4-0.6-0.7-1-1C84.1,32.5,84.2,32.4,84.3,32.4z"/>
	<path class="st8" d="M91.5,23.3c-0.1,0,2,0.4,2.8,1c-0.3-0.4-1-1.2-1.5-1.4c-0.5-0.3-1.1-0.4-1.6-0.4c0,0,0,0-0.1,0
		c0.6-0.1,1.4-1.2,1.2-1.1c-1,0.5-2.3-0.1-3.6-0.7c-0.6-0.1-1.1-0.2-1.7-0.3c0.5,0.3,1,0.7,1.3,1.2c0,0.1-0.1,0.2-0.1,0.1
		c-1.1-0.5-2.3-0.5-3.4-0.2c0.9,0.1,1.8,0.1,2.4,0.8c0,0.1,0,0.1-0.1,0.1c-1.8,0.2-3.5,0.7-4.9,1.7c1.3,0,2.7-0.4,4,0.1
		c0.1,0,0,0.1-0.1,0.1c-1.3,0.5-2.6,1.3-4,1.6c0.8,0.1,1.6,0.2,2.4,0.2c0.1,0,0.1,0.1,0,0.1c-1.6,1-3.4,1-5.3,1.2
		c1.1,0.2,2.2,0.7,2.9,1.7c0,0.1-0.1,0.1-0.1,0.1c-0.7-0.1-1.4-0.2-2.2-0.4c0.8,0.3,1.6,0.7,1.6,1.6c0,0.1-0.1,0.1-0.1,0.1
		c-0.7-0.3-1.5-0.4-2.2-0.5c-0.2,0-0.4,0-0.6,0c0.4,0.2,0.7,0.4,1,0.7c0,0.1,0,0.1-0.1,0.1c-1.2,0.2-2.3-0.1-3.5,0
		c0.8,0.1,1.7,0.2,2.1,0.9c0,0.1,0,0.1-0.1,0.1c-2-0.3-4,0.2-5.7,1.3c1.5-0.3,3-0.3,4.4,0.3c0.1,0,0,0.1-0.1,0.2
		c-1.6,0.3-3.1,0.8-4.6,1.4c0.7,0.3,1.5,0.6,2.2,0.9c0.1,0,0,0.1-0.1,0.1C72,37,70,37,68.1,36.8c0.6,0.6,1.3,1.1,2.1,1.4
		c0.1,0,0,0.2-0.1,0.2c-0.8-0.1-1.7-0.2-2.5-0.5c0.5,0.7,0.9,1.4,1.2,2.3c0,0.1-0.1,0.1-0.1,0.1c-1.7-0.5-3.3-1.3-4.9-2
		c0.4,0.3,0.8,0.7,1.1,1.2c0,0.1,0,0.1-0.1,0.1c-1.3,0.1-2.6-0.3-3.9-0.5c0.5,0.3,0.9,0.6,1.3,1.1c0,0.1,0,0.1-0.1,0.1
		c-1.3,0.1-2.6,0.1-3.9-0.1c-0.5-0.1-1.1-0.2-1.7-0.4c0.6,0.6,1.3,1.2,2,1.7c0.1,0.1,0,0.2-0.1,0.2c-1.6-0.4-3.2-1-4.7-1.7
		c0.7,0.8,1.4,1.5,2.1,2.3c0.1,0.1-0.1,0.2-0.1,0.1c-1.2-0.5-2.4-1.2-3.3-2.1c0.5,1.1,1,2.1,1.1,3.3c0,0.1-0.1,0.2-0.2,0.1
		c-1.3-1.9-2.6-3.8-4.3-5.3c0.3,0.8,0.8,1.5,1.3,2.2c0,0.1-0.1,0.2-0.1,0.1c-1.9-1.1-3.4-2.7-4.7-4.3c0.3,0.9,0.7,1.7,1.1,2.5
		c0,0.1-0.1,0.2-0.1,0.1c-1.6-1-2.7-2.7-3.6-4.3c0.3,0.8,0.7,1.6,1.1,2.4c0,0.1-0.1,0.2-0.1,0.1c-1.1-0.8-2.1-1.7-2.9-2.8
		c-0.8-0.9-1.6-2-1.8-3.2c0-0.1,0.1-0.2,0.1-0.1c0.4,0.2,0.7,0.5,1,0.8c-0.4-0.7-0.8-1.5-1.1-2.2c0-0.1,0.1-0.1,0.1-0.1
		c0.7,0.2,1.2,0.8,1.7,1.5c-0.1-0.7-0.4-1.4-0.7-2.1c0-0.1,0.1-0.2,0.1-0.1c0.6,0.4,1.1,0.8,1.7,1.2c-0.3-0.9-0.8-1.6-1.4-2.2
		c-0.1-0.1,0.1-0.1,0.1-0.1c2.3,0,4.4-1.4,6-3c-1.6,0.9-3.6,0.9-5.3,0.9c-1.7,0-3.2-1.1-4.8-1.2c-0.9-0.1-1.4,0.1-2.1,0.6
		c-1.2,0.8-2.3,1.6-3.4,2.4c0.3,1.3,0.8,2.5,1.2,3.7c0.9,2.2,2,4.4,3.4,6.3c3,4,6.5,7.6,10.3,10.8c-0.2-1.1-0.8-2.1-1.5-2.9
		c-0.1-0.1,0.1-0.2,0.1-0.1c0.5,0.3,1,0.7,1.6,1c-0.3-0.6-0.8-1.2-1.2-1.7c-0.1-0.1,0.1-0.2,0.1-0.1c1.4,1.2,3,2.2,4.7,2.8
		c-0.4-0.5-0.7-1-1.1-1.4c-0.1-0.1,0.1-0.2,0.1-0.1c1.9,1,3.9,1.2,6,1.6c-0.3-0.2-0.6-0.5-0.9-0.7c-0.1,0,0-0.2,0.1-0.2
		c1,0.2,1.9,0.3,2.9,0.4c-0.3-0.3-0.6-0.6-0.9-0.8c-0.1,0,0-0.2,0.1-0.2c1.9,0.6,4,0.1,5.9,0.6c-0.4-0.6-1-0.8-1.6-1.1
		c-0.1,0,0-0.2,0.1-0.2c0.4,0,0.8,0.1,1.3,0.2c-0.5-0.6-1.2-0.9-1.7-1.3c-0.1-0.1,0-0.2,0.1-0.2c1.5,0.3,3,0.3,4.5,0.1
		c-0.6-0.7-1.3-1.3-2.1-1.8c-0.1,0,0-0.2,0.1-0.1c0.6,0.1,1.2,0.2,1.8,0.4c-0.4-0.3-0.7-0.6-1-0.9c-0.1-0.1,0.1-0.2,0.1-0.1
		c1.9,0.7,4,0.7,6,0.5c1.9-0.2,3.7-0.6,5.6-1.1c-0.5-0.5-1.2-0.8-1.9-1.1c-0.1,0,0-0.2,0.1-0.1c0.8,0.1,1.6,0.2,2.4,0
		c-0.8-0.5-1.7-0.7-2.5-1c-0.1,0,0-0.1,0.1-0.2c1.9-0.3,3.9-0.2,5.7-1.1c-0.5,0-1.1-0.2-1.6-0.3c-0.1,0,0-0.1,0-0.2
		c1-0.3,2-0.5,3.1-0.5c-0.9-0.6-2.1-0.7-3.2-0.8c-0.1,0,0-0.1,0-0.1c1.6-0.7,3.3-0.6,5-0.6c-0.4-0.4-0.9-0.7-1.3-1
		c-0.1-0.1,0-0.1,0.1-0.1c1.4-0.1,2.9,0.4,4.3,0.1c-0.3-0.4-0.6-0.7-1-1c-0.1-0.1,0-0.2,0.1-0.2c0.7,0.2,1.4,0.3,2.2,0.5
		c-0.1-0.8-0.9-1.3-1.3-1.9c0,0,0,0,0,0c-0.2-0.2-0.4-0.5-0.4-0.9c0-0.1,1.6,1,2.8,0c-0.8-0.1-2.2-0.9-2.1-0.8
		c1,0.2,2.1,0.3,3.1,0.1c-0.8-0.2-1.7-0.3-2.3-0.9c-0.1,0,1.6-0.1,2.3,0C88,28,86.9,27.5,87,27.5c1.5,0.2,3.1-0.3,4.1-1.4
		c-0.9,0.5-1.9,0.7-2.9,0.6c-0.1,0,1.7-0.2,2.5-1.1c-0.6-0.1-1.3,0-1.9,0c-0.1,0,1.8-0.7,2.8-0.8c-0.5-0.2-1.1-0.3-1.7-0.4
		c-0.1,0,1.7-0.3,2.5-0.2C92.2,23.8,91.9,23.5,91.5,23.3z"/>
	<path class="st9" d="M49.6,54.9c-1.2-2.2-2.2-4.6-3.8-6.5c-0.1-0.1,0.1-0.2,0.1-0.1c0.2,0.1,0.5,0.3,0.7,0.4
		c-0.4-0.6-0.8-1.1-1.2-1.5c-0.1-0.1,0.1-0.2,0.1-0.1c0.4,0.2,0.7,0.4,1.1,0.5c-0.8-1.1-1.6-2.2-2.7-3c-0.1-0.1,0-0.2,0.1-0.2
		c0.5,0.1,1,0.3,1.5,0.5c-0.6-0.7-1.2-1.4-2.1-1.7c-0.1,0,0-0.2,0.1-0.2c0.5,0.1,0.9,0.2,1.4,0.4c-0.5-0.7-1.3-1.2-1.9-1.8
		c-0.1-0.1,0.1-0.2,0.1-0.1c0.5,0.2,1,0.4,1.5,0.4c-1-1-1.9-2.4-3.3-2.9c-0.1,0,0-0.2,0.1-0.2c0.4,0,0.7,0.1,1.1,0.2
		c-0.5-0.6-1.1-1.2-2-1.4c-0.1,0,0-0.2,0.1-0.2c0,0,0,0,0,0h0c0.3,0,0.5,0,0.8,0.1c-0.5-0.6-1.1-1.1-1.8-1.3c-0.1,0,0-0.2,0.1-0.2
		c0.3,0,0.6,0,1,0.1c-0.7-0.9-1.7-1.5-2.6-2.1c-1-0.6-1.9-1.3-2.7-2.2c-0.9-1-1.7-2.1-2.4-3.3c-0.4-0.6-0.8-1.4-1.1-2.1
		c-0.6,0.4-1.2,0.9-1.7,1.3c-2.2,1.8-4.3,3.7-5.9,6c-0.6,0.9-0.6,1.6-0.3,2.3c-0.1-0.1-0.1-0.1-0.2-0.2c0,0,0,0,0,0
		c0.1,0.1,0.2,0.2,0.3,0.4c0,0.1,0.1,0.1,0.1,0.2c-0.1-0.1-0.2-0.3-0.4-0.4c0,0-0.1,0,0,0c1.2,1.4,2.8,5,0.4,6.3
		c-0.2,0.1,0.8,0.1,1.2-0.1c0,0.2,0,0.3-0.1,0.5c-0.3,0.6-1.5,1.7-1.3,1.6c0,0,0,0,0,0l0,0l0,0c0.7-0.2,1.4-0.6,2-1.1
		c-0.3,0.7-0.6,1.5-0.7,2.3c0.1,0.4,0.2,0.7,0.3,1c0,0,0,0,0,0c0.5-0.8,0.9-1.5,1.5-2.2c-0.3,1.1-0.3,2.3,0,3.3
		c0.2,0.4,0.5,0.8,0.8,1.2c0-0.1,0.1-1.2,0.1-1.6c0.2,1,0.7,2,1.2,2.7c0.2,0.2,0.4,0.3,0.5,0.4c0.1-0.1-0.2-2.1,0-2.9
		c0.2,0.8,0.9,2,1.3,2.6c0-0.2,0-0.4,0-0.6c0-0.1,0.1-0.2,0.2-0.1c0.3,0.6,0.7,1.1,1.1,1.7c-0.1-0.3-0.2-0.5-0.3-0.8
		c0-0.1,0.1-0.2,0.2-0.1c0.8,1.3,1.6,2.6,2.9,3.5c-0.2-0.5-0.4-1-0.6-1.5c0-0.1,0.1-0.2,0.2-0.1c1,1.3,2.1,2.8,3.7,3.4
		c0.4,0.1,0.9,0.2,1.3,0.4c0.3,0.2,0.5,0.4,0.8,0.6c0.4,0.5,0.8,1,1.3,1.5c-0.2-0.5-0.4-0.9-0.5-1.4c0-0.1,0.1-0.2,0.2-0.1
		c0.6,0.6,1.4,1.1,2.1,1.7c0-0.1,0-0.2,0-0.3c0-0.1,0.1-0.2,0.2-0.1c0.6,0.8,1,1.7,1.8,2.3c0.8,0.3,2,0.6,1.9,0.5
		c-0.1-0.2-0.3-0.3-0.4-0.4c-0.1-0.1-0.2-0.2-0.3-0.4c0,0,0,0,0,0c0.6,0.4,2.4,0.7,2.3,0.6c-0.4-0.3-0.9-0.6-1.3-1
		c0.9,0.5,3,0.6,2.9,0.5c-0.1-0.1-0.1-0.1-0.2-0.2c0.2,0,0.3,0,0.5,0c0.5,0.1,1.1,0.1,1.6,0.1C51.6,58.3,50.5,56.6,49.6,54.9z"/>
	<path class="st10" d="M45.3,58.3c-2.1-0.4-3.9-1.1-4.9-3.1c0-0.1-0.1,0-0.1,0.1c0,0.6,0.4,1.1,0.6,1.7c-1.1-1-2.1-2.2-2.5-3.7
		c0,0,0,0,0,0c0.1,0.8,0.4,1.6,0.8,2.3c-2.3-0.8-4.5-2.5-5.2-4.9c0-0.1-0.2,0-0.2,0.1c0.1,0.6,0.2,1.8,0.8,2.2
		c-1.3-0.9-2.2-2.4-2.6-3.9c0-0.1-0.1,0-0.1,0c0,0.7,0,1.2,0.3,1.8c-0.4-1.1-1.2-2.2-1.6-3.4c0,0,0,0,0,0c0.4,1.4,0.8,2.8,1.8,3.8
		c0.1,0.1,0.2-0.1,0.1-0.1c-0.3-0.5-0.5-1-0.6-1.6c0.1,0.5,0.4,1.1,0.6,1.5c0.5,1,1.5,1.8,2.4,2.4c0.1,0.1,0.3-0.1,0.2-0.2
		c-0.5-0.7-0.8-1.6-1.2-2.2c0.4,0.7,0.8,1.4,1.3,2.1c1,1.3,2.5,2.2,4.1,2.5c0.5,0.8,1.2,1.5,1.9,1.9c0.1,0.1,0.3-0.2,0.2-0.3
		c-0.3-0.4-0.7-0.8-0.9-1.3c-0.6-1.4,0.2,0.2,0.6,0.5c1.1,1.2,2.5,1.5,4,1.7C45.3,58.5,45.4,58.4,45.3,58.3z"/>
	<path class="st10" d="M50,55.1c-1.5-2.3-2.5-4.3-3.1-7c0,0,0,0,0,0c0.3,2.2,0.7,4.2,2,6c1.5,2.1,2.7,4,3.7,6.4c0,0.1,0.1,0,0.1-0.1
		C52,58.3,51.2,57,50,55.1z"/>
	<path class="st10" d="M63,54.8c0.2,0.1,0.3,0.2,0.5,0.3c0,0,0.1-0.1,0-0.1c-0.9-1.1-0.9-3-1.6-4.3c-0.1-0.1-0.1-0.2-0.2-0.3
		c0.2,0.2,0.4,0.5,0.6,0.8c0.1,0.1,0.3-0.1,0.3-0.2c0.3-1.8-1.9-4.2-3.2-5.1c0,0,0,0,0,0c1.1,0.9,1.8,2.1,2.4,3.4
		c0.2,0.4,0.3,1,0.6,1.3c-0.5-0.5-0.8-0.9-1.4-1.3c-0.1-0.1-0.3,0.1-0.2,0.2c1,1.2,1.4,2.7,1.7,4.2C62.5,54.1,62.7,54.5,63,54.8z"/>
	<path class="st10" d="M86.4,42.5c0.2-0.1,0.4-0.3,0.7-0.5c-1.1-0.1-2.2-0.8-2.9-1.7c0,0,0,0,0,0c0.5,0.9,1.2,1.6,2.2,1.9
		c-0.4,0.1-0.7,0.1-1.2,0c-0.1,0-0.3,0.1-0.2,0.2c0.8,0.8,0.4,1.6,0.4,2.6c0-0.3-0.4-0.7-0.7-0.9c-0.1-0.2-0.2-0.4-0.3-0.6
		c0.1,0.2,0.1,0.5,0.1,0.7c0,0,0,0,0,0c0.3,0.9,0.2,1.9,0,2.9c0.1-0.6-0.6-1.7-0.9-2.1c-0.1-0.1-0.2,0-0.2,0.1
		c0.2,1.3,0,2.4-0.6,3.6c-0.2,0.4-0.2-1.1-0.3-1.5c0-0.1-0.2,0-0.2,0.1c-0.4,0.9-0.6,1.7-1.2,2.6c-0.1,0.2-0.2,0.3-0.3,0.4
		c-0.1,0.2-0.2,0.4-0.3,0.5c-0.4,0.6-0.8,1.2-1.3,1.8c0,0,0.1,0,0.1,0c1-1,2.5-2.3,3-3.6c0.2-0.4,0.3-0.8,0.3-1.3
		c0.1,0.5,0,1.1,0,1.7c0,0,0,0,0,0.1c0.2-0.1,0.3-0.2,0.5-0.4c0.5-0.7,0.8-1.6,0.9-2.4c0-0.4,0-0.8-0.2-1c0.4,0.6,0.3,1.3,0.6,2
		c0,0,0,0,0,0c0.1-0.1,0.3-0.2,0.4-0.4c0.4-0.8,0.3-1.8,0-2.7c0.2,0.2,0.3,0.4,0.4,0.7c0,0,0,0,0.1,0c0.1-0.2,0.3-0.3,0.4-0.5
		c0.1-0.2,0.1-0.5,0.1-0.6c0.1-0.6,0-1.2-0.3-1.7C85.8,42.6,86.1,42.5,86.4,42.5z"/>
	<path class="st11" d="M100.8,65.8c-0.8-1.4-2.1-2.1-3.1-3.3c-1.2-1.4-1.4-2.9-1.5-4.5c0-2.8,1.1-5.6,2.1-8.3
		c0.1,0.4,0.1,0.9,0.3,1.3c0,0.1,1-2.2,1-2.3c0.4-1.1,0.4-2.3,0.1-3.5c0-0.1,0-0.1,0-0.2c0.2,0.3,0.8,0.8,0.8,0.7
		c0-1.1-0.1-2.3-0.6-3.3c0,0,0-0.1,0-0.1c0.3,0.3,0.6,0.5,0.9,0.8c0.1,0.1-0.6-3-1.7-3.9c0.5,0.1,1.5,0,1.5-0.1
		c-0.1-0.2-0.3-0.2-0.6-0.4c-0.4-0.3-0.8-0.5-1.1-0.8c-0.3-0.2-0.5-0.5-0.8-0.8c0,0,0,0,0,0c0-0.1,0-0.1,0-0.2
		c0.8,0.5,1.7,0.8,2.7,0.7c0.1,0-1.6-1.2-2.3-2c-0.1-0.2-0.3-0.3-0.4-0.5c0.3,0.2,0.7,0.3,1.1,0.3c0.1,0-0.9-3-1.9-4.1
		c0.1,0,0.9-0.3,0.6-0.4c-1-0.5-1.6-1.5-2.1-2.5c0.4,0.2,0.8,0.5,1.2,0.7c0.1,0.1-0.1-0.8-0.3-1.1c-0.3-0.5-0.7-0.9-1-1.4
		c-0.2-0.3-0.4-0.5-0.7-0.7c0.4-0.1,0.9-0.7,1-1c-0.9,0.6-1.9,1-3,0.7c0,0,0,0,0-0.1c0-0.1,0-0.2,0-0.3c-0.2,0.2-0.4,0.3-0.6,0.5
		c0,0-0.1,0-0.1,0v-0.2c-0.2,0.3-0.5,0.6-0.8,0.9c0.4-0.2,0.9-0.3,1.3-0.5c0,0,0.1,0,0.1,0.1c-0.3,0.8-0.9,1.2-1.6,1.7
		c0.5-0.1,1.1-0.2,1.7-0.3c0.1,0,0.1,0,0,0.1c-0.4,0.8-1.2,1.5-2.1,1.8c0.5,0.1,1.1,0,1.6,0.1c0.1,0,0,0.1,0,0.1
		c-0.9,0.7-2.1,0.9-3.2,1c0.7,0.2,1.4,0.5,1.9,1.2c0,0.1,0,0.1-0.1,0.1c-0.6,0-1.2-0.2-1.8-0.2c0.6,0.5,1.1,1.1,1.5,1.8
		c0-0.3-0.1-0.6-0.2-0.9c0-0.1,0.1-0.1,0.1-0.1c0.9,0.5,1.1,1.6,1.4,2.5c0.2-0.7,0-1.4-0.2-2c0-0.1,0.1-0.2,0.2-0.1
		c0.6,0.6,1,1.2,1.3,2c0-0.5-0.1-1-0.3-1.4c0-0.1,0.1-0.1,0.1-0.1c0.9,0.4,1.3,1.5,1.5,2.4c0.2,0.9,0.4,1.8,0.5,2.8
		c0.1-0.7,0.3-1.3,0.8-1.8c0,0,0.2-0.1,0.1,0c-0.1,1-0.2,2,0,3c0.2-0.5,0.3-1.1,0.4-1.6c0-0.1,0.1-0.2,0.2-0.1
		c0.5,1.7,1,3.5,0.6,5.3c0,0.1-0.1,0.1-0.2,0.1c-0.3-0.6-0.6-1.1-1-1.6c0.3,0.8,0.6,1.7,0.6,2.7c0,0.1-0.1,0.2-0.2,0.1
		c-0.4-0.7-0.8-1.4-1.4-1.9c0.7,1.2,0.9,2.6,0.7,4c0,0.1-0.1,0.1-0.2,0.1c-0.3-0.8-0.8-1.5-1.3-2.2c0.4,1.2,0.5,2.4,0.3,3.7
		c0,0-0.1,0.1-0.2,0.1c-0.4-0.5-0.8-1.1-1.2-1.5c0.8,2-0.2,4.4-0.7,6.5c0.2-0.4,0.5-0.7,0.8-1c0,0,0.2-0.1,0.1,0
		c-0.1,0.8-0.4,1.6-0.4,2.5c0.2-0.4,0.5-0.8,0.9-1.1c0,0,0.2,0,0.1,0c-0.5,1.5-0.8,3.1-0.6,4.7c0.1-0.4,0.3-0.9,0.5-1.3
		c0-0.1,0.2-0.1,0.2,0c-0.3,1.8-0.3,3.6,0.4,5.3c0.1-0.5,0.1-0.9,0.2-1.4c0-0.1,0.2-0.1,0.2,0c0.1,2.6,2.6,4.2,3.7,6.4
		c0,0.1-0.1,0.2-0.1,0.1c-0.3-0.2-0.7-0.4-1-0.5c0.9,0.7,1.6,1.7,1.9,2.8c0,0.1-0.1,0.1-0.1,0.1c-0.2,0-0.3-0.1-0.5-0.2
		c0.3,0.7,0.4,1.4,0.3,2.1c0,0.1-0.1,0.1-0.2,0.1c-0.1-0.3-0.3-0.6-0.5-0.8c0,0.7,0.2,1.4,0.2,2.1c0,0.7,0,1.3-0.2,2
		c-0.3,1.4-0.7,2.7-1.1,4c-0.8,2.7-1.9,5.3-1.7,8.2c0,0.1-0.1,0.2-0.2,0.1c-0.2-0.4-0.4-0.7-0.5-1.1c-0.2,0.3-0.3,0.5-0.5,0.7
		c0,0-0.2,0.1-0.1,0c0-0.1,0-0.3,0-0.4c-0.4,0.3-0.8,0.5-1.4,0.5c0,0,0-0.1,0-0.1c1.4-2.9,1.9-6,2.3-9.1c0.2-1.7,0.3-3.3,0.4-5
		c0.1-0.7,0.1-1.5,0.4-2.1c0.3-0.6,0.6-1.1,0.8-1.7c-0.3,0.4-0.5,0.8-0.8,1.2c0,0-0.2,0.1-0.1,0c0.2-0.7,0.3-1.5,0.1-2.2
		c-0.1,0.5-0.2,1-0.4,1.4c0,0-0.2,0.1-0.2,0c-0.1-0.9-0.4-1.7-1.1-2.3c0,0,0,0,0,0c-0.8-0.5-1.7-0.8-2.7-1.2c-1.7-0.8-3.5-1.7-5-2.8
		c-2.2-1.6-3.7-3.8-4.8-6.3c0,0,0,0,0,0c0,0,0,0,0-0.1c-0.2-0.4-0.3-0.9-0.5-1.4c0,0,0-0.1,0-0.1c-0.1-0.2-0.1-0.5-0.2-0.8
		c0-0.1,0.1-0.2,0.2-0.1c0.3,0.4,0.5,0.7,0.7,1.1c-0.2-1.1-0.1-2.1,0.2-3.2c0,0,0.1-0.1,0.2-0.1c0.1,0.5,0.2,1,0.3,1.4
		c0.2-1.7,1.4-3,2.4-4.4c0,0,0.1-0.1,0.1,0c0,0.4-0.1,0.8-0.1,1.2c0.9-1.2,1.7-2.6,2.1-4c0-0.1,0.2-0.1,0.2,0
		c-0.1,0.4-0.1,0.8-0.2,1.2c0.7-0.9,1-1.9,1.1-3c0-0.9-0.3-1.9-0.3-2.8c0-0.1,0.1-0.1,0.1-0.1c1,0.8,1.5,2.2,1.6,3.4
		c0.2-0.9,0.3-1.9,0-2.8c0-0.1,0.1-0.2,0.2-0.1c0.2,0.7,0.5,1.3,0.7,2c0.4-1.7,0.4-3.6-0.3-5.2c0,0.8,0.1,1.5,0,2.3
		c0,0.1-0.2,0.2-0.2,0.1c-0.1-2.3-1.1-5.3-3.1-6.6c0.4,0.6,0.8,1.3,1,2.1c0,0.1-0.1,0.2-0.2,0.1c-0.5-0.6-1.3-1.3-2.2-1.6
		c0.6,1,0.9,2,0.9,3.2c0,0.1-0.1,0.2-0.2,0.1c-0.7-1.2-1.6-2.7-2.9-3.2c0.6,1,1.1,2,1.7,3c0,0.1-0.1,0.2-0.1,0.1
		c-2-1.5-3.8-3.3-4.9-5.5c0.1,0.9,0.4,1.9,0.7,2.8c0,0.1-0.1,0.2-0.2,0.1c-0.6-0.5-1-1.2-1.3-1.8c0.4,1.6,0.9,3.2,2.4,4
		c0.1,0,0,0.2-0.1,0.1c-0.6-0.3-1.2-0.6-1.9-0.7c0.7,0.4,1.3,1,1.5,1.8c0,0.1-0.1,0.1-0.1,0.1c-1-0.4-2-0.8-3.1-0.9
		c1.6,0.5,3.3,1.5,3.7,3.2c0,0.1-0.1,0.2-0.1,0.1c-0.9-0.5-1.8-0.8-2.7-1.1c0.4,0.5,0.9,0.9,1.1,1.6c0,0.1-0.1,0.1-0.1,0.1
		c-1.1,0-2.1-0.2-3.1-0.5c0.5,0.6,0.9,1.2,1.1,1.9c0,0.1-0.1,0.1-0.1,0.1c-0.9-0.3-1.8-0.8-2.7-1.3c0.3,0.6,0.4,1.3,0.4,1.9
		c0,0.1-0.1,0.2-0.2,0.1c-0.3-0.5-0.6-1-1-1.3c0.1,0.8,0.1,1.6-0.1,2.4c0,0-0.2,0.1-0.2,0.1c-0.2-1.1-1.2-2.1-2.3-2.4
		c0.4,0.3,0.8,0.7,1.1,1.1c0,0.1-0.1,0.2-0.1,0.1c-0.7-0.3-1.6-0.4-2.4-0.6c0.4,0.4,0.8,0.8,1,1.4c0,0.1-0.1,0.1-0.1,0.1
		c-0.8-0.4-1.7-0.8-2.6-0.9c0.6,0.5,1.3,0.9,1.7,1.7c0,0.1-0.1,0.1-0.1,0.1c-2.1-0.6-4.3-0.9-6.4-1.5c0.4,0.3,0.8,0.5,1.1,0.9
		c0.1,0.1-0.1,0.2-0.1,0.1c-1.2-0.2-2.3-0.8-3.5-1.4c0.6,0.8,1.3,1.6,1.9,2.4c0,0.1-0.1,0.2-0.1,0.1c-1.7-0.4-2.8-1.8-4.2-2.7
		c-0.6-0.4-1.1-0.8-1.7-1.2c-0.5-0.3-1.1-0.7-1.7-0.6c0.9,0.5,1.8,1.1,2.3,2c0,0.1-0.1,0.1-0.1,0.1c-1.5-0.7-3-1.4-4.7-1.8
		c2.2,0.8,4.6,1.8,5.4,4.1c0,0.1-0.1,0.2-0.1,0.1c-1.2-0.6-2.3-1.5-3.6-1.5c1.7,0.4,3.1,1.7,4.1,3.1c0,0.1-0.1,0.2-0.1,0.1
		c-0.9-0.7-1.9-0.9-3-1c0.9,0.4,1.7,1,2.2,1.9h0h0c0,0,0,0,0,0c0,0.1-0.1,0.2-0.2,0.1c-0.6-0.5-1.2-0.8-2-0.9c1,0.7,1.8,1.7,2.3,2.8
		c0.6,1.1,1.1,2.4,1.2,3.7c0,0.1-0.1,0.1-0.2,0.1c-0.6-0.7-1.1-1.7-2-2.2c1.3,1.9,2.6,3.8,3,6.1c0,0.1-0.1,0.2-0.2,0.1
		c-0.5-0.7-1-1.3-1.7-1.9c0.6,1.3,1.3,2.6,2.3,3.7c0.1,0.1-0.1,0.2-0.1,0.1c-0.5-0.3-1-0.7-1.4-1c0.5,0.9,0.8,1.8,1,2.8
		c0,0.1-0.1,0.2-0.2,0.1c-0.3-0.4-0.7-0.8-1-1.2c1.3,1.9,1.9,4.3,1.9,6.6c0,0.1-0.1,0.2-0.2,0.1c-0.2-0.5-0.5-1.1-0.8-1.5
		c0.3,1.1,0.6,2.2,0.9,3.3c0,0.1-0.1,0.2-0.2,0.1c-0.3-0.3-0.7-0.7-1-1.1c0.6,1.4,0.9,2.9,0.7,4.4c0,0.1-0.2,0.2-0.2,0.1
		c-0.1-0.5-0.2-1-0.3-1.5c0.3,2.1,0.4,4.3-0.1,6.4c0,0.1-0.2,0.1-0.2,0c0-0.4,0-0.8-0.1-1.2c-0.2,1.8-0.8,3.4-1.3,5.2
		c-0.3,1.2-0.5,2.3-0.6,3.5c-0.1,1.1,0,2.2-0.1,3.3c0,0.1-0.1,0.1-0.1,0.1c-0.6-0.2-1.2,0-1.8,0.3c0,0-0.1,0-0.1,0
		c0-0.2-0.1-0.5,0-0.7c0.1-0.5,0.2-0.9,0.3-1.4c0.2-1,0.5-2,0.6-3c0.3-3.1,0.3-6.2,0.1-9.3c-0.2-3.1-0.5-6.3-1.1-9.3
		c-0.6-2.9-1.2-5.8-2.3-8.5c-0.9-2.2-2.2-4.3-2.5-6.7C50,52,50,52.4,49.9,52.8c0,0.1-0.1,0.1-0.2,0.1c-0.3-1.1-0.3-2.2-0.3-3.4
		C49.1,50,49,50.6,49,51.3c0,0.1-0.1,0.2-0.2,0.1c-0.5-1.2-0.5-2.5-0.5-3.7c0,0,0-0.1,0-0.1c-0.1,0.7-0.2,1.3-0.4,2
		c0,0.1-0.1,0.1-0.2,0.1c-0.9-1.7-0.6-3.4-0.7-5.2c-0.5,0.6-0.6,1.4-0.6,2.1c0,0.1-0.1,0.2-0.2,0.1c-0.7-1.3-0.9-2.8-1.2-4.2
		c-0.2,0.7-0.1,1.5,0.1,2.2c0,0.1-0.1,0.2-0.2,0.1c-0.7-1.1-1.2-2.2-1.4-3.5c-0.3,1.4,0.2,2.8,0.6,4.2c0,0.1-0.1,0.2-0.2,0.1
		c-0.5-0.8-1.2-1.5-2-2c0.6,0.8,1.1,1.6,1.6,2.5c0,0.1-0.1,0.2-0.2,0.1c-0.4-0.4-0.8-0.8-1.3-1.1c0.2,0.4,0.4,0.8,0.5,1.2
		c0,0.1-0.1,0.2-0.2,0.1c-0.4-0.5-0.8-0.8-1.4-1c0.6,1.1,1.4,2,2.1,3c0.1,0.1-0.1,0.2-0.1,0.1c-0.5-0.2-0.9-0.4-1.2-0.7
		c1.2,2,1.9,4.2,1.7,6.5c0,0.1-0.1,0.2-0.2,0.1c-0.4-1.2-1-2.3-1.6-3.3c0.4,1.6,0.6,3.2,0.7,4.9c0,0.1-0.1,0.2-0.2,0.1
		c-1-1.3-1.8-2.7-2.4-4.2c0.1,0.9,0.2,1.8,0.5,2.6c0,0.1-0.1,0.2-0.2,0.1c-1-1.4-1.9-3-2-4.7c-0.1,0.6-0.1,1.1,0,1.7
		c0,0.1-0.1,0.2-0.2,0.1c-0.4-0.8-0.7-1.7-0.9-2.5c-0.1,0.9-0.1,1.9-0.2,2.8c0,0.1-0.1,0.2-0.2,0.1c-0.5-0.8-0.8-1.7-0.9-2.7
		c0,1.3,0.1,2.7,0.6,4c0,0.1-0.1,0.2-0.2,0.1c-1.3-1.4-2.8-3-3-4.9c-0.2,0.8-0.2,1.7-0.1,2.5c0,0.1-0.1,0.2-0.2,0.1
		c-0.9-1.4-1.3-3-1.3-4.6c-0.2,0.7-0.4,1.5-0.4,2.3c0,0.1-0.1,0.2-0.2,0.1c-0.7-1-1-2.5-0.7-3.7c-0.4,0.7-0.5,1.4-0.6,2.2
		c0,0.1-0.1,0.2-0.2,0.1c-0.2-0.6-0.3-1.3-0.3-1.9c-0.4,0.6-0.7,1.2-0.9,1.9c0,0.1-0.2,0.1-0.2,0c-0.1-1,0-2,0.3-3
		c-0.4,0.7-0.7,1.5-1,2.3c0,0-0.1,0.1-0.2,0.1c-0.2-1.1-0.2-2.2,0.1-3.2c-0.6,0.2-1.1,0.5-1.5,1c0,0-0.2,0.1-0.1,0
		c0.1-1.1,0.8-2,1.6-2.8c-0.6,0.2-1.2,0.7-1.7,1c0,0-0.1,0-0.1,0c0.3-1.2,1-2.3,1-3.5c0-0.1,0.1-0.2,0.2-0.1
		c0.2,0.5,0.3,0.9,0.3,1.4c0.2-0.4,0.3-0.8,0.3-1.3c0-0.1,0.1-0.2,0.2-0.1c0.6,0.9,1.3,1.7,2.2,2.4c-0.2-0.7-0.4-1.3-0.4-2
		c0-0.1,0.1-0.1,0.2-0.1c0.4,0.4,0.6,0.8,0.9,1.3c0-0.7-0.1-1.5-0.3-2.2c0-0.1,0.1-0.2,0.1-0.1c1.1,0.8,2.1,1.8,2.8,3
		c0-0.7-0.2-1.4-0.5-2c0-0.1,0.1-0.1,0.1-0.1c0.5,0.2,1,0.5,1.5,0.8c-0.3-0.7-0.7-1.3-1.1-1.9c0-0.1,0-0.1,0.1-0.1
		c0.5-0.1,1.1-0.1,1.7-0.1c-0.2-0.9-1-1.6-1.5-2.3c0-0.1,0.1-0.2,0.1-0.1c0.7,0.2,1.4,0.5,1.9,1c-0.2-0.5-0.5-0.9-0.9-1.2
		c-0.1-0.1,0-0.2,0.1-0.2c1.1,0.1,2,0.6,2.6,1.5c0-1.1-0.7-2.1-1.6-2.7c-0.1,0,0-0.2,0.1-0.2c1.3,0.1,2.4-0.4,3.4-1
		c-0.5,0.1-1,0.2-1.5,0.2c-0.1,0-0.1-0.1,0-0.1c0.8-0.7,1.6-1.4,2.2-2.2c-0.4,0.2-0.8,0.4-1.3,0.6c-0.1,0-0.1,0-0.1-0.1
		c0.5-0.5,0.8-1,0.9-1.7c-0.4,0.3-0.8,0.6-1.3,0.7c-0.1,0-0.1-0.1,0-0.1c0.6-0.5,1.1-1.2,1.2-2c0-0.1,0.1-0.2,0.2-0.1
		c0.2,0.4,0.4,0.8,0.4,1.2c0.5-0.6,0.6-1.4,0.6-2.2c0-0.1,0.1-0.2,0.2-0.1c0.5,0.5,0.4,1.3,0.4,2c0.3-0.6,0.4-1.4,0-2
		c0-0.1,0.1-0.1,0.1-0.1c1.2,0,2.4-0.4,3.5-0.9c0.6-0.3,1.2-0.8,1.7-1.3c-1.6,1-3.7,1.1-5.5,1c-1.7,0-3.2-1.1-4.8-1.2
		c-0.9-0.1-1.4,0.1-2.1,0.6c-1.4,1-2.8,1.9-4.1,3c-2.2,1.8-4.3,3.7-5.9,6c-0.6,0.9-0.6,1.6-0.3,2.3c-0.1-0.1-0.1-0.1-0.2-0.2
		c0,0,0,0,0,0c0.1,0.1,0.2,0.2,0.3,0.4c0,0.1,0.1,0.1,0.1,0.2c-0.1-0.1-0.2-0.3-0.4-0.4c0,0-0.1,0,0,0c1.2,1.4,2.8,5,0.4,6.3
		c-0.2,0.1,0.8,0.1,1.2-0.1c0,0.2,0,0.3-0.1,0.5c-0.3,0.6-1.5,1.7-1.3,1.6c0,0,0,0,0,0l0,0l0,0c0.7-0.2,1.4-0.6,2-1.1
		c-0.3,0.7-0.6,1.5-0.7,2.3c0.1,0.4,0.2,0.7,0.3,1c0,0,0,0,0,0c0.5-0.8,0.9-1.5,1.5-2.2c-0.3,1.1-0.3,2.3,0,3.3
		c0.2,0.4,0.5,0.8,0.8,1.2c0-0.1,0.1-1.2,0.1-1.6c0.2,1,0.7,2,1.2,2.7c0.2,0.2,0.4,0.3,0.5,0.4c0.1-0.1-0.2-2.1,0-2.9
		c0.2,1.2,1.6,3.1,1.6,3c0-0.2-0.1-0.5-0.1-0.7c0,0.1,0,0.1,0.1,0.2c0,0.1,0.1,0.2,0.1,0.3c0.1,1.7,0.9,3.3,2.2,4.5c0,0,0.1,0,0.1,0
		c0.1,0.2,0.1,0.4,0.2,0.6c0.2,0.4,0.5,0.8,0.7,1.2c-0.1-0.5-0.2-1-0.5-1.5c0-0.1,0.1-0.1,0.1-0.1c0.7,0.4,1.2,0.9,1.6,1.5
		c-0.1-0.3-0.3-0.6-0.4-1c0-0.1,0.1-0.2,0.1-0.1c1.7,0.6,3.2,2,4.3,3.4c1.1,1.4,1.9,3,2.4,4.7c0.1-0.4,0.1-0.9,0.1-1.3
		c0-0.1,0.1-0.1,0.2-0.1c0.9,1,1.1,2.4,1.1,3.7c0,1.6-0.3,3.2-0.7,4.7c-0.4,2-0.9,3.9-1.2,5.9c-0.2,1.6-0.4,3.3-0.8,4.9
		c-0.2,1.8-0.8,3.5-0.8,5.3c0,0.9,0.1,1.8,0,2.7c-0.1,0.4-0.2,0.9-0.6,1.2c-1,0.7-2.5,0.1-3.6,0.2c-0.5,0-0.8,0.1-1.3,0.3
		c-0.2,0.1-0.5,0.1-0.7,0.1c-0.3,0-0.7-0.1-1-0.1c0.4,0.1,0.7,0.3,1,0.6c0.2-0.1,0.3-0.2,0.5-0.3c0,0,0.1,0,0.1,0c1-0.3,2.3,0,2.6,1
		c0.5,1.3-0.5,2.9-1.8,3.2c-1.1,0.3-2.2-0.4-2.4-1.6c-0.1-0.7,0.1-1.5,0.6-2c-0.4,0.2-0.6,0.5-0.8,0.9c-0.2,0.4-0.3,0.8-0.5,1.2
		c-0.3,0.5-0.8,0.8-1.4,0.4c-1.1-0.9-0.3-2.4,0.6-3.2c-0.5,0.3-0.9,0.7-1.2,1.2c-0.2,0.4-0.3,0.8-0.5,1.2c-0.1,0.2-0.2,0.5-0.4,0.6
		c-0.4,0.2-0.7-0.2-0.8-0.6c-0.1,1,0.2,1.9,1.1,2.5c0.4,0.3,0.8,0.4,1.3,0.4c0.3,0.1,0.5,0.2,0.8,0.3c0.6,0.1,1.2,0,1.7-0.2
		c1.7,1,3.8,0.1,5.2-0.9c0.8-0.6,1.4-1.5,1.7-2.3c0.3-0.9,0.7-1.7,1.1-2.5c0.1-0.1,0.2-0.2,0.3-0.4c1.2-1.2,0.2-3.6,0-5.3
		c0.5-4,1.1-6.1,2.1-10.2c0.3-0.5,1.6-6.1,2.1-8.2c0.8-3,0.6-4.7-1.3-6.8c0.7,0.4,2.6,0.9,2.5,0.8c-0.1-0.2-0.3-0.3-0.4-0.4
		c-0.1-0.1-0.2-0.2-0.3-0.4c0,0,0,0,0,0c0.6,0.4,2.4,0.7,2.3,0.6c-0.4-0.3-0.9-0.6-1.3-1c0.9,0.5,3,0.6,2.9,0.5
		c-0.1-0.1-0.1-0.1-0.2-0.2c0.2,0,0.3,0,0.5,0c0.6,0.1,1.2,0.1,1.7,0.1c1.2,3.6,2,7.3,2.5,11.2c0.4,3.2,0.9,6.4,0.8,9.7
		c-0.1,1.5-0.1,3.1-0.1,4.6c-0.2,0.9-0.3,1.8-0.5,2.7c-0.2,1-0.8,1.8-1.2,2.7c0,0-0.1,0-0.1,0.1c0,0,0,0,0,0c0,0,0,0,0,0.1
		c0,0.1-0.2,0.2-0.3,0.2c-1.6-0.3-2.8,0.9-3.7,2c-0.1,0.3-0.2,0.7-0.3,1c0,0,0.1,0,0.1,0c0,0,0,0,0,0c0.4-1.2,1.5-2.4,2.8-2.3
		c0.6,0,0.8,0.2,0.6,0.8c-0.2,0.4-0.4,0.7-0.6,1.1c-0.3,0.5-0.3,1.1-0.4,1.6c-0.1,0.6-0.1,1.5-0.7,1.8c-0.5,0.2-1,0-1.4-0.3
		c-0.4-0.4-0.6-0.8-0.7-1.2c-0.1,1.4,0.4,2.9,1.7,3.5c1.1,0.5,2.4,0.7,3.5,0.3c0.4,0.1,0.9,0.1,1.3,0c0.6,0.3,1.6,0.4,2.2,0.3
		c2.3-0.3,3.1-1.5,3.8-3.2c0.4-1,0.4-1.8,0.2-2.8c-0.1-0.6-0.2-1.3-0.5-1.6c-0.2-0.2-0.5-0.4-0.9-0.5c-0.4-0.1-0.6-0.4-0.7-0.8
		c-0.1-0.5-0.3-0.9-0.4-1.4c-0.1-0.3-0.2-0.7-0.3-1c-0.1-0.7-0.2-1.3-0.1-2c0.6-4,2.2-8.3,3.1-12.1c0.5-2,1.3-8.4,1.3-9.4
		c0-0.2,0-0.3,0-0.4c0.1,0.3,0.2,0.5,0.2,0.8c0.1,0.2,0.3,0.1,0.3-0.1c0.3-0.7,0.3-1.6,0.1-2.4c0,0.1,0.1,0.2,0.1,0.3
		c0.1,0.2,0.3-0.1,0.3-0.2c0-0.9-0.1-1.7-0.3-2.6c0.1,0,0.1,0.1,0.2,0.1c0.1,0.2,0.2-1.8-0.4-2.8c0.1,0,0.1-0.1,0.1-0.2
		c-0.1-0.8-0.3-1.7-1-2.2c0.5,0.3,1.8,0.7,1.7,0.6c-0.4-0.4-0.7-0.8-1-1.2c0.1,0,0.2,0.1,0.2,0.1c1.1,0.4,4,0.3,3.9,0.2
		c-0.1-0.2-0.2-0.3-0.3-0.4c0.8,0.3,2.5-0.1,2.5-0.2c0-0.2-0.1-0.3-0.2-0.4c0.8,0.2,4.1,1.4,4.1,1.3c0.1-0.5,0.2-0.8-0.2-1.2
		c-1-1.2,0.7,0.5,1,0.8c0.1,0.1,0.1-2,0.3-1.8c0.4,0.6,0.9,1.5,1,1.4c0.4-0.6,0.6-1.2,0.8-2c0.3-1.1,0,1,0,1
		c-0.1,0.2-0.1,0.4-0.1,0.6c0,0.1,0.9-0.4,1.3-0.6c0.5-0.4,1.2-0.7,1.8-1.1c0.1,0.5,0.3,1.1,0.5,1.6c0.8,2.6,1.9,4.9,3.5,7.1
		c2.5,3.2,6.4,4.4,10,6.2c0.3,0.2,0.7,0.5,0.9,0.8c0.9,1.6,0.9,8.6-0.7,15.8c-0.2,0.5-0.4,0.9-0.6,1.3c-0.3,0.6-0.8,1.1-1.3,1.5
		c-0.1-0.1-0.2-0.2-0.3-0.3c0.3,0.5-0.2,0.9-0.6,1.3c-1,0.9-1.2,2.4-2.3,3.2c-1,0.7-2.3-0.7-2.1-1.8c0.2-1.1,1-1.9,1.9-2.6
		c-0.3-0.1-0.6-0.2-0.9-0.3c0.1,0.1,0.1,0.2,0,0.4c-0.1,0.2-0.2,0.4-0.4,0.5c-0.4,0.4-0.7,0.7-0.9,1.2c-0.2,0.8-0.2,1.7-0.7,2.4
		c-0.3,0.4-0.8,0.7-1.4,0.4c-0.3-0.1-0.5-0.3-0.6-0.5c-0.1,1.6,0.7,3,2.1,3.8c0.8,0.4,1.6,0.4,2.4,0.1c0.2,0.1,0.4,0.2,0.7,0.2
		c0.8,0,1.5-0.1,2.2-0.4c1.6,0.6,3.6,0.1,4.7-1.1c0.6-0.6,1-1.6,1-2.5c0-1.8-0.5-3.4-0.4-5.1c1-3.9,1.9-7.8,3.5-11.6
		c0.8-1.9,1.6-3.6,1.1-5.6c-0.1-0.4-0.3-0.6-0.5-0.9c0.2,0.3,0.5,0.6,0.8,0.7c0.1,0,0-1-0.2-1.1c0.1,0.1,0.2,0.2,0.5,0.4
		C101.4,67.7,101.2,66.4,100.8,65.8z M57,94.8c0,0.4-0.1,0.7-0.3,1.1c-0.5,1.2-2,2.3-3.1,1.2c-0.9-0.9-1-2.3-0.6-3.4
		c0.2-0.8,0.8-1.6,1.6-1.9c0,0,0.1,0,0.1,0c0.4-0.1,0.8-0.2,1.2,0.1c0.4,0.2,0.7,0.5,1,0.9C57.2,93.2,57.2,94,57,94.8z M59.6,92.5
		c0.7-0.7,1.5,0.6,1.6,1.3c0.1,0.7,0,2.2-0.8,2.6c-0.9,0.4-1.3-1.2-1.3-1.8C58.9,94,58.9,92.8,59.6,92.5z M92.8,92
		c-1.1,0.3-2.5,0-2.6-1.4c-0.1-1.2,0.6-2.2,1.6-2.8c0,0,0-0.1,0-0.1c1-0.9,2.9-0.3,3.2,1.1C95.3,90.3,94.2,91.6,92.8,92z"/>
	<path class="st11" d="M30,94.2c0-0.1,0-0.2,0-0.3c0-0.2,0-0.3,0.1-0.5c0-0.8,0.6-1.6,1.2-2.1c-0.5,0.3-0.9,0.7-1.2,1.2
		c-0.1,0.1-0.1,0.2-0.1,0.3C29.9,93.3,29.9,93.7,30,94.2z"/>
	<path class="st11" d="M32.8,92.8c0.1-0.3,0.3-0.6,0.5-0.8c-0.1,0.1-0.2,0.2-0.3,0.2c0,0,0,0,0,0.1C32.9,92.4,32.9,92.6,32.8,92.8z"
		/>
	<path class="st11" d="M40.6,91.3c-0.7,0.6-1.2,1.2-1.7,1.9c-0.5,0.7-0.9,1.3-1.4,1.9c-0.9,1-2.4,1.8-3.8,1.3
		c-0.7-0.3-1-0.8-1.1-1.4c-0.1,0.4-0.2,0.7-0.5,1c-0.5,0.4-1.2,0-1.6-0.4c-0.2-0.2-0.3-0.4-0.4-0.6c-0.1,0.4-0.4,0.7-0.8,0.6
		c-0.4-0.1-0.7-0.5-0.9-0.9c0.1,0.7,0.4,1.2,1.1,1.6c0.4,0.3,0.8,0.4,1.3,0.4c0.3,0.1,0.5,0.2,0.8,0.3c0.6,0.1,1.2,0,1.7-0.2
		c1.7,1,3.8,0.1,5.2-0.9c0.8-0.6,1.4-1.5,1.7-2.3c0.3-0.9,0.7-1.7,1.1-2.5c0.1-0.1,0.2-0.2,0.3-0.4c0.3-0.3,0.4-0.6,0.5-1
		C41.8,90.3,41.2,90.8,40.6,91.3z"/>
	<path class="st11" d="M50.2,60.2c-0.1-0.1-0.1-0.1-0.2-0.2c0.2,0,0.3,0,0.5,0c0.5,0.1,1.1,0.1,1.6,0.1c-0.5-1.9-1.5-3.6-2.6-5.3
		c-0.8-1.1-1.4-2.3-1.8-3.6c-0.2-0.9-0.4-1.7-0.6-2.6c-0.1,1.1-0.1,2.3,0.1,3.4c0,0.1-0.1,0.2-0.2,0.1c-0.5-0.6-0.8-1.3-1.3-1.9
		c0.4,1.3,1.1,2.5,1.6,3.8c0,0.1-0.1,0.2-0.2,0.1c-0.9-0.7-1.7-1.6-2.4-2.5c0.9,1.9,2.3,3.5,3.2,5.4c0,0.1-0.1,0.2-0.1,0.1
		c-1-0.7-2-1.4-3.2-1.9c0.7,0.8,1.5,1.5,2,2.4c0,0.1-0.1,0.1-0.1,0.1c-1.3-0.3-2.3-1-3.2-1.9c0.3,0.6,0.7,1.2,1.2,1.7
		c0.1,0.1-0.1,0.2-0.1,0.1c-2.2-0.6-3.7-2.2-4.7-4.2c0.1,0.6,0.2,1.2,0.5,1.8c0,0.1-0.1,0.2-0.2,0.1c-1.3-1-1.8-2.6-2.6-4
		c-0.1,1.2,0.2,2.4,0.7,3.4c0,0.1-0.1,0.1-0.1,0.1c-1.3-0.4-2.4-1.3-3.2-2.4c0.5,0.9,1.1,1.8,1.8,2.5c0.9,0.7,1.8,1.2,2.7,1.9
		c1.2,0.9,2.2,2.1,3.1,3.3c-0.1-0.5-0.2-1.1-0.3-1.6c0-0.1,0.1-0.2,0.2-0.1c0.7,0.6,1.1,1.5,1.6,2.3c-0.1-0.3-0.2-0.6-0.4-1
		c0-0.1,0.1-0.2,0.2-0.1c3.3,4.3,1,9.9-0.3,14.6c-0.8,2.9-1.5,5.8-1.8,8.7c-0.1,0.7-0.1,1.4,0,2.1c0.1,0.7,0.3,1.4,0.5,2
		c0,0.1,0.1,0.3,0.1,0.4c0,0,0.1,0,0.1,0c0,0,0,0,0,0c-0.1-0.9-0.4-1.8-0.5-2.6c0.5-4,1.1-6.1,2.1-10.2c0.3-0.5,1.6-6.1,2.1-8.2
		c0.8-3,0.6-4.7-1.3-6.8c0.7,0.4,2.6,0.9,2.5,0.8c-0.1-0.2-0.3-0.3-0.4-0.4c-0.1-0.1-0.2-0.2-0.3-0.4c0,0,0,0,0,0
		c0.6,0.4,2.4,0.7,2.3,0.6c-0.4-0.3-0.9-0.6-1.3-1C48.2,60.2,50.3,60.3,50.2,60.2z"/>
	<path class="st11" d="M100.8,65.8c-0.8-1.4-2.1-2.1-3.1-3.3c-1.2-1.4-1.4-2.9-1.5-4.5c0-2.8,1.1-5.6,2.1-8.3
		c0.1,0.4,0.1,0.9,0.3,1.3c0,0.1,1-2.2,1-2.3c0.4-1.1,0.4-2.3,0.1-3.5c0-0.1,0-0.1,0-0.2c0.2,0.3,0.8,0.8,0.8,0.7
		c0-1.1-0.1-2.3-0.6-3.3c0,0,0-0.1,0-0.1c0.3,0.3,0.6,0.5,0.9,0.8c0.1,0.1-0.6-3-1.7-3.9c0.5,0.1,1.5,0,1.5-0.1
		c-0.1-0.2-0.3-0.2-0.6-0.4c-0.4-0.3-0.8-0.5-1.1-0.8c-0.3-0.2-0.5-0.5-0.8-0.8c0,0,0,0,0,0c0-0.1,0-0.1,0-0.2
		c0.8,0.5,1.7,0.8,2.7,0.7c0.1,0-1.6-1.2-2.3-2c-0.1-0.2-0.3-0.3-0.4-0.5c0.3,0.2,0.7,0.3,1.1,0.3c0.1,0-0.9-3-1.9-4.1
		c0.1,0,0.9-0.3,0.6-0.4c-1-0.5-1.6-1.5-2.1-2.5c0.4,0.2,0.8,0.5,1.2,0.7c0,0,0,0,0-0.1c-0.8-1-1.8-1.8-3.2-2c1,0.9,1.7,2.2,2.1,3.5
		c0,0.1-0.1,0.2-0.2,0.1c-0.1-0.1-0.2-0.2-0.3-0.3c0.7,1,1.3,2.1,1.8,3.3c0,0.1-0.1,0.2-0.2,0.1c-0.5-0.5-1.1-0.9-1.7-1.4
		c0.7,1.2,1.5,2.3,2.1,3.5c0,0.1-0.1,0.2-0.2,0.1c-0.5-0.5-1-0.9-1.6-1.3c1.7,1.7,3.2,3.5,3.7,5.9c0,0.1-0.1,0.2-0.2,0.1
		c-0.1-0.2-0.3-0.5-0.5-0.7c0.7,1.3,1.1,2.7,1,4.2c0,0.1-0.1,0.2-0.2,0.1c-0.2-0.4-0.4-0.7-0.6-1.1c0.4,1.6,0.4,3.3-0.1,4.9
		c0,0-0.1,0.1-0.2,0.1c-0.2-0.8-0.4-1.6-0.7-2.3c0.1,1.4-0.2,2.9-0.6,4.2c0,0-0.1,0.1-0.2,0.1c-0.1-0.6-0.2-1.1-0.3-1.7
		c0.1,1.9-0.4,3.8-0.9,5.7c0,0.1-0.2,0.1-0.2,0c-0.1-0.8-0.1-1.6-0.1-2.4c-0.9,2.5-0.8,5.2,0,7.7c0,0.1-0.1,0.2-0.1,0.1
		c-0.2-0.2-0.4-0.3-0.6-0.5c0.3,1.1,0.7,2.1,1.4,3c0.5,0.7,1.1,1.4,1.8,2c0.6,0.5,1.1,1.1,1.3,1.8c0,0.1-0.1,0.2-0.2,0.1
		c-0.4-0.3-0.8-0.7-1.3-0.9c1.3,1.5,2.6,3.2,2.1,5.3c0,0-0.1,0.1-0.2,0.1c-0.1-0.4-0.2-1-0.4-1.5c0.4,2.4-0.4,5-1.2,7.3
		c-0.8,2.5-1.7,5.1-2.2,7.7c-0.3,1.4-0.4,2.8-0.5,4.3c-0.1,1.2-0.2,2.4-0.9,3.4c-0.5,0.8-1.3,1.4-2.3,1.5c-0.9,0.1-2-0.3-2.5-1.1
		c-0.8-1.3-0.1-2.9,0.7-4.1c-0.6,0.7-1,1.6-1.2,2.5c-0.2,0.8-0.4,2.5-1.5,2.6c-1.2,0.1-1.9-0.8-2.1-1.8c-0.1,0.7-0.1,1.8-0.8,2.1
		c-0.5,0.2-0.9,0.1-1.2-0.3c0.4,0.6,0.9,1.1,1.6,1.4c0.8,0.4,1.6,0.4,2.4,0.1c0.2,0.1,0.4,0.2,0.7,0.2c0.8,0,1.5-0.1,2.2-0.4
		c1.6,0.6,3.6,0.1,4.7-1.1c0.6-0.6,1-1.6,1-2.5c0-1.8-0.5-3.4-0.4-5.1c1-3.9,1.9-7.8,3.5-11.6c0.8-1.9,1.6-3.6,1.1-5.6
		c-0.1-0.4-0.3-0.6-0.5-0.9c0.2,0.3,0.5,0.6,0.8,0.7c0.1,0,0-1-0.2-1.1c0.1,0.1,0.2,0.2,0.5,0.4C101.4,67.7,101.2,66.4,100.8,65.8z"
		/>
	<path class="st11" d="M79.3,52.8c0.9-1.1,2-1.9,2.7-3.1c0,0,0.2-0.1,0.2,0c0,0.5-0.2,1-0.3,1.5c0.5-0.5,0.9-1,1.2-1.5
		c0-0.1,0.2-0.1,0.2,0c-0.1,0.3-0.1,0.5-0.1,0.8c1.1-1.1,1.9-2.3,1.9-3.9c0-0.1,0.1-0.2,0.2-0.1c0.3,0.5,0.3,1,0.5,1.6
		c0.2-1,0.2-2,0.1-3c0-0.1,0.1-0.2,0.2-0.1c0.4,0.5,0.7,1,1,1.6c0.1-1-0.2-2-0.9-2.7c-0.1-0.1,0.1-0.1,0.1-0.1
		c0.4,0.1,0.9,0.1,1.3,0.2c-0.4-0.4-1-0.5-1.5-0.8c-0.1,0,0-0.1,0.1-0.2c0.7,0,1.3-0.2,1.9-0.5c0,0,0,0,0,0
		c-1.5,0.1-2.9-1.1-3.8-2.4c0.4,1,0.7,2.1,0.7,3.3c0,0.1-0.1,0.2-0.2,0.1c-0.2-0.4-0.4-0.8-0.6-1.1c0.1,0.9,0.1,1.7,0.1,2.5
		c0,0.1-0.1,0.2-0.2,0.1c-0.2-0.7-0.4-1.4-0.7-2c0.1,1.3,0,2.5-0.7,3.6c0,0-0.1,0.1-0.1,0c-0.1-0.5-0.2-1-0.3-1.5
		c-0.3,1-0.7,1.9-1.5,2.6c0,0-0.1,0-0.1,0c0.3-0.8,0.4-1.6,0.5-2.4c-0.2,0.6-0.5,1.1-0.9,1.6c-0.6,0.9-1.3,1.7-2.2,2.3
		c-0.1,0-0.1,0-0.1-0.1c0.3-0.5,0.4-1.1,0.5-1.6c-0.7,1-1.5,1.8-2.3,2.5c0,0-0.1,0-0.1,0c-0.1-0.9-0.1-1.9-0.6-2.8
		c0.1,1-0.1,2-0.4,3c0,0-0.1,0.1-0.2,0.1c-0.2-0.6-0.5-1-0.9-1.4c0.3,0.8,0.5,1.6,0.3,2.5c0,0-0.1,0.1-0.2,0.1
		c-0.8-1.2-1.8-2-3.2-2.5c0.4,0.4,0.9,0.7,1.2,1.2c0,0.1-0.1,0.2-0.1,0.1c-0.8-0.1-1.5-0.3-2.3-0.5c0.3,0.3,0.5,0.7,0.7,1.1
		c0,0.1-0.1,0.2-0.1,0.1c-1-0.4-2-0.8-3-1.3c0.6,0.6,1.1,1.2,1.7,1.8c0.1,0.1-0.1,0.2-0.1,0.1c-1.5-0.6-3.1-1.2-4.3-2.3
		c0.2,0.9,0.6,1.8,1,2.6c0,0.1-0.1,0.2-0.2,0.1C64.2,51,63.5,50,62.9,49c0.1,0.8,0.3,1.5,0.3,2.3c0,0.1-0.1,0.2-0.2,0.1
		c-0.4-1.4-1.2-2.8-2.1-3.9c-0.2-0.3-0.5-0.5-0.7-0.7c0.2,0.3,0.3,0.6,0.4,1c0,0.1-0.1,0.2-0.1,0.1c-0.5-0.3-1-0.6-1.5-0.8
		c0.7,0.7,1.2,1.5,1.5,2.5c0,0.1-0.1,0.2-0.1,0.1c-0.6-0.3-1.2-0.6-1.9-0.8c1.2,1,2,2.3,2.4,3.8c0,0.1-0.1,0.2-0.2,0.1
		c-0.5-0.4-0.9-0.7-1.4-1c1.1,1,1.8,2.3,2.2,3.7c0.6,1.7,0.8,3.5,1.1,5.3c0,0.1-0.1,0.1-0.2,0.1c-0.3-0.4-0.7-0.8-1.1-1.2
		c1.2,2,1.2,4.7,0.9,7c-0.1,0.5-0.1,0.9-0.2,1.4c0,0.2,0,0.5,0,0.7c-0.1,1.5-0.5,2.9-0.9,4.4c-0.6,2.3-1,4.7-1.7,7
		c-0.6,2.1-1.3,4.3-1.3,6.6c0,1,0.1,2,0.5,3c0.2,0.5,0.6,1,1,1.4c-0.1-0.4-0.2-0.9-0.3-1.3c-0.1-0.3-0.2-0.7-0.3-1
		c-0.1-0.7-0.2-1.3-0.1-2c0.6-4,2.2-8.3,3.1-12.1c0.5-2,1.3-8.4,1.3-9.4c0-0.2,0-0.3,0-0.4c0.1,0.3,0.2,0.5,0.2,0.8
		c0.1,0.2,0.3,0.1,0.3-0.1c0.3-0.7,0.3-1.6,0.1-2.4c0,0.1,0.1,0.2,0.1,0.3c0.1,0.2,0.3-0.1,0.3-0.2c0-0.9-0.1-1.7-0.3-2.6
		c0.1,0,0.1,0.1,0.2,0.1c0.1,0.2,0.2-1.8-0.4-2.8c0.1,0,0.1-0.1,0.1-0.2c-0.1-0.8-0.3-1.7-1-2.2c0.5,0.3,1.8,0.7,1.7,0.6
		c-0.4-0.4-0.7-0.8-1-1.2c0.1,0,0.2,0.1,0.2,0.1c1.1,0.4,4,0.3,3.9,0.2c-0.1-0.2-0.2-0.3-0.3-0.4c0.8,0.3,2.5-0.1,2.5-0.2
		c0-0.2-0.1-0.3-0.2-0.4c0.8,0.2,4.1,1.4,4.1,1.3c0.1-0.5,0.2-0.8-0.2-1.2c-1-1.2,0.7,0.5,1,0.8c0.1,0.1,0.1-2,0.3-1.8
		c0.4,0.6,0.9,1.5,1,1.4c0.4-0.6,0.6-1.2,0.8-2c0.3-1.1,0,1,0,1c-0.1,0.2-0.1,0.4-0.1,0.6c0,0.1,0.9-0.4,1.3-0.6
		c0.5-0.4,1.2-0.7,1.8-1.1C79.3,52.6,79.3,52.7,79.3,52.8z"/>
	<path class="st11" d="M59.2,97.9C59.2,97.9,59.2,97.9,59.2,97.9c0-0.4,0.1-0.8,0.1-1.2c-0.2,0.6-0.5,1.1-1,1.4c0,0-0.1,0-0.1-0.1
		c0.7-2.1,0.7-4.7-0.8-6.5c-0.5-0.4-1.2-0.6-1.9-0.2c2.6,0.5,3.4,4.4,1.7,6.2c-1,1.1-2.8,1.3-3.9,0.3c-0.5-0.5-0.8-1.1-1-1.7
		c0,0.9-0.1,1.9-0.9,2.4c-0.5,0.3-1,0.3-1.5,0.2c0.2,0.3,0.5,0.5,0.9,0.6c1.1,0.5,2.4,0.7,3.5,0.3c0.4,0.1,0.9,0.1,1.3,0
		c0.6,0.3,1.6,0.4,2.2,0.3c2.3-0.3,3.1-1.5,3.8-3.2c0-0.1,0.1-0.2,0.1-0.3C61.1,97.2,60.2,98.3,59.2,97.9z"/>
	<g class="st3">
		<path class="st12" d="M38.6,91.2c-0.5,0.7-2.7-0.1-3.4-0.1c-0.7,0-1.2,0.2-1.7,0.6c-0.8-1.2-2.4-0.8-3.2,0.2
			c-0.9,1.3-0.6,4.6,1.2,5c0.1,0,0.1-0.1,0.1-0.1c-1.5-0.7-1.7-2.8-1.3-4.2c0.4-1.5,2-1.6,3.1-0.8c-0.1,0.1-0.1,0.1-0.2,0.2
			c-1.4,1.3-1,3.8,0.3,4.9c0,0,0.1,0,0.1-0.1c-0.9-0.9-1.2-2.3-0.9-3.6c0.1-0.6,0.4-1,0.8-1.2c0,0,0,0,0,0c0,0,0,0,0,0c0,0,0,0,0,0
			c0.6-0.4,1.5-0.6,2.3-0.4C36.6,91.6,38.2,91.9,38.6,91.2C38.6,91.2,38.6,91.2,38.6,91.2z"/>
	</g>
	<g class="st3">
		<path class="st12" d="M57.6,98.6c-1.2,0.7-3.2,1.6-4.2,0.1c-0.7-1.1-0.9-2.4-0.9-3.6c0,0,0,0,0,0c0,1.5,0,3.5,1.3,4.4
			c1,0.8,3.2,0,4-0.8C57.7,98.7,57.7,98.5,57.6,98.6z"/>
		<path class="st12" d="M60.3,91.7c-0.8-0.2-1.5,0.3-1.8,1c-0.4-0.9-1-1.5-2.1-1.8c-1-0.2-1.9,0.1-2.6,0.6c-0.2-0.8-2-0.2-2.4,0
			c-1.3,0.5-2.1,1.8-2.3,3.1c0,0.1,0.1,0,0.1,0c0.3-1,0.8-1.7,1.6-2.3c0.7-0.5,2-1.2,2.9-0.6c-0.7,0.6-1.1,1.4-1.2,2.3c0,0,0,0,0,0
			c0.4-2,2.8-3.6,4.7-2.3c1.4,0.9,1.4,2.8,1.3,4.3c0,0.1,0.1,0,0.2,0c0.2-1,0.2-2.2-0.2-3.2c0.5-0.7,1.4-1.1,2.1-0.6
			c0.4,0.3,0.7,0.9,0.8,1.4c0,0.1,0.1,0,0.1-0.1C61.5,92.7,61.1,91.9,60.3,91.7z"/>
	</g>
	<g class="st3">
		<path class="st12" d="M75,89.6c-1.5,1.2-4.7,1.5-5.2-0.9c-0.2-0.9,0.3-1.8,1-2.3c0.7-0.6,1.4-0.5,2.1-0.5c0,0,0,0,0,0c0,0,0,0,0,0
			c0.2,0,0.3,0,0.5-0.1c0,0,0,0,0,0c-0.3-0.1-0.7-0.3-1-0.3c-1.4-0.8-4.1-0.7-5,0.6c-1.1,1.4-1.6,4,0.4,5c0,0,0.1-0.1,0.1-0.1
			c-1.4-1.1-1.3-3.4-0.3-4.7c0.9-1.1,3.1-1.2,4.5-0.8c0,0,0,0,0,0c-0.6,0.1-1.1,0.4-1.6,0.7c-0.7,0.5-1.1,1.5-1,2.3
			C69.7,91.4,73.5,91.3,75,89.6C75.1,89.6,75.1,89.6,75,89.6z"/>
		<path class="st12" d="M67.9,84.9C67.9,84.9,67.9,84.8,67.9,84.9c-3.4-0.5-5.3,4.3-2.1,5.9c0.1,0,0.1-0.1,0.1-0.1
			c-1.1-0.6-1.6-1.8-1.4-3C64.7,85.9,66.2,85,67.9,84.9z"/>
	</g>
	<path class="st13" d="M92.1,87.6c-0.1-0.9-1.1-1.4-1.8-1.7c-0.9-0.4-2.1,0.3-2.7,0.9c-1.7,1.7-2.6,5.9-0.2,7.4
		c0.1,0,0.2-0.1,0.1-0.2c-1.9-1.4-1.4-4.2-0.4-6.1c1-1.9,3.9-2.4,4.9-0.3c-0.8,0.4-1.6,1.2-2,1.8c-1,1.6-0.7,4.8,1.5,5.2
		c0,0,0.1-0.1,0-0.1c-3-1.2-1.8-5.7,0.6-6.8c0,0,0,0,0,0c0.8-0.4,1.8-0.4,2.7,0.3c0,0,0,0,0,0C94,87.1,93,87.1,92.1,87.6z"/>
	<g>
		<path class="st14" d="M37.2,31.5c0.5-0.2,0.9-0.5,1.2-0.8c-0.4-0.1-0.8-0.5-1.1-0.8c-0.1-0.1,0.1-0.1,0.1-0.1c0.2,0,0.4,0,0.6,0.1
			c0-0.5-0.1-1.1-0.3-1.6c0-0.1,0.1-0.2,0.1-0.1c0.3,0.2,0.5,0.5,0.6,0.8c0.3-1.4,0.6-3-0.2-4.2c-0.6-0.2-1.3-0.4-2-0.5
			c-0.9-0.1-1.4,0.1-2.1,0.6c-1.4,1-2.8,1.9-4.1,3c-2.2,1.8-4.3,3.7-5.9,6c-0.6,0.9-0.6,1.6-0.3,2.3c-0.1-0.1-0.1-0.1-0.2-0.2
			c0,0,0,0,0,0c0.1,0.1,0.2,0.2,0.3,0.4c0,0.1,0.1,0.1,0.1,0.2c-0.1-0.1-0.2-0.3-0.4-0.4c0,0-0.1,0,0,0c0.3,0.4,0.6,0.9,0.9,1.4
			c1.8,0.4,3.6,0.8,5.1,1.9c0,0,0,0,0,0c0,0,0,0,0,0c0,0,0.1,0.1,0.1,0.1c0.1-0.6-0.1-1.3-0.4-1.8c0-0.1,0.1-0.1,0.1-0.1
			c1.3,0.3,2.2,1.2,2.9,2.3c0.3-1.1-0.5-2.5-1-3.4c0-0.1,0-0.1,0.1-0.1c1-0.1,2,0.4,2.8,1.1c-0.1-1.1-0.7-1.9-1.4-2.7
			c0,0,0-0.1,0.1-0.1c1.1-0.3,2.1-0.2,3,0.2c-0.3-0.6-0.7-1.1-1.3-1.4c-0.1,0,0-0.1,0-0.1c0.8-0.5,1.9-0.5,2.7-1
			c0.4-0.3,0.7-0.6,1.1-0.9c-0.4,0.1-0.9,0.1-1.3,0.1C37.1,31.7,37.2,31.6,37.2,31.5z"/>
		<g>
			<path class="st15" d="M24.3,35c-4.2-0.7-8.9,0.8-12.6,2.5c-2.1,1-4.3,1.9-6.4,2.9c-0.5,0.2-1.1,0.4-0.9,1.1c0,0,0,0,0,0
				c0,0.8,0.5,1.3,1.4,1.4c0.9,0.1,1.8-0.3,2.6-0.6c0.2-0.1,0,1,0,1.4c0,0.1,1.2-1.1,1.5-1.6c-0.2,0.3-0.3,0.9-0.3,1.3
				c0,0.2,1.2-1.1,1.8-1.6c0,0.3,0,0.7,0.1,1c0,0.1,0.4-0.4,0.5-0.6c0.2-0.4,0.6-0.8,0.9-1.1c0.3-0.3,0.6-0.6,0.9-0.8
				c0,0.1,0,0.3,0,0.5c0,0.1,0.8-0.8,1.1-1.2c0.1,0,1.4-1.6,2.4-2.1c1.3-0.7,2.8-0.9,4.3-1.2c0.7-0.1,2.4,0,2.6-1.1
				C24.4,35,24.4,35,24.3,35z"/>
			<g>
				<path class="st15" d="M37.5,24.2c-0.3-0.4-0.7-0.8-1.1-1.1c-0.1,0-0.2-0.1-0.3-0.2c0.8-1.2,1.3-2.9,1.5-4.2
					c0.5-2.4-0.2-4.6-0.8-6.9c-0.5-2.1-1.3-4.1-2.1-6.1c-0.4-1.2-0.8-2.4-1.1-3.7c-0.1-0.4-0.4-1-0.3-1.5c0-0.2,0.1-0.3,0-0.5
					c0-0.1-0.2,0-0.2,0c-0.8,0.7-1.4,1.7-2.1,2.6c-0.8,0.9-1.6,1.7-2.3,2.7c-1.3,1.6-2.7,3.4-3.6,5.3c-0.7,1.5-1,3-0.9,4.6
					c-1.1-0.4-2.6-0.3-3.7-0.3c-1.3,0.1-2.7,0.4-3.9,0.9c-0.2-0.7-0.5-1.4-0.7-1.9c-0.9-1.8-2.4-3.2-3.9-4.4c-1.5-1.2-3.2-2-5-2.8
					C6,6.2,5,5.9,4,5.5C3.6,5.3,3.2,5.2,2.8,5.1C2.5,5,2.3,4.7,1.9,4.7C1.7,4.7,1.6,4.8,1.6,5C1.8,6.1,2,7.1,2,8.2
					c0,1.1-0.1,2.1-0.1,3.2c0,2.1,0.2,4.3,0.8,6.3c0.6,1.8,1.7,3.2,3.3,4.2c0.7,0.4,1.5,0.7,2.4,0.9c-0.1,0.1-0.3,0.2-0.4,0.3
					c-0.7,0.5-1.3,1.2-1.9,1.9c-0.3,0.4-0.9,1-1,1.5c0,0.1,0,0.2,0,0.3c0.4,0.3,0.7,0.7,1,1.1c0.8,1.1-0.4,2.1-1.1,3
					c-0.6,0.7-1.2,1.4-1.8,2.2c-1.1,1.5-1.7,3.1-2.5,4.7c0,0,0,0,0,0c-0.1,0.1-0.1,0.2-0.1,0.3c-0.1,0.3-0.2,0.7,0.1,1.1
					c0.6,1.2,1.6,2.2,2.8,2.3c3.5,0.5,6.9-1.4,10-2.8c0.8-0.4,1.6-0.8,2.5-1c2.7-0.9,5.6-1.5,8.4-1.1c1.9,0.3,4,1,5.1,2.6
					c-0.1-0.7-0.5-1.5-1-2.1c0.5,0.1,1,0.3,1.4,0.5c0.8,0.2,1.5,0.8,2.1,1.4c0,0,0-0.1,0-0.1c-0.3-0.6-0.6-1.3-1.1-1.8
					c-0.3-0.3-0.5-0.6-0.8-0.9c-0.1-0.1-0.3-0.2-0.5-0.3c0.7,0,1.5,0.3,2.2,0.4c0.6,0.1,1,0.4,1.5,0.7c0.2,0.1,0.4,0.1,0.6,0.2
					c0,0,0-0.1,0-0.1c-0.4-1.1-1.2-2-2.2-2.6c0.7,0,1.4,0,2.1,0.1c0.6,0.1,1.2,0.2,1.8,0.3c-0.4-0.7-1.3-1.2-2-1.5
					c1-0.1,2-0.4,2.9-0.8c0.2-0.2,0.5-0.5,0.7-0.8c-0.9-0.1-1.7-0.2-2.4-0.7c1,0.1,1.9,0,2.9-0.1c0,0,0.1,0,0.1-0.1c0,0,0-0.1,0-0.1
					c-1-0.3-1.5-1.3-1.9-2.3c0.2,0.2,0.5,0.3,0.7,0.5c0.3,0.2,0.4,0.6,0.6,0.8c0.1,0.1,0.3-0.1,0.3-0.2c-0.2-1.1-0.4-2.2-1-3
					c0.2,0.1,0.5,0.2,0.7,0.3c0.5,0.4,0.9,0.9,1.2,1.5c0-0.1,0.1-0.2,0.1-0.3c-0.1-0.7-0.4-1.4-0.8-2c0.3,0.3,0.6,0.7,0.7,1.1
					c0,0.3,0.4,0,0.4-0.2C38.7,26,38.2,25.1,37.5,24.2z"/>
			</g>
			<g>
				<path class="st16" d="M7.7,39.1c1-0.4,2-1,3-1.6c1-0.6,2.1-1.1,3.1-1.7c1-0.6,2-1.2,3-1.8c0.9-0.5,1.8-1.2,2.8-1.6
					c0.1,0,0.1,0.1,0.1,0.1c-0.1,0.1-0.2,0.3-0.3,0.4c0.5-0.3,1.1-0.6,1.7-0.8c0.1,0,0.1,0,0.1,0.1c-0.2,0.2-0.4,0.4-0.5,0.7
					c0.6-0.3,1.1-0.7,1.7-0.9c0,0,0.1,0,0.1,0c0.2,0.3,0.4,0.6,0.7,0.8c0-0.2,0-0.4,0-0.7c0-0.1,0.1-0.1,0.1-0.1
					c1.8,0.9,3.8,1,5.8,1.3c-0.5-0.5-1.1-0.6-1.8-0.8c-0.1,0,0-0.2,0.1-0.2c1.4-0.1,2.8,0,4.2,0c-0.5-0.4-1.2-0.5-1.8-0.7
					c0,0,0,0,0,0c-0.1,0-0.1,0,0-0.1c0-0.1,0.1-0.1,0.1-0.1c0,0,0,0,0,0c0.9-0.2,1.7,0,2.6,0c-0.2-0.3-0.6-0.5-1-0.5
					c-0.1,0,0-0.2,0.1-0.2c0.7-0.1,1.4,0.1,2,0.6c0-0.5-0.3-1-0.6-1.4c0-0.1,0.1-0.2,0.1-0.1c0.5,0.3,1,0.6,1.6,0.7
					c-0.3-0.4-0.6-0.9-1.1-1.2c-0.1,0,0-0.1,0.1-0.1c0.8-0.2,1.4,0,2.1,0.2c-0.1-0.8-1-1.2-1.7-1.4c0,0,0,0,0-0.1c0,0,0-0.1,0.1-0.1
					c0.7-0.2,1.4-0.2,2.1,0c0-0.6-0.7-0.8-1.2-0.8c-0.1,0,0-0.1,0-0.2c0.4-0.1,0.7-0.2,1.1-0.2c-0.2-0.2-0.5-0.3-0.8-0.2
					c-0.1,0,0-0.1,0-0.1c0.9-0.5,2-0.3,2.7,0.5c0.3,0.4,0.5,0.8,0.6,1.3c0,0,0,0,0,0c-0.1-0.7-0.4-1.4-0.8-2
					c0.3,0.3,0.6,0.7,0.7,1.1c0,0.3,0.4,0,0.4-0.2c-0.1-1.1-0.6-2-1.3-2.9c-0.3-0.4-0.7-0.8-1.1-1.1c-0.1,0-0.2-0.1-0.3-0.2
					c0.8-1.2,1.3-2.9,1.5-4.2c0.5-2.4-0.2-4.6-0.8-6.9c-0.5-2.1-1.3-4.1-2.1-6.1c-0.4-1.2-0.8-2.4-1.1-3.7c-0.1-0.4-0.4-1-0.3-1.5
					c0-0.2,0.1-0.3,0-0.5c0-0.1-0.2,0-0.2,0c-0.8,0.7-1.4,1.7-2.1,2.6c-0.8,0.9-1.6,1.7-2.3,2.7c-1.3,1.6-2.7,3.4-3.6,5.3
					c-0.7,1.5-1,3-0.9,4.6c-1.1-0.4-2.6-0.3-3.7-0.3c-1.3,0.1-2.7,0.4-3.9,0.9c-0.2-0.7-0.5-1.4-0.7-1.9c-0.9-1.8-2.4-3.2-3.9-4.4
					c-1.5-1.2-3.2-2-5-2.8C6,6.2,5,5.9,4,5.5C3.6,5.3,3.2,5.2,2.8,5.1C2.5,5,2.3,4.7,1.9,4.7C1.7,4.7,1.6,4.8,1.6,5
					C1.8,6.1,2,7.1,2,8.2c0,1.1-0.1,2.1-0.1,3.2c0,2.1,0.2,4.3,0.8,6.3c0.6,1.8,1.7,3.2,3.3,4.2c0.7,0.4,1.5,0.7,2.4,0.9
					c-0.1,0.1-0.3,0.2-0.4,0.3c-0.7,0.5-1.3,1.2-1.9,1.9c-0.3,0.4-0.9,1-1,1.5c0,0.1,0,0.2,0,0.3c0.4,0.3,0.7,0.7,1,1.1
					c0.8,1.1-0.4,2.1-1.1,3c-0.6,0.7-1.2,1.4-1.8,2.2c-1.1,1.5-1.7,3.1-2.5,4.7c0,0,0,0,0,0c-0.1,0.1-0.1,0.2-0.1,0.3
					c-0.1,0.3-0.2,0.6,0,1.1c0.7,0.5,1.6,0.7,2.4,0.7C4.6,39.9,6.3,39.7,7.7,39.1z"/>
			</g>
			<path class="st11" d="M37.5,24.2c-0.3-0.4-0.7-0.8-1.1-1.1c-0.1,0-0.2-0.1-0.3-0.2c0.8-1.2,1.3-2.9,1.5-4.2
				c0.3-1.5,0.1-3-0.2-4.4c0,1.3-0.1,2.6-0.4,3.8c-0.4,1.7-1,4-2.6,5c0,0-0.1,0-0.1-0.1c0.3-0.7,0.6-1.3,0.8-2
				c-0.1,0.1-0.2,0.2-0.3,0.3c-0.5,0.7-1.3,1.3-2,1.7c-0.3,0.2-0.7,0.4-1,0.6c2.1-0.5,4.4-0.5,5.1,1.7c0,0.1-0.1,0.2-0.1,0.1
				c-0.9-0.7-2.4-0.6-3.5,0c1.2,0.1,2.3,0.8,2.8,1.9c0,0.1-0.1,0.1-0.1,0.1c-1-0.5-2.4-0.5-3.5-0.1c0.9,0.1,1.8,0.4,2.4,1.1
				c0,0.1-0.1,0.2-0.1,0.1c-0.7-0.1-1.5,0-2.1,0.3c0.4,0,0.7,0.1,1.1,0.2c0.5,0.2,1.2,0.3,1.4,0.9c0,0.1-0.1,0.1-0.1,0.1
				c-1.5-0.3-3,0.3-4.4,0.7c0.9,0.3,1.8,0.6,2.7,0.6c0.1,0,0,0.1,0,0.2c-0.9,0.3-1.8,0.6-2.7,0.8c0.3,0.1,0.6,0.3,0.8,0.6
				c0,0.1-0.1,0.1-0.1,0.1c-0.8-0.1-1.7-0.1-2.5,0.1c0.8,0.3,1.7,0.9,2,1.7c0,0.1-0.1,0.1-0.1,0.1c-0.6-0.2-1.2-0.4-1.9-0.4
				c-0.3,0-0.7,0-1,0c0.4,0.3,0.8,0.6,1,1.2c0,0.1-0.1,0.1-0.1,0.1c-0.6-0.3-1.3-0.6-2-0.7c-0.8-0.1-1.5-0.1-2.3-0.1
				c-0.1,0,0-0.1,0-0.2c0.8-0.2,1.5-0.7,2.2-1.1c0.3-0.2,0.6-0.5,0.9-0.8c-1.9,0.5-4.4,0.3-4.7-1.4c-0.1,0.1-0.2,0.2-0.2,0.3
				c-0.2,0.7-0.2,1.4,0.5,1.9c0.1,0,0,0.1,0,0.1c-0.4,0.2-0.7,0.4-1.1,0.4c-1.2,0.2-2.5-0.4-3.7,0.1c-1.6,0.6-2.9,1.6-4.3,2.6
				c-2.1,1.4-4.4,3.7-7.1,3.5c-0.1,0,0-0.1,0-0.1c0.5-0.4,1.2-1,1.4-1.7C8,38.1,7.6,37.5,7,37.1c-0.8-0.5-1.7-0.6-2.6-0.5
				C5,36.7,5.7,36.9,6,37.4c0.3,0.6-0.4,1.2-0.9,1.4c-1.3,0.5-3.3,0.5-4.5-0.3c0,0.2,0,0.4,0.2,0.7c0.6,1.2,1.6,2.2,2.8,2.3
				c0.3,0.1,0.7,0.1,1,0.1c0,0.8,0.6,1.2,1.4,1.3c0.9,0.1,1.8-0.3,2.6-0.6c0.2-0.1,0,1,0,1.4c0,0.1,1.2-1.1,1.5-1.6
				c-0.2,0.3-0.3,0.9-0.3,1.3c0,0.2,1.2-1.1,1.8-1.6c0,0.3,0,0.7,0.1,1c0,0.1,0.4-0.4,0.5-0.6c0.2-0.4,0.6-0.8,0.9-1.1
				c0.3-0.3,0.6-0.6,0.9-0.8c0,0.1,0,0.3,0,0.5c0,0.1,0.8-0.8,1.1-1.2c0.1,0,1.4-1.6,2.4-2.1c0.3-0.2,0.6-0.3,0.9-0.4
				c1.9-0.4,3.9-0.7,5.9-0.4c1.9,0.3,4,1,5.1,2.6c-0.1-0.7-0.5-1.5-1-2.1c0.5,0.1,1,0.3,1.4,0.5c0.8,0.2,1.5,0.8,2.1,1.4
				c0,0,0-0.1,0-0.1c-0.3-0.6-0.6-1.3-1.1-1.8c-0.3-0.3-0.5-0.6-0.8-0.9c-0.1-0.1-0.3-0.2-0.5-0.3c0.7,0,1.5,0.3,2.2,0.4
				c0.6,0.1,1,0.4,1.5,0.7c0.2,0.1,0.4,0.1,0.6,0.2c0,0,0-0.1,0-0.1c-0.4-1.1-1.2-2-2.2-2.6c0.7,0,1.4,0,2.1,0.1
				c0.6,0.1,1.2,0.2,1.8,0.3c-0.4-0.7-1.3-1.2-2-1.5c1-0.1,2-0.4,2.9-0.8c0.2-0.2,0.5-0.5,0.7-0.8c-0.9-0.1-1.7-0.2-2.4-0.7
				c1,0.1,1.9,0,2.9-0.1c0,0,0.1,0,0.1-0.1c0,0,0-0.1,0-0.1c-1-0.3-1.5-1.3-1.9-2.3c0.2,0.2,0.5,0.3,0.7,0.5
				c0.3,0.2,0.4,0.6,0.6,0.8c0.1,0.1,0.3-0.1,0.3-0.2c-0.2-1.1-0.4-2.2-1-3c0.2,0.1,0.5,0.2,0.7,0.3c0.5,0.4,0.9,0.9,1.2,1.5
				c0-0.1,0.1-0.2,0.1-0.3c-0.1-0.7-0.4-1.4-0.8-2c0.3,0.3,0.6,0.7,0.7,1.1c0,0.3,0.4,0,0.4-0.2C38.7,26,38.2,25.1,37.5,24.2z"/>
			<path class="st11" d="M11.3,24.3c-0.3-0.8-0.8-1.5-1.6-1.7c0.2,0.3,0.4,0.5,0.5,0.9c0,0.1-0.1,0.2-0.1,0.1
				c-0.2-0.2-0.4-0.3-0.7-0.4c0.2,0.1,0.3,0.3,0.4,0.5c0,0.1-0.1,0.1-0.1,0.1c-0.8-0.3-1.7-0.2-2.4,0.3c0.4-0.1,0.9-0.1,1.3,0.1
				c0.1,0,0,0.1-0.1,0.2c-0.6,0-1.2,0.3-1.7,0.6c0.4-0.1,0.7-0.2,1.1-0.3c0.1,0,0,0.1,0,0.1c-1,0.6-2,1.2-2.7,2.1
				c0.4,0.3,0.7,0.7,1,1.1c0.3,0.4,0.3,0.8,0.2,1.1c0,0,0,0,0,0c0-0.2,0.1-0.4,0.1-0.6c0-0.1,0.1-0.1,0.2-0.1
				c0.2,0.3,0.4,0.5,0.4,0.9c0.1-0.1,0.2-0.3,0.2-0.5c0-0.1,0.2-0.1,0.2,0c0,1.2-1.4,1.7-2.2,2.2c-0.2,0.1-0.4,0.3-0.6,0.4
				c-0.5,0.6-1,1.1-1.4,1.7c-1.1,1.5-1.7,3.1-2.5,4.7c0,0,0,0,0,0c-0.1,0.1-0.1,0.2-0.1,0.3c-0.1,0.3-0.2,0.6,0,0.9
				c0.7-2.6,2.7-5,5-6.5c1.1-0.7,2.2-1.3,3.2-2.2c1-0.8,1.8-1.8,2.2-3C11.5,26.4,11.7,25.3,11.3,24.3z"/>
			<path class="st11" d="M20.9,23.8c-0.1,0,0-0.1,0-0.1c0.3-0.3,0.7-0.5,1-0.6c-0.6,0-1.1,0.1-1.6,0.2c-0.1,0-0.1-0.1,0-0.1
				c1.5-1.1,3.1-1.7,4.9-1.5c-1.1-0.7-2.7-0.7-3.9-0.3c-0.1,0-0.1-0.1,0-0.1c0.2-0.1,0.3-0.3,0.5-0.4c-1.4,0.4-2.8,1-3.6,2.2
				c0,0-0.2,0.1-0.1,0c0.1-0.2,0.1-0.5,0.2-0.7c-0.3,0.2-0.4,0.4-0.6,0.7c0,0.1-0.2,0.1-0.2,0c0.1-0.8,0.6-1.5,1.1-2.2
				c-0.6,0.4-1.1,1-1.5,1.6c-0.5,0.9-0.8,1.9-0.9,2.9c0,0-0.1,0.1-0.1,0.1c-0.1,0.3-0.2,0.6-0.3,0.9c0.3-0.3,0.6-0.5,0.9-0.7
				c0.1,0,0.1,0,0.1,0.1c-0.3,0.5-0.6,0.9-0.7,1.5c0.5-0.4,0.9-0.8,1.5-1.2c0.1,0,0.1,0,0.1,0.1c-0.4,0.9-0.8,1.7-1.4,2.3
				c0.4-0.2,0.8-0.4,1.3-0.5c0.1,0,0.1,0,0,0.1c-0.2,0.3-0.3,0.6-0.5,1c1.3-0.3,2.4,0.1,3.7,0.3c1.3,0.1,2.6-0.2,3.9-0.6h-1.2
				c-0.1,0-0.1-0.1,0-0.1c0.9-0.4,1.9-0.9,2.8-1.3c0.1,0,0.1,0,0.1,0.1c-0.1,0.2-0.2,0.4-0.4,0.6c0.9-0.2,1.7-0.7,2.4-1.4
				c-1-0.1-1.9-0.6-2.7-1C24,24.6,22.5,24.1,20.9,23.8z"/>
			<g>
				<path class="st15" d="M32.6,0.6c0,0.2,0.1,0.4,0.1,0.6C32.9,0.8,33,0.4,33.2,0c-0.1-0.1-0.2,0-0.2,0C32.9,0.2,32.7,0.4,32.6,0.6
					C32.6,0.5,32.6,0.5,32.6,0.6z"/>
				<path class="st15" d="M11.8,11.9C11.9,11.9,11.9,11.9,11.8,11.9L11.8,11.9L11.8,11.9c0.3,0.1,0.6,0.2,0.9,0.4
					c-0.3-0.4-0.6-0.8-1-1.1c-1-0.8-2.2-1.4-3.4-1.9C7,8.6,5.7,7.9,4.5,7.1C3.9,6.7,3.3,6.3,2.8,5.9C2.5,5.6,2.2,5.3,1.9,5
					c1.6,3.3,0.6,7,1.7,10.5c0.8,2.8,2.7,5.2,5.3,6.2C8.4,21.1,7.7,20.5,7,20c-0.1,0,0-0.1,0.1-0.1c0.7-0.3,1.3,0,1.9,0.3
					c0,0,0,0,0,0c-0.4-1.1-0.6-2.1-0.4-3.3c0-0.1,0.1-0.1,0.2-0.1c0.2,0.9,0.7,2.1,1.7,2.5c-0.4-1-0.9-1.8-0.9-2.9
					c0-0.1,0.1-0.2,0.2-0.1c0.4,0.6,1.2,1.3,1.5,2c0-0.3,0-0.6-0.1-0.9c-0.2-1-0.8-1.8-1.2-2.8c0-0.1,0.1-0.1,0.1-0.1
					c1,0.4,1.8,1.3,2.3,2.2c-0.1-0.5-0.1-0.9,0-1.4c0-0.1,0.1-0.1,0.2-0.1c0.2,0.4,0.5,0.9,0.9,1.2c0.2,0.1,0.4,0.2,0.6,0.4
					c-0.1-0.8-0.3-1.5-0.9-2.1c-0.1-0.1,0.1-0.2,0.1-0.1c0.3,0.1,0.6,0.3,0.9,0.4c-0.5-1.3-1.2-2.4-2.3-3
					C11.7,12,11.8,11.8,11.8,11.9z"/>
				<path class="st15" d="M13.1,14.6c0.3,0.1,0.6,0.3,0.9,0.4c-0.5-1.3-1.2-2.4-2.3-3c-0.1,0,0-0.2,0.1-0.2c0,0,0,0,0,0l0,0l0,0
					c0.3,0.1,0.6,0.2,0.9,0.3c-0.3-0.4-0.6-0.8-1-1.1c-1-0.8-2.2-1.4-3.4-1.9c-1.1-0.5-2.1-1-3.1-1.6C6,8.4,6.8,9.1,7.7,9.8
					C7.7,9.9,7.6,10,7.5,10C7.3,9.8,7,9.7,6.7,9.6c0.8,0.6,1.5,1.2,1.8,2.2c0,0.1-0.1,0.2-0.2,0.1c-0.2-0.3-0.5-0.6-0.7-0.9
					c0.5,1,0.9,2.2,0.7,3.4c0,0.1-0.1,0.2-0.2,0.1c-0.3-0.7-0.5-1.4-0.7-2.1c-0.4,1.3-0.4,2.6,0,3.9c0,0.1-0.1,0.2-0.1,0.1
					c-0.6-0.4-1.1-1-1.8-1.5c0.4,0.8,0.8,1.6,1,2.5c0,0.1-0.1,0.2-0.2,0.1C6,17.1,5.6,16.5,5.2,16c0.2,0.7,0.4,1.4,0.7,2
					c0,0.1-0.1,0.2-0.2,0.1c-1-1-1.6-2.4-1.8-3.8c0,0.6,0.1,1.1,0.2,1.7c0,0.1-0.1,0.2-0.2,0.1c-0.1-0.1-0.2-0.3-0.2-0.4
					c0.9,2.7,2.7,5,5.3,6C8.4,21.1,7.7,20.5,7,20c-0.1,0,0-0.1,0.1-0.1c0.7-0.3,1.3,0,1.9,0.3c0,0,0,0,0,0c-0.4-1.1-0.6-2.1-0.4-3.3
					c0-0.1,0.1-0.1,0.2-0.1c0.2,0.9,0.7,2.1,1.7,2.5c-0.4-1-0.9-1.8-0.9-2.9c0-0.1,0.1-0.2,0.2-0.1c0.4,0.6,1.2,1.3,1.5,2
					c0-0.3,0-0.6-0.1-0.9c-0.2-1-0.8-1.8-1.2-2.8c0-0.1,0.1-0.1,0.1-0.1c1,0.4,1.8,1.3,2.3,2.2c-0.1-0.5-0.1-0.9,0-1.4
					c0-0.1,0.1-0.1,0.2-0.1c0.2,0.4,0.5,0.9,0.9,1.2c0.2,0.1,0.4,0.2,0.6,0.4c-0.1-0.8-0.3-1.5-0.9-2.1
					C12.9,14.7,13.1,14.6,13.1,14.6z"/>
				<path class="st15" d="M13.1,14.6c0.3,0.1,0.6,0.3,0.9,0.4c-0.5-1.3-1.2-2.4-2.3-3c-0.1,0,0-0.2,0.1-0.2c0,0,0,0,0,0l0,0l0,0
					c0.3,0.1,0.6,0.2,0.9,0.3c-0.3-0.4-0.6-0.8-1-1.1c-1-0.8-2.1-1.3-3.2-1.8c0.9,0.6,1.7,1.2,2.4,2c0.1,0.1-0.1,0.2-0.1,0.1
					c-0.5-0.2-0.9-0.2-1.4-0.2c1.1,0.6,2,1.2,2.7,2.3c0.1,0.1-0.1,0.2-0.1,0.1c-0.5-0.7-1.3-1.3-2.1-1.5c0.7,0.6,1.4,1.3,1.9,2.2
					c0,0.1-0.1,0.2-0.2,0.1c-0.3-0.4-0.7-0.7-1.2-1c0.2,0.3,0.4,0.7,0.6,1.1c0,0.1-0.1,0.2-0.1,0.1c-0.6-0.5-1.3-0.8-2-0.9
					c0.3,0.6,0.6,1.3,0.8,2c0,0.1-0.1,0.2-0.2,0.1c-0.2-0.3-0.4-0.5-0.6-0.7c0,0.4-0.1,0.7-0.1,1.1c0,0.1-0.1,0.1-0.2,0.1
					c-0.1-0.4-0.2-0.8-0.4-1.2c-0.1,1.1-0.1,2.2-0.2,3.3c0,0-0.1,0.2-0.2,0.1c-0.2-0.3-0.4-0.7-0.6-1.1c0.2,0.7,0.5,1.4,0.6,2.1
					c0,0.1-0.1,0.1-0.1,0.1c-0.8-0.2-1.5-0.5-2.1-1c0.2,0.3,0.4,0.6,0.5,1c0,0.1-0.1,0.2-0.1,0.1c-0.1,0-0.2-0.1-0.3-0.1
					c0.9,1,1.9,1.8,3.2,2.2C8.4,21.1,7.7,20.5,7,20c-0.1,0,0-0.1,0.1-0.1c0.7-0.3,1.3,0,1.9,0.3c0,0,0,0,0,0
					c-0.4-1.1-0.6-2.1-0.4-3.3c0-0.1,0.1-0.1,0.2-0.1c0.2,0.9,0.7,2.1,1.7,2.5c-0.4-1-0.9-1.8-0.9-2.9c0-0.1,0.1-0.2,0.2-0.1
					c0.4,0.6,1.2,1.3,1.5,2c0-0.3,0-0.6-0.1-0.9c-0.2-1-0.8-1.8-1.2-2.8c0-0.1,0.1-0.1,0.1-0.1c1,0.4,1.8,1.3,2.3,2.2
					c-0.1-0.5-0.1-0.9,0-1.4c0-0.1,0.1-0.1,0.2-0.1c0.2,0.4,0.5,0.9,0.9,1.2c0.2,0.1,0.4,0.2,0.6,0.4c-0.1-0.8-0.3-1.5-0.9-2.1
					C12.9,14.7,13.1,14.6,13.1,14.6z"/>
				<path class="st15" d="M6.7,8.4c-0.5-0.3-1-0.5-1.5-0.8c0,0,0.1,0.1,0.1,0.1C5.8,8,6.3,8.2,6.7,8.4z"/>
				<path class="st15" d="M34.8,8.4C34,6.2,33.1,4,32.6,1.7c-0.1,0.1-0.2,0.3-0.2,0.4c-0.5,0.7-1.1,1.3-1.7,2
					c-1.2,1.5-2.5,2.9-3.6,4.5c-1.2,1.6-1.9,3.4-1.8,5.5c0,0.3,0.1,0.6,0.1,0.9c0-0.8,0.2-1.5,0.6-2.2c0,0,0.2-0.1,0.2,0
					c-0.3,1.9,0.2,3.8,1.2,5.4c-0.2-1.1-0.1-2.2,0-3.2c0-0.1,0.2-0.2,0.2-0.1c0,1.3,0.5,2.5,1.3,3.6c-0.1-1.1-0.4-2.2-0.7-3.3
					c0-0.1,0.1-0.2,0.2-0.1c1.2,1.1,1.9,2.6,2.2,4.3c0.4-0.9,0.8-1.8,1.3-2.6c0-0.1,0.2-0.1,0.2,0c-0.3,0.9-0.6,1.8-0.6,2.8
					c0.6-0.7,1-1.5,1.6-2.3c0,0,0.1-0.1,0.1,0c0,1,0,2.1-0.3,3.1c0.7-0.6,1.2-1.6,1.5-2.3c0,0,0.2-0.1,0.2,0c0,1-0.3,1.9-0.6,2.8
					c0.6-0.4,1.1-1,1.4-1.7c0.6-1.3,0.9-2.9,0.3-4.3c0-0.1,0.1-0.2,0.1-0.1c0.2,0.2,0.4,0.4,0.6,0.6c0-1.1,0.1-2.3-0.2-3.4
					C35.8,10.8,35.3,9.6,34.8,8.4z"/>
				<path class="st15" d="M36.1,12.1c-0.3-1.3-0.9-2.5-1.3-3.8c-0.3-0.7-0.6-1.5-0.8-2.2c0.1,1.3,0.4,2.6,0.8,3.8
					c0,0.1-0.1,0.2-0.2,0.1c-0.4-0.6-0.8-1.2-1.1-1.8c0.3,1.1,0.7,2.2,1.1,3.3c0,0.1-0.1,0.2-0.2,0.1c-0.2-0.4-0.5-0.8-0.8-1.1
					c0.4,1.4,0.6,2.9-0.1,4.1c0,0-0.1,0.1-0.2,0c-0.1-0.7,0-1.5-0.1-2.2c-0.3,0.9-0.6,1.8-0.8,2.7c0,0.1-0.1,0.1-0.2,0.1
					c-0.3-1.1-0.4-2.2-0.1-3.3c-0.5,0.9-0.7,1.9-0.9,2.8c0,0.1-0.2,0.1-0.2,0c-0.1-0.9-0.4-1.6-0.8-2.4c0,1.1,0,2.3-0.1,3.4
					c0,0.1-0.1,0.2-0.2,0.1c-0.5-1.1-1.2-2.2-1.4-3.5c-0.1,0.5-0.1,1-0.2,1.4c0,0.1-0.1,0.2-0.2,0.1c-0.3-0.9-0.4-1.9-0.1-2.9
					c-0.4,0.5-0.7,1.2-0.8,1.9c0,0.1-0.1,0.2-0.2,0.1c-0.3-1.3,0.1-2.5,0.6-3.8c-0.7,0.7-1.1,1.6-1.3,2.6c0,0.1-0.2,0.1-0.2,0
					c-0.1-0.9,0.1-1.8,0.4-2.6c-0.9,1.5-1.5,3-1.3,4.8c0,0.3,0.1,0.6,0.1,0.9c0-0.8,0.2-1.5,0.6-2.2c0,0,0.2-0.1,0.2,0
					c-0.3,1.9,0.2,3.8,1.2,5.4c-0.2-1.1-0.1-2.2,0-3.2c0-0.1,0.2-0.2,0.2-0.1c0,1.3,0.5,2.5,1.3,3.6c-0.1-1.1-0.4-2.2-0.7-3.3
					c0-0.1,0.1-0.2,0.2-0.1c1.2,1.1,1.9,2.6,2.2,4.3c0.4-0.9,0.8-1.8,1.3-2.6c0-0.1,0.2-0.1,0.2,0c-0.3,0.9-0.6,1.8-0.6,2.8
					c0.6-0.7,1-1.5,1.6-2.3c0,0,0.1-0.1,0.1,0c0,1,0,2.1-0.3,3.1c0.7-0.6,1.2-1.6,1.5-2.3c0,0,0.2-0.1,0.2,0c0,1-0.3,1.9-0.6,2.8
					c0.6-0.4,1.1-1,1.4-1.7c0.6-1.3,0.9-2.9,0.3-4.3c0-0.1,0.1-0.2,0.1-0.1c0.2,0.2,0.4,0.4,0.6,0.6C36.4,14.4,36.4,13.2,36.1,12.1z
					"/>
				<path class="st15" d="M36.1,12.1c-0.2-0.8-0.5-1.5-0.8-2.3c0.3,1.3,0.5,2.5,0.3,3.9c0,0.1-0.1,0.1-0.2,0.1
					c0-0.2-0.1-0.3-0.1-0.5c0.1,1.1,0,2.3-0.2,3.3c0,0-0.2,0.1-0.2,0.1c-0.1-0.5-0.3-1.1-0.4-1.6c-0.2,1-0.5,1.9-0.9,2.8
					c0,0-0.2,0.1-0.2,0c0.1-0.8,0-1.5,0-2.3c-0.3,0.5-0.7,1-1.1,1.4c0,0-0.2,0.1-0.1,0c0.1-0.5,0.3-0.9,0.4-1.4
					c-0.3,0.3-0.6,0.6-1,0.8c0,0-0.1,0-0.1-0.1c0.1-0.4,0.1-0.9,0.1-1.3c-0.2,0.8-0.5,1.5-1,2.2c0,0.1-0.2,0.1-0.1,0
					c0.1-0.6,0.1-1.3,0-1.9c-0.1,0.7-0.2,1.4-0.2,2.1c0,0.1-0.1,0.2-0.2,0.1c-0.3-1.3-1.5-2.2-2-3.3c-0.1,0.2-0.2,0.5-0.3,0.7
					c0,0-0.1,0.1-0.2,0.1c-0.1-0.4-0.1-0.8-0.1-1.2c-0.2,0.6-0.4,1.1-0.6,1.8c0,0-0.1,0.1-0.2,0.1c-0.2-1.3-0.3-2.7,0-4
					c-0.4,0.5-0.8,1-1.1,1.5c0,0-0.1,0.1-0.2,0c-0.1-0.4-0.1-0.8-0.1-1.1c-0.2,0.7-0.2,1.5-0.2,2.2c0,0.3,0.1,0.6,0.1,0.9
					c0-0.8,0.2-1.5,0.6-2.2c0,0,0.2-0.1,0.2,0c-0.3,1.9,0.2,3.8,1.2,5.4c-0.2-1.1-0.1-2.2,0-3.2c0-0.1,0.2-0.2,0.2-0.1
					c0,1.3,0.5,2.5,1.3,3.6c-0.1-1.1-0.4-2.2-0.7-3.3c0-0.1,0.1-0.2,0.2-0.1c1.2,1.1,1.9,2.6,2.2,4.3c0.4-0.9,0.8-1.8,1.3-2.6
					c0-0.1,0.2-0.1,0.2,0c-0.3,0.9-0.6,1.8-0.6,2.8c0.6-0.7,1-1.5,1.6-2.3c0,0,0.1-0.1,0.1,0c0,1,0,2.1-0.3,3.1
					c0.7-0.6,1.2-1.6,1.5-2.3c0,0,0.2-0.1,0.2,0c0,1-0.3,1.9-0.6,2.8c0.6-0.4,1.1-1,1.4-1.7c0.6-1.3,0.9-2.9,0.3-4.3
					c0-0.1,0.1-0.2,0.1-0.1c0.2,0.2,0.4,0.4,0.6,0.6C36.4,14.4,36.4,13.2,36.1,12.1z"/>
			</g>
			<path class="st17" d="M11,24.4C11,24.4,11,24.4,11,24.4c1.5,3.9-3.9,6.2-6.2,8.3C3.5,34,1.6,35.7,1,37.5c0,0.1,0.1,0.1,0.1,0
				c1.6-3.4,5.4-5.4,8.1-7.7C10.8,28.5,12.5,26.4,11,24.4z"/>
			<path class="st17" d="M19.5,22.2c-0.7,0.4-1.2,0.9-1.7,1.5c-0.1,0.1-0.1,0.2-0.2,0.3c0.1-0.3,0.1-0.5,0.3-0.7
				c0.1-0.2-0.1-0.4-0.3-0.2c-0.3,0.3-0.6,0.7-0.8,1c0.1-0.6,0.3-1.1,0.5-1.7c0,0,0,0,0,0c-0.4,0.7-0.6,1.3-0.8,2
				c0,0.4,0,0.8,0.1,1.2c0.1,0,0.1-0.1,0.1-0.1c0.1-0.5,0.3-0.9,0.6-1.3c0,0.2-0.1,0.5-0.1,0.7c0,0.1,0.1,0.1,0.2,0.1
				c0.1-0.1,0.2-0.3,0.2-0.4c0.4-0.9,1-1.5,1.7-1.9c0.1,0,0.1-0.1,0.2-0.1c1.2-0.9,2.9-1,4.3-0.7C22.4,21.3,20.8,21.5,19.5,22.2z"/>
			<path class="st17" d="M10.2,22.9c0.1,0.2,0.2,0.5,0.3,0.7c-0.2-0.1-0.8-0.3-0.7-0.2c0.1,0.2,0.2,0.5,0.3,0.8
				C10.1,24.1,10,24,10,24c-0.2-0.2-0.5-0.4-0.7-0.4c-0.4-0.1-0.8-0.1-1.2,0c0.5,0,0.9,0.2,1.3,0.4c0,0,0,0,0,0
				c0.2,0,0.3,0.1,0.4,0.2c0.3,0.2,0.5,0.4,0.7,0.7c0.1,0,0.1-0.1,0.1-0.2c0-0.2-0.1-0.5-0.2-0.7c0.1,0.1,0.3,0.3,0.4,0.4
				c0.1,0.1,0.3-0.1,0.3-0.2C10.8,23.6,10.6,23.2,10.2,22.9z"/>
			<path class="st18" d="M36,10.6c-0.5-1.7-1.3-3.3-2-5c-0.2-0.3-0.3-0.5-0.5-0.8c0.8,2.9,2.3,5.4,2.7,8.4c0.1,0.7,0.1,1.4,0.1,2.1
				c-0.1-0.3-0.3-0.6-0.6-0.8c0,0,0,0,0,0c-0.1,0-0.2-0.1-0.3-0.1c0.7,2.2,0.2,4.4-1.2,6.2c-0.6,0.7,0.1-0.7,0.1-0.8
				c0.1-0.6,0.2-1.1,0.3-1.7c0-0.2-0.1-0.4-0.1-0.5c0,0,0,0,0,0c-0.4,0.7-0.7,1.3-1.2,2c-0.2,0.2-0.4,0.5-0.7,0.7
				c0-0.1,0-0.1,0.1-0.2c0.3-1,0.4-1.9,0.3-2.9c0-0.1-0.1-0.2-0.1-0.4c0,0.1-0.1,0.1-0.1,0.2c-0.3,0.6-0.7,1.2-1.1,1.8
				c0.1-0.7,0.2-1.5,0.5-2.2c0.1-0.2-0.1-0.3-0.2-0.1c-0.5,0.4-0.8,1.1-1.1,1.7c-0.2,0.3-0.3,0.7-0.4,1c-0.2-0.7-0.4-1.3-0.7-1.9
				c-0.4-0.8-0.8-1.8-1.5-2.4c-0.1,0-0.2,0-0.1,0.1c0.2,1,0.5,2.6,1,3.3c-0.8-1.1-1.2-2.3-1.3-3.7c0-0.1-0.1,0-0.1,0
				c-0.2,0.5-0.2,1.1-0.2,1.6c0,0.6,0,1.1,0.1,1.7c-1-1.7-1.4-3.4-1-5.4c0-0.1-0.1,0-0.1,0c-0.4,0.6-0.6,1.2-0.8,1.9c0,0,0,0,0-0.1
				c-0.2-1.3,0.1-2.5,0.5-3.7c1.3-3.3,4.7-5.5,6.4-8.6c0,0,0,0,0,0c-2.8,4.2-8.3,7.4-7.1,13c0.1,0.2,0.2,0.4,0.4,0.6
				c0.1,0,0.1-0.1,0.1-0.2c-0.2-0.9,0.2-1.6,0.4-2.4c-0.1,0.4-0.2,1-0.1,1.5c0.2,1.5,0.6,2.8,1.4,3.9c0,0.1,0.1,0.2,0.2,0.3
				c0.1,0.1,0.2,0,0.2-0.1c-0.1-0.7-0.2-1.3-0.3-2c0-0.4,0-0.9,0-1.3c0.2,1.3,0.6,2.4,1.4,3.3c0.1,0.1,0.2-0.1,0.2-0.1
				c0-0.5-0.3-1-0.4-1.5c-0.1-0.4-0.2-0.7-0.3-1.1c-0.1-0.6-0.5-1.1,0-0.4c0.8,1.2,1.4,2.4,1.8,3.7c0,0,0,0,0,0
				c0.1,0.2,0.2,0.4,0.2,0.5c0,0,0-0.1,0.1-0.1c0,0,0,0,0,0c0.1-0.4,0.3-0.8,0.5-1.2c0.1-0.3,0.3-0.7,0.5-1c-0.2,0.7-0.3,1.3-0.3,2
				c0,0.2,0.2,0.1,0.3,0c0.4-0.7,0.9-1.4,1.3-2.1c0,1.2-0.1,2.3-0.7,3.4C32,21,32.2,21.1,32.3,21c0.8-0.8,1.5-1.5,2-2.4
				c0,0.2,0,0.5-0.1,0.7c-0.1,0.8-0.5,1.4-0.8,2.1c0,0.1,0,0.1,0.1,0.1c2.1-1.1,2.8-4,2.3-6.3c0.2,0.3,0.3,0.7,0.4,1
				c0.1,0.1,0.3-1.5,0.2-2.2C36.5,12.8,36.3,11.7,36,10.6z"/>
			<g>
				<path class="st18" d="M12,12.3C12,12.2,12,12.2,12,12.3c0.2,0.1,0.5,0.2,0.8,0.2c0,0,0,0,0.1,0c-0.1-0.2-0.2-0.5-0.3-0.7
					C9.8,8.8,5.6,8.2,2.5,5.7c0,0,0,0,0,0c1.8,1.7,3.8,2.7,6.1,3.6c1.3,0.5,2.6,1.3,3.5,2.3c0.2,0.2,0.3,0.3,0.3,0.4
					c-0.5-0.3-1.2-0.5-1.8-0.5c0.4,0.2,0.7,0.3,1,0.6c0,0,0,0,0,0c0.2,0.1,0.4,0.3,0.7,0.5c0.1,0.1,0.1,0.1,0.2,0.2c0,0,0,0,0,0.1
					c0.5,0.5,0.9,1.1,1.1,1.5c0.7,1.1-0.2,0.3-0.9,0c-0.1,0-0.2,0.1-0.1,0.2c0.7,0.6,1,1.3,1.2,2.1c-0.6-0.6-1.3-1.1-1.5-2
					c0-0.2-0.2,0-0.2,0.1c0.1,0.6,0.1,1.2,0.2,1.8c-0.3-0.5-0.6-1-1.1-1.4c-0.4-0.4-2-0.9-1.9-0.8c0.3,0.2,0.8,1.1,0.9,1.5
					c0.4,0.7,0.9,1.7,0.8,2.5c-0.2-0.6-0.5-1-0.9-1.5C10,16.6,9.6,16,9.3,16.1c-0.1,0-0.1,0.1-0.1,0.2c0.3,1,0.6,2,1,2.9
					c0.1,0.4,0,0-0.2-0.1c-0.3-0.3-0.5-0.7-0.7-1C9,17.5,8.9,17,8.7,16.4c0,0,0-0.1-0.1-0.1c-0.2,0.1-0.3,0.3-0.4,0.5
					c-0.1,0.6,0,1.2,0.1,1.7c0.1,0.4,0.2,0.9,0.4,1.3c-0.7-0.3-1.5-0.4-2.2,0c0,0,0.7,0.5,1,0.7c0.2,0.1,1.2,0.8,0.9,0.7
					c-1.7-0.6-3.1-2.1-4-3.6c-1.8-3.2-1.1-7.3-1.8-10.8c0,0-0.1,0-0.1,0c0.6,5.3-0.5,12.8,6.1,14.7c0.1,0,0.2-0.1,0.1-0.2
					c-0.4-0.4-1-0.9-1.5-1.2c-1.5-0.7,1.3-0.2,1.9,0.1c0,0,0,0,0,0c0,0,0,0,0,0c0.1,0-0.4-1.3-0.5-1.7c-0.1-0.4-0.3-1.1-0.2-1.7
					c0.2,0.4,0.3,0.8,0.6,1.2c0.3,0.5,0.7,0.9,1.2,1.3c0,0,0.1,0,0.1-0.1c0-0.4-0.3-0.9-0.4-1.2c-0.2-0.7-0.3-1.3-0.6-1.9
					c-0.1-0.2,0,0.1,0.1,0.2c0.2,0.2,0.3,0.4,0.5,0.6c0.3,0.4,0.6,0.9,0.9,1.4c0,0,0,0,0,0c0,0,0,0,0,0c0,0,0.1,0,0.1,0
					c0,0,0,0,0-0.1c0.3-1.1-0.4-2.4-0.9-3.3C10,15,9.8,14.7,9.6,14.6c0.3,0.2,0.7,0.4,1.1,0.6c0.8,0.6,1.9,2.2,1.9,2.2
					c-0.2-0.6-0.2-1.2-0.3-1.9c0.3,0.6,0.8,1.2,1.4,1.4c0.1,0,0.2,0,0.3,0.1c0-0.6,0-1.1-0.3-1.6c-0.1-0.2-0.5-0.6-0.7-0.7
					c0.3,0.3,0.8,0.5,1.1,0.7c0.1,0,0.2,0,0.2-0.1C13.9,14,12.9,12.9,12,12.3z"/>
			</g>
			<path class="st17" d="M25.4,33.7c-1.1,0.2-2.4-0.2-2.9-1.3c0,0,0,0,0,0c0,0.6,0.2,1.2,0.7,1.5c-0.3,1-4,1-4.7,1.2
				c-1.4,0.3-2.8,1.4-4,2.2c-2.7,1.8-9,6.7-11.5,2.4c0,0-0.1,0,0,0c1.7,4.1,7.4,0.6,9.8-0.9c2.9-1.8,5.1-3.8,8.7-3.8c0.9,0,2,0,2-1
				c0.7,0.3,1.4,0.2,2-0.2C25.5,33.9,25.5,33.7,25.4,33.7z"/>
			<path class="st19" d="M25.4,26.2c-0.9-0.6-1.9-1.1-3-1.4c-0.5-0.1-1.1-0.3-1.7-0.3c-0.8,0-1.9,0.1-2.4,0.8
				c-0.3,0.5,0.1,1.9-0.7,2c0,0,0,0,0,0c0.2,0.1,0.4,0.1,0.5,0.2c0,0,0.1,0,0.1,0c0,0.2,0.2,0.3,0.4,0.5c0.4,0.3,1.5,0.6,2.1,0.5
				c1.6-0.1,3.3-0.9,4.5-2c0.3,0.1,0.6,0.2,0.9,0.1C25.8,26.5,25.6,26.4,25.4,26.2z"/>
			<path class="st20" d="M22,28c-0.8,0.2-1.5,0.1-2.3,0c-0.8-0.2-1-0.5-1.3-1.1c0-0.3,0.1-0.7,0.2-1c0,0,0,0,0,0
				c0.2-0.3,0.4-0.5,0.9-0.7c0.3-0.1,0.6-0.1,0.9-0.2c0.7,0,1.3,0.1,2,0.2c0.9,0.3,1.7,0.8,2.5,1.3C24,27.1,23,27.7,22,28z"/>
			<path class="st19" d="M5.4,26.8c0.2,0,0.4,0,0.6-0.1c0.7,1,1.8,1.7,2.8,1.9c0.3,0,1-0.2,1.3-0.5c0.2-0.2,0.2-0.3,0.3-0.5
				c0,0,0.1,0,0.1,0c0.1,0,0.2-0.1,0.3-0.1c0,0,0,0,0,0c-0.3-0.3-0.3-1.3-0.5-1.8c-0.3-0.7-1-0.7-1.5-0.7c-0.4,0-0.7,0.1-1.1,0.3
				c-0.7,0.3-1.3,0.7-1.9,1.3C5.7,26.6,5.5,26.7,5.4,26.8z"/>
			<path class="st20" d="M6.1,26.7c0.5-0.4,1-0.9,1.6-1.1c0.4-0.1,0.8-0.2,1.3-0.2c0.2,0,0.4,0.1,0.6,0.1c0.3,0.1,0.5,0.3,0.6,0.6
				c0,0,0,0,0,0c0.1,0.3,0.1,0.6,0.2,0.9c-0.2,0.5-0.3,0.8-0.8,0.9c-0.5,0.2-0.9,0.2-1.4,0C7.3,27.7,6.7,27.3,6.1,26.7z"/>
			<g>
				<ellipse class="st21" cx="21" cy="26.7" rx="1.3" ry="1.5"/>
				<ellipse cx="20.9" cy="26.7" rx="0.8" ry="1"/>
				<ellipse class="st22" cx="20.6" cy="26.3" rx="0.5" ry="0.6"/>
			</g>
			<g>
				<ellipse class="st21" cx="8.6" cy="26.8" rx="1.2" ry="1.4"/>
				<ellipse cx="8.5" cy="26.8" rx="0.7" ry="0.9"/>
				<ellipse class="st22" cx="8.2" cy="26.4" rx="0.4" ry="0.5"/>
			</g>
			<g>
				<path class="st21" d="M3.3,40.9c2.1,0,3.7-0.9,4.2-3c-0.9-0.7-1.9-1.3-3.1-1.4C3.1,36.4,0.7,36.7,0,38
					C-0.1,38.2,0.6,40.4,3.3,40.9z"/>
				<path class="st21" d="M3.5,39.2c-1.2,0.1-2.5,0-3.4-0.7c0.3,0.7,1.2,2.1,3.2,2.5c2.1,0,3.7-0.9,4.2-3c0,0,0,0-0.1,0
					C6.2,38.6,4.8,39,3.5,39.2z"/>
				<path class="st23" d="M0.2,38.2c0,0,3.1-1.5,5.9-0.8c0,0-1.7-0.7-3.7-0.5C0.5,37.2,0.2,38.2,0.2,38.2z"/>
			</g>
			<path class="st11" d="M8.6,8.3c2.1,1.1,4.2,2.5,5.5,4.5c0,0.1-0.1,0.2-0.1,0.1c-0.2-0.1-0.4-0.1-0.7-0.2c1,0.6,1.6,1.9,2,3
				c0,0.1-0.1,0.2-0.2,0.1c-0.2-0.2-0.3-0.4-0.6-0.5c0.3,0.6,0.4,1.4,0.4,2.1c0,0.1-0.1,0.2-0.2,0.1c-0.1-0.2-0.3-0.5-0.4-0.7
				c0.1,0.6,0.1,1.1-0.2,1.6c0,0-0.1,0.1-0.1,0.1c-0.4-0.4-0.7-0.8-1.2-1c0.4,0.8,0.5,1.7,0.2,2.5c0.5-0.5,1-0.9,1.5-1.3
				c0.1-0.1,0.1,0,0.1,0.1c-0.4,0.5-0.6,1.1-0.7,1.8c1.1-1.8,3.3-3.1,5.3-3.3c0.1,0,0.1,0.1,0,0.1c-0.6,0.4-1.1,0.9-1.6,1.5
				c0.8-0.4,1.5-0.8,2.3-1.3c0,0,0.1,0,0.1,0.1c-0.1,0.4-0.4,0.8-0.6,1.2c0.7-0.3,1.3-0.9,1.6-1.5c0,0,0.1-0.1,0.2,0
				c0.2,0.7,0.7,1.4,1.3,1.8c0-0.5-0.1-0.9-0.1-1.4c0-0.1,0.1-0.2,0.2-0.1c0.6,0.9,1.4,1.6,2.2,2.4c-0.1-0.6-0.3-1.2-0.5-1.8
				c0-0.1-0.1-0.1-0.1-0.1c-0.1-0.1,0.1-0.2,0.1-0.1c0.6,0.2,1.1,0.6,1.5,1c-0.2-0.8-0.6-1.4-1-2.1c0-0.1,0.1-0.2,0.1-0.1
				c0.6,0.3,1,0.8,1.5,1.2c-0.9-1.5-1.6-3.2-1.4-5c0.2-1.8,1-3.5,2.1-5c1.8-2.5,4.5-4.6,5.6-7.5c-0.6,0.7-1.2,1.5-1.8,2.2
				c-0.8,0.9-1.6,1.7-2.3,2.7c-1.3,1.6-2.7,3.4-3.6,5.3c-0.7,1.5-1,3-0.9,4.6c-1.1-0.4-2.6-0.3-3.7-0.3c-1.3,0.1-2.7,0.4-3.9,0.9
				c-0.2-0.7-0.5-1.4-0.7-1.9c-0.9-1.8-2.4-3.2-3.9-4.4c-1.5-1.2-3.2-2-5-2.8C6,6.2,5,5.9,4,5.5C3.6,5.3,3.2,5.2,2.8,5.1
				c0,0,0,0,0,0c0.7,0.5,1.5,1,2.3,1.5C6.2,7.2,7.4,7.7,8.6,8.3z"/>
			<path class="st11" d="M9.1,22c-1.2-0.8-2.7-1.1-3.8-2.1c-1.1-1-2-2.3-2.5-3.7c-0.3-0.8-0.6-1.6-0.7-2.4c0.1,1.3,0.3,2.6,0.7,3.9
				c0.6,1.8,1.7,3.2,3.3,4.2c0.7,0.4,1.4,0.7,2.2,0.9c0.7-0.3,1.6-0.2,2.2,0.3c-0.2-0.4-0.6-0.8-0.9-1.2c0-0.1,0.1-0.2,0.1-0.1
				c0.3,0.1,0.5,0.3,0.7,0.5c-0.4-0.8-1.1-1.3-1.9-1.7c0.3,0.5,0.6,0.9,0.8,1.4C9.3,21.9,9.1,22,9.1,22z"/>
			<path class="st20" d="M24.4,26.2c-0.6-0.4-1.3-0.7-2-0.9c-0.7-0.1-1.3-0.2-2-0.2c-0.3,0-0.6,0.1-0.9,0.2
				c-0.5,0.1-0.7,0.4-0.9,0.7c0,0,0,0,0,0c-0.1,0.2-0.2,0.4-0.2,0.6C19.7,24.9,22.3,25.4,24.4,26.2z"/>
			<path class="st20" d="M8.5,25.9c0.8,0.1,1.4,0.5,1.8,1.1c0,0,0,0,0,0c0-0.3-0.1-0.6-0.1-0.9c0,0,0,0,0,0
				c-0.1-0.3-0.3-0.5-0.6-0.6c-0.2-0.1-0.4-0.1-0.6-0.1c-0.4,0-0.8,0-1.3,0.2c-0.3,0.1-0.6,0.3-0.9,0.6C7.3,25.9,7.9,25.8,8.5,25.9z
				"/>
		</g>
		<path class="st24" d="M4.4,18.5c-0.6-1-1.2-2-1.5-3.2c-0.3-1.3-0.3-2.6-0.3-3.9c0-1.7,0.2-4-0.6-5.5c0,0,0,0,0,0
			c0.4,1,0.2,2.3,0.2,3.4c0,1.1,0,2.2,0,3.3c0,2.2,0.7,4.2,2.1,6C4.4,18.6,4.5,18.5,4.4,18.5z"/>
		<path class="st25" d="M18.3,30.1c-0.2,0.1-0.4,0.1-0.6,0.2c0.3-0.2,0.6-0.4,0.9-0.6c0.1,0,0.1-0.2,0-0.2c-0.6-0.1-1.2,0.1-1.8,0.3
			c-0.5,0.1-1.1,0.3-1.6,0.5c0.5-0.4,0.9-0.8,1.2-1.2c0-0.1,0-0.2-0.1-0.2c-0.3,0-0.3,0.1-0.6,0.2c-0.5,0.2-1,0.5-1.5,0.7
			c0.3-0.4,0.6-0.8,1-1.2c0.3-0.4,0.5-0.9,0.7-1.4c-0.3,0.1-0.5,0.2-0.8,0.3c-0.1,0-0.1,0.1-0.2,0.1c-0.6,0.3-1.1,0.6-1.7,1
			c1-1.5,1.7-3.1,2-4.9c0,0.2,0.1,0.4,0.1,0.6c0.2-1,0.5-2.1,1.1-3c0.4-0.6,0.9-1.2,1.4-1.7c-0.3,0-0.6,0.2-0.8,0.3
			c-0.6,0.3-1.1,0.8-1.5,1.3c0.1-0.5,0.4-1,0.7-1.4c0.3-0.4,0.8-0.7,1-1.1c0,0,0-0.1,0-0.1c-0.5,0.1-0.9,0.4-1.3,0.6
			c0,0-0.1,0.1-0.1,0.1c-0.7,0.5-1.3,1.2-1.8,1.9c-0.3,0.4-0.5,0.8-0.7,1.2c0-0.4,0.1-0.9,0.1-1.1c0-0.4,0.2-0.7,0.2-1.1
			c0,0,0,0,0,0c-0.4,0.3-0.7,0.8-0.9,1.2c-0.2,0.7-0.2,1.5-0.2,2.2c-0.2-0.5-0.3-1.2-0.4-1.5c0-0.1-0.1-0.1-0.1-0.2
			c-0.3-0.4-0.6-0.8-1-1.1c0,0,0,0.1,0,0.1c0.1,0.6,0.3,1.1,0.5,1.7c-0.1-0.2-0.3-0.3-0.5-0.5c0.4,0.8,0.6,1.7,0.7,2.6
			c0,0,0,0.1,0,0.1c0,0.1,0,0.3,0,0.4c0,0.1,0,0.2,0,0.3c0,0.3-0.1,0.6-0.2,0.9c0,0.1,0,0.1,0,0.2c0,0,0,0,0,0.1
			c-0.4,1.4-1.3,2.5-2.5,3.4c-2.1,1.7-4.6,3.1-6.2,5.3c0,0.1,0,0.2,0,0.2c0,0,0,0,0,0c0.2-0.1,0.4-0.4,0.6-0.5
			c0.6-0.5,1.3-0.9,2-1.3C5.1,34,5.1,34.1,5,34.2c-0.3,0.3-0.6,0.6-0.8,1c0,0,0,0.1,0.1,0.1c0.5-0.1,0.8-0.6,1.3-0.8c0,0,0,0,0,0
			c0,0,0,0-0.1,0.1c-0.2,0.4-0.5,0.6-0.7,1c0,0,0,0,0,0c0.2,0,0.4,0,0.5,0c0.8-0.3,1.5-0.8,2.2-1.2c0,0,0.1,0,0.1,0
			c-0.2,0.2-0.4,0.5-0.5,0.7c0,0.1,0,0.1,0.1,0.1c0.8-0.3,1.5-0.7,2.2-1.2c-0.3,0.4-0.6,0.7-0.9,1.1c-0.2,0.2-0.4,0.4-0.6,0.6
			c1-0.1,2-0.4,2.9-0.7c0.6-0.3,1.1-0.6,1.7-0.9c0.2-0.1,0.5-0.3,0.7-0.4c-0.1,0.2-0.3,0.3-0.4,0.5c-0.4,0.4-0.9,0.7-1.2,1.2
			c0.6-0.1,1.2-0.3,1.7-0.6c0,0,0.1,0,0.1-0.1c0.2-0.1,0.3-0.3,0.5-0.4c0.7-0.5,1.4-1.2,2-1.8c-0.2,0.4-0.3,0.8-0.5,1.2
			c0,0,0,0.1,0,0.1c1-1,1.9-2,3-2.7c0.7-0.5,1.5-1,2.3-1.1C20,29.6,19,29.9,18.3,30.1z"/>
		<path class="st25" d="M33.7,24.7c0.4-0.2,0.9-0.3,1.3-0.4c-0.7-0.5-2-0.4-2.7-0.4c-0.6,0-1.2,0-1.7,0c0.1-0.1,0.2-0.1,0.3-0.2
			c0.6-0.4,1.4-0.9,1.7-1.6c0-0.1,0-0.2-0.1-0.1c-0.4,0.2-0.8,0.5-1.3,0.7c-0.4,0.2-0.7,0.3-1.1,0.4c0.7-0.7,1.1-1.7,1.3-2.7
			c0-0.1-0.1-0.1-0.2-0.1c-0.4,0.2-0.7,0.7-1.1,1c-0.1,0.1-0.2,0.2-0.3,0.3c0-0.4,0-0.9,0-1c-0.1-0.4-0.2-1.2-0.5-1.5
			c-0.1-0.1-0.2,0.1-0.2,0.1c-0.1,0.5-0.2,1-0.3,1.5c-0.1-0.4-0.3-0.8-0.7-1.1c-0.1-0.1-0.2,0.1-0.2,0.2c0,0.5,0.1,1.1,0,1.6
			c-0.2-0.4-0.2-1-0.5-1.3c-0.4-0.4-0.8-0.8-1.3-1c-0.1,0-0.2,0.1-0.2,0.2c0,0.4,0.1,0.9,0.2,1.3c-0.1-0.3-0.3-0.5-0.6-0.7
			c-0.1-0.1-0.2,0-0.2,0.1c0,0.3,0,0.5,0,0.7c-0.7-0.2-1.4-0.1-2.1,0c0.3-0.1,0.5-0.2,0.8-0.3c0.1,0,0.3-0.3,0.1-0.3
			c-1.4,0.1-2.5,0.2-3.8,0.8c-0.2,0.1-0.4,0.2-0.6,0.3c0,0-0.1,0.1-0.2,0.1c0.3-0.3,0.5-0.6,0.8-0.8c0,0,0,0,0,0
			c-0.5,0.4-1,0.9-1.5,1.3c-0.1,0.1-0.1,0.2,0,0.2c0.7-0.3,1.3-0.7,2-1c0.8-0.3,1.5-0.4,2.3-0.5c-0.2,0.1-0.4,0.2-0.6,0.3
			c-0.1,0-0.1,0.2,0,0.2c0.2,0,0.4,0,0.7,0c0.7,0.1,1.5,0.3,2.2,0.5c0,0,0,0,0.1,0c0.1,0,0.3,0.1,0.4,0.1c0.2,0.1,0.4,0.2,0.5,0.3
			c-0.4,0-0.7,0-1.1,0c-1,0.1-2.1,0.4-3,0.9c-0.1,0-0.2,0.2,0,0.2c0.8,0,1.5,0.2,2.3,0.4c-0.6,0.1-1.2,0-1.8,0.2
			c0.2,0.2,0.5,0.3,0.7,0.4c0.1,0,0.2,0.1,0.4,0.1c0.6,0.2,1.2,0.2,1.7,0.4c0.6,0.2,1.2,0.4,1.8,0.7c0.2,0.1,0.4,0.2,0.6,0.3
			c0.7,0.2,1.4,0.5,2.1,0.5c-0.5,0.5-1.1,0.9-1.6,1.3c-0.5,0.4-1.2,0.7-1.9,0.9c-0.4,0.1-1.1,0.6-0.7-0.1c0.1-0.1,0-0.2-0.1-0.1
			c0,0,0,0,0,0c-1,0.9-2,2.1-3.3,2.4c0.9,0.2,2-0.3,2.8-0.5c-0.1,0-0.2,0.1-0.2,0.1c-0.4,0.2-1,0.4-1.3,0.7c0,0,0,0,0,0
			c1.2-0.1,2.3-0.4,3.5-0.6c0.6-0.1,1.2-0.2,1.9-0.3c0.3,0,0.6-0.1,0.9,0c0,0,0.1,0,0.1,0c-0.3-0.4-0.9-0.6-1.6-0.6
			c0.4-0.1,0.7-0.3,1.1-0.4c0.9-0.2,1.7-0.3,2.6-0.2c0,0,0.1,0,0.1,0c-0.3-0.3-0.8-0.5-1.1-0.7c-0.1,0-0.2,0-0.3,0
			c-0.3-0.1-0.6-0.1-0.9-0.1c0.4-0.2,0.8-0.3,1.3-0.5c0.7-0.2,1.6-0.5,2.4-0.4c0,0,0,0,0.1,0c-0.2-0.4-0.7-0.6-1.1-0.7
			c-0.1,0-0.2,0-0.2,0c-0.4-0.1-0.7-0.1-1.1,0c0.2-0.2,0.5-0.4,0.8-0.5C32.4,25.2,33.2,25,33.7,24.7z"/>
		<path class="st22" d="M29.9,4.4c-0.7,0.6-1.2,1.4-1.8,2c-0.6,0.7-1.2,1.3-1.8,2.1c-1.1,1.6-1.8,2.9-1.9,4.9c0,0.1,0.1,0,0.1,0
			c0.3-2,1.2-3.4,2.3-5c0.5-0.7,1.1-1.4,1.6-2C29,5.8,29.4,5.1,29.9,4.4C30,4.5,30,4.4,29.9,4.4z"/>
		<path class="st22" d="M11.4,22.9C11.4,22.9,11.4,22.9,11.4,22.9c0.9,1.5,0.3,3.4-0.3,5c0,0.1,0.1,0.1,0.2,0
			C12.3,26.5,12.8,24.3,11.4,22.9z"/>
		<path class="st22" d="M6.6,29.4c-0.7,0.9-1.5,1.7-2.2,2.5c-0.8,0.9-1.4,1.7-2,2.8c0,0.1,0,0.1,0.1,0.1C3.9,33,5.6,31.4,6.6,29.4
			C6.7,29.4,6.6,29.4,6.6,29.4z"/>
		<path class="st22" d="M24.9,33.4c-0.6-0.2-1.1-0.4-1.5-0.9c-0.2-0.3-0.4-0.4-0.6-0.7c-0.1-0.2-0.3-0.6-0.2-0.8c0,0,0,0,0,0
			c-0.3,0.4,0.2,1.2,0.4,1.5c0.1,0.2,0.1,0.2,0.3,0.4c0.1,0.1,0.3,0.2,0.5,0.3c0.3,0.2,0.8,0.3,1.2,0.3C24.9,33.5,25,33.4,24.9,33.4
			z"/>
		<path class="st22" d="M28.5,37.8c-1-0.8-1.8-1.2-3-1.4c-1.1-0.3-2.3-0.3-3.5-0.2c0,0,0,0,0,0c1,0.1,2,0.2,3,0.4
			C26.4,36.7,27.4,37.2,28.5,37.8C28.5,37.9,28.6,37.8,28.5,37.8z"/>
		<path class="st22" d="M31.4,38c-0.6-0.8-1.7-1-2.5-1.3c0,0,0,0,0,0c0.4,0.2,0.9,0.4,1.3,0.6C30.6,37.6,31,37.9,31.4,38
			C31.4,38.1,31.5,38.1,31.4,38z"/>
		<path class="st22" d="M36.6,31.9c-0.5,0.2-1.1,0.4-1.7,0.5c-0.5,0.1-1.1,0.2-1.6,0.1c0,0,0,0,0,0c0.5,0.2,1.1,0.1,1.6,0
			c0.6-0.1,1.3-0.2,1.7-0.6C36.7,32,36.7,31.9,36.6,31.9z"/>
		<path class="st22" d="M38.4,26.5c-0.2-0.7-0.5-1.4-1.1-2c-0.6-0.6-1.4-1-2.2-1.3c0,0,0,0,0,0C36.6,24,37.6,25.1,38.4,26.5
			C38.4,26.6,38.4,26.5,38.4,26.5z"/>
		<path class="st22" d="M36.8,15.5C36.8,15.4,36.8,15.5,36.8,15.5c0.2,1,0,2-0.1,3c-0.1,1.2-0.6,2.3-1.3,3.3c-0.1,0.1,0,0.1,0.1,0.1
			c0.9-0.9,1.3-1.9,1.5-3.2C37.2,17.7,37.2,16.4,36.8,15.5z"/>
		<path class="st22" d="M10.3,41.1c-1.2,0.7-3.4,1.9-4.7,1c0,0,0,0,0,0c1.3,1.3,3.7,0,4.8-0.9C10.4,41.1,10.4,41,10.3,41.1z"/>
		<path class="st22" d="M20.6,34.3c-1.2-0.1-2.2-0.2-3.4,0.3c-1,0.4-2.1,1-2.9,1.8c0,0,0,0,0,0c0.8-0.7,1.9-1.2,2.9-1.5
			c1.1-0.3,2.2-0.2,3.3-0.4C20.7,34.5,20.8,34.3,20.6,34.3z"/>
	</g>
	<g>
		<path class="st26" d="M42.2,66c0-0.8-0.4-1.5-0.5-2.2c0-0.2-0.3,0-0.3,0.1c0,0.4,0,0.7,0,1.1c-0.2-1.6-0.9-3.2-1.9-4.4
			c-0.1-0.1-0.2,0.1-0.2,0.2c0.2,0.6,0.3,1.1,0.4,1.7c-0.5-1.5-1.5-3-2.7-3.9c-0.1-0.1-0.3,0.1-0.2,0.2c0.3,0.6,0.5,1.2,0.7,1.8
			c-0.7-1.1-1.5-2-2.3-3.1c-0.1-0.1-0.2,0.1-0.2,0.1c0.1,0.8,0.6,1.6,1.1,2.2c0.9,2.1,1.6,4.3,2,6.5c0.5,2.8,0.5,5.6,0.5,8.4
			c0,1.2,0,2.5-0.1,3.7c-0.1,1.2-0.3,2.5-0.3,3.7c-0.1,2.7-0.9,5.9-3.3,7.5c-0.1,0.1-0.1,0.3,0.1,0.2c0.8-0.3,1.6-0.8,2.3-1.5
			c-0.1,0.4-0.3,0.9-0.5,1.2c-0.1,0.1,0.1,0.3,0.2,0.2c0.9-0.7,1.3-1.7,1.5-2.8c0.1,0.3,0.2,0.7,0.5,0.9c0.1,0.1,0.2-0.1,0.2-0.1
			c-0.3-1.7,0-3.4,0.2-5.1c0,0.2,0,0.4,0.1,0.5c0,0.1,0.2,0,0.2-0.1c0.6-2.3,1.2-4.6,1.5-7c0.1-0.6,0.1-1.2,0.1-1.8
			c0-0.7,0.2-1.5,0.2-2.2c0-0.6,0-1.3,0-1.9c0.1,0.3,0.1,0.7,0.2,1c0,0.1,0.1,0,0.2,0c0.5-1.1,0.5-2.3,0.6-3.5
			C42.2,67.1,42.2,66.6,42.2,66z"/>
		<path class="st26" d="M35.6,92c-0.2-0.4-0.6-0.3-0.9-0.2c0,0-0.1,0-0.1,0.1c-0.9,0.3-1.6,1.3-1.6,2.2c0,0.2,0.2,0,0.2,0
			c0.2-0.2,0.3-0.4,0.5-0.6c-0.1,0.3-0.1,0.7,0,1c0,0,0,0.1,0.1,0.1c0.3,0,0.5-0.2,0.7-0.4c0.4-0.3,0.8-0.5,1-0.9
			C35.7,92.8,35.8,92.4,35.6,92z"/>
		<path class="st26" d="M31.8,91.5c-0.2,0-0.3,0.1-0.5,0.2c-0.1,0-0.1,0.1-0.2,0.1c-0.3,0.2-0.6,0.6-0.7,1c-0.1,0.2-0.2,0.7,0,0.8
			c0.2,0.1,0.5,0.1,0.7,0c0.6-0.3,1.3-0.9,1.2-1.7C32.3,91.7,32.1,91.5,31.8,91.5z"/>
		<path class="st26" d="M29.8,91.5c-0.2,0-0.3,0.1-0.4,0.2c-0.1,0.1-0.3,0.2-0.3,0.3c-0.1,0.1-0.2,0.3-0.2,0.5c0,0.2,0,0.4,0.2,0.5
			c0.4,0.1,0.7-0.3,0.8-0.6c0,0,0,0,0,0c0,0,0.1-0.1,0.1-0.1c0.1-0.1,0.1-0.2,0.1-0.3C30.1,91.7,30,91.6,29.8,91.5z"/>
	</g>
	<path class="st26" d="M58.9,72.6c-0.1-0.7-0.2-1.4-0.3-2.1c0.2,0.4,0.3,0.9,0.4,1.3c0,0.1,0.1,0,0.1,0c0.1-1.3-0.2-3-0.5-4.3
		c-0.1-0.3-0.2-0.6-0.3-0.8c0.1,0.1,0.1,0.3,0.2,0.4c0.1,0.1,0.1,0,0.1-0.1c-0.3-2.4-1.4-5.1-2.7-7.2c0,0,0,0.1,0.1,0.1
		c0.5,0.6,1,1.2,1.6,1.8c0.1,0.1,0.2-0.1,0.1-0.1c-0.7-1.4-1.4-2.9-1.8-4.4c0.4,0.6,0.8,1.2,1.2,1.9c0.1,0.1,0.2,0,0.2-0.1
		c-0.2-1.3-0.7-2.6-1.1-3.9c-0.3-0.8-0.7-1.6-1.3-2.3c0.2,0.2,0.3,0.3,0.5,0.5c0.4,0.4,0.5,1,0.9,1.3c0.1,0.1,0.2-0.1,0.2-0.1
		c-0.4-1.1-1-2.2-1.7-3.2c0.4,0.3,0.7,0.7,1,1.1c0.1,0.1,0.2,0,0.2-0.1c-0.2-1-1-2-1.5-2.8c-0.5-0.8-1.2-1.3-1.9-1.8
		c0.6,0.1,1.1,0.8,1.5,1.2c0.1,0.1,0.3-0.1,0.2-0.2c-1-1.8-2.6-2.8-4.5-3.6c-0.1,0-0.3,0.1-0.2,0.2c0.4,0.5,0.7,1.1,1.1,1.7
		c-0.1-0.1-0.3-0.3-0.5-0.4c-0.3-0.2-0.5-0.6-0.8-0.8c-0.1,0-0.1,0.1-0.1,0.1c0.2,0.5,0.2,1,0.2,1.6c-0.2,0.6-0.4,1.2-0.5,1.8
		c0,0.1,0.1,0.1,0.2,0c0.3-0.3,0.5-0.7,0.8-1.1c0.5-0.5,0.2-0.1,0.1,0.2C50,49,50,49.8,50.1,50.6c0,0.1,0.2,0.1,0.2,0
		c0.4-0.4,0.5-1.1,0.7-1.6c-0.3,0.7-0.3,1.5-0.2,2.3c0.1,1.2,0.5,2.3,0.9,3.4c0.4,1.2,0.8,2.3,1.2,3.4c0.9,2.3,1.7,4.7,2.2,7.2
		c0.5,2.1,0.8,4.3,1.1,6.5c0,0.3,0,0.7,0,1.1c0.1,0.8,0,1.6,0,2.4c0,0.2,0.2,0,0.3-0.1c0.2-0.5,0.4-1,0.6-1.5
		c-0.1,1.5-0.4,2.9-0.5,4.4c0,0,0,0,0,0c0,0.3-0.1,0.6-0.1,0.8c0,0.1,0.2,0.1,0.2,0c0.1-0.2,0.4-0.5,0.5-0.7c-0.1,0.3-0.3,0.6-0.3,1
		c-0.2,1-0.2,2.1-0.3,3.2c-0.2,2.1-0.5,4.3-0.7,6.4c0,0.1,0.2,0.1,0.2,0c0,0,0,0,0,0l0,0l0,0c0.3-1.2,0.5-2.5,0.7-3.7
		c0.3-1.6,0.8-3.2,1.2-4.8c0.3-1.2,0.4-2.6,0.6-3.8c0-0.2,0-0.3,0.1-0.5c0,0.3,0.1,0.5,0.1,0.8c0,0.1,0.1,0.1,0.1,0
		c0.3-0.3,0.1-1,0.1-1.4C59,74.4,59,73.5,58.9,72.6z"/>
	<path class="st26" d="M52,92.3c-0.5-0.1-0.8,0.3-1.1,0.5c0,0,0,0,0,0c-0.5,0.4-1,0.9-1.1,1.6c-0.1,0.5,0,1.8,0.8,1.2
		c0.4-0.3,0.6-0.8,0.8-1.3c0.3-0.5,0.5-1.1,0.9-1.5C52.3,92.6,52.2,92.3,52,92.3z"/>
	<path class="st26" d="M55.5,92.2c-0.7-0.8-1.7,0.3-1.8,1c-0.2,0.3-0.3,0.7-0.3,1.1c-0.2,1,0.8,1.8,1.6,1
		C55.6,94.7,56.1,93.1,55.5,92.2z"/>
	<path class="st26" d="M80.5,72.7c-0.2,0.1-0.5,0.3-0.8,0.5c0.3-0.7,0.5-1.6,0.6-2.3c0-0.1-0.1-0.1-0.2,0c-0.2,0.2-0.4,0.5-0.6,0.8
		c0.1-1.1-0.2-2.2-0.6-3.2c-0.3-0.8-0.6-1.6-1.1-2.2c0.3,0.2,0.6,0.4,0.9,0.7c0.1,0.1,0.2-0.1,0.1-0.2c-0.7-0.9-1.3-1.8-2-2.7
		c0.3,0.2,0.6,0.4,0.9,0.5c0.1,0,0.2-0.1,0.2-0.2c-0.4-0.4-0.8-0.8-1.2-1.2c-0.5-0.4-0.8-1-1.2-1.5c-0.5-0.6-0.6-1.5-1-2.1
		c0-0.1-0.1,0-0.1,0.1c-0.2,0.7,0.1,1.6,0.3,2.3c0.1,0.3,0.2,0.5,0.3,0.8c-0.2-0.2-0.3-0.5-0.5-0.7c-0.2-0.3-0.3-0.9-0.6-1.1
		c0,0-0.1,0-0.1,0c-0.2,0.8,0.2,1.7,0.5,2.4c0.4,0.9,1.1,1.6,1.7,2.3c0.6,0.8,1.2,1.5,1.6,2.3c1.2,2.2,1.2,5,0.7,7.4
		c-0.3,1.1-0.5,2.3-0.8,3.4c-0.3,1.2-0.8,2.3-1.2,3.4c-0.4,1.1-0.9,2-1.5,3c-0.1,0.1-0.1,0.2-0.1,0.3c0.2,0.6,0.4,1.4,0.2,2
		c0,0.1,0.1,0.1,0.2,0c0-0.1,0-0.1,0-0.2c0,0,0,0.1,0,0c0.2-0.5,0.4-1,0.6-1.5c0.1-0.3,0.2-0.7,0.2-1c0,0.4,0,0.7-0.1,1.1
		c0,0.1,0.1,0.1,0.2,0c0.4-0.7,0.6-1.7,0.9-2.5c0.5-1.2,0.9-2.6,1.4-3.8c0.4-1.4,0.8-2.8,1.2-4.1c0.3-1,0.8-1.9,1.3-2.8
		C80.6,72.7,80.6,72.6,80.5,72.7z"/>
	<path class="st26" d="M86,87c-0.7-0.2-1.3,1-1.5,1.5c-0.2,0.6-0.4,1.9,0.5,0.9c0.3-0.3,1.4-1.7,1.2-2.2C86.1,87.1,86.1,87,86,87z"
		/>
	<path class="st26" d="M89.3,86.5c-0.5,0-0.9,0.5-1.2,0.8c0,0,0,0,0,0c-0.3,0.3-0.5,0.6-0.7,1c-0.1,0.3-0.4,0.8-0.2,1.1
		c0.1,0.3,0.5,0.4,0.8,0.3c0.5-0.2,0.9-0.6,1.2-1.1c0.3-0.5,0.7-1,0.8-1.6C90,86.7,89.7,86.5,89.3,86.5z"/>
	<path class="st26" d="M93.3,87.8c-0.2,0-0.5,0-0.7,0.1c-0.1,0-0.1,0-0.2,0c-0.5,0.1-0.9,0.6-1.2,1c-0.3,0.4-0.6,1.1-0.4,1.6
		c0.1,0.5,0.7,0.8,1.2,0.8c1.1-0.1,1.8-1.6,1.9-2.5C94.1,88.4,93.8,87.8,93.3,87.8z"/>
	<path class="st26" d="M96.2,70.7c0,0-0.1,0-0.1,0c0,0,0,0,0,0c0,0-0.1,0-0.1,0.1c-0.2,0.6-0.1,1.3-0.2,1.9
		c-0.1,0.8-0.1,1.7-0.2,2.5c-0.1,0.7-0.1,1.4-0.2,2.1c-0.1,0.3-0.1,0.7-0.2,1c-0.2,1.3-0.4,2.7-0.7,4c-0.3,1.4-0.9,2.6-1.4,3.9
		c0,0.1,0,0.2,0.1,0.1c1.1-0.6,1.7-2.2,1.8-3.4c0,0,0,0,0-0.1c0.1-0.3,0.2-0.6,0.3-0.9c0.1-0.4,0.2-0.8,0.4-1.2
		c0.1-0.2,0.1-0.4,0.2-0.6c0.2-0.7,0.4-1.4,0.6-2.1c0-0.2,0.1-0.4,0.1-0.6c0.1-0.3,0.1-0.5,0.2-0.8c0.2-0.9,0.3-1.8,0-2.7
		c0,0,0,0,0-0.1c0.2,0.3,0.3,0.7,0.5,1.1c0,0.1,0.2,0,0.2-0.1C97.8,73.7,97.7,71.1,96.2,70.7z M96,72.4c0-0.2,0-0.3,0.1-0.5
		c0,0.6-0.1,1.2-0.2,1.8c0,0.2,0,0.4-0.1,0.7C95.9,73.7,96,73.1,96,72.4z"/>
	<path class="st26" d="M93.9,65.9c-1.5-2-3.2-4.6-3.4-7.2c0.1,0.3,0.1,0.5,0.2,0.8c0.2,0.6,0.5,1.3,1,1.8c0.1,0.1,0.3-0.1,0.2-0.2
		c-0.1-0.5-0.3-0.9-0.5-1.4C91.2,59,91,58,91,57.2c-0.1-0.8,0-1.5,0-2.3c0-0.4,0.2-0.6,0.1-1c0-0.1-0.1,0-0.2,0
		c-0.2,0.2-0.4,0.3-0.5,0.5c0.2-0.9,0.5-1.7,0.8-2.5c0-0.1,0-0.2-0.1-0.1c-0.9,0.3-1.5,1.5-1.7,2.5c0-1.3,0.8-2.8,1.2-3.9
		c0.3-1,1.1-2.4,0.8-3.5c0-0.1-0.1-0.1-0.2-0.1c-0.2,0.1-0.3,0.3-0.3,0.5c-0.2,0.6-0.6,1.1-0.9,1.7c0.1-1.1-0.1-2.1-0.3-3.3
		c0-0.2-0.3,0-0.3,0.1c0,1.6-0.4,3.1-0.8,4.6c-0.1-0.7-0.1-1.5-0.4-2.1c-0.1-0.1-0.2,0-0.2,0.1c-0.3,1.7-0.9,3.4-1.5,5
		c0.1-0.9,0.3-1.8,0.3-2.7c0-0.1-0.1-0.1-0.2,0c-1,1.8-1.1,3.6-1,5.5c-0.2-0.6-0.4-1.2-0.4-1.8c-0.2-1.1,0.1-2,0.3-3.1
		c0-0.1-0.1-0.1-0.1-0.1c-1,0.5-1.3,1.7-1.3,2.7c0,0.8,0,1.6,0.2,2.3c-0.1-0.3-0.2-0.6-0.3-0.9c-0.1-0.4-0.1-0.8-0.3-1.1
		c0-0.1-0.2,0-0.2,0.1c-0.5,1.3,0,3.1,0.6,4.4c0.7,1.7,1.9,3.1,3.3,4.2c0.1,0.1,0.3-0.1,0.2-0.2c-0.2-0.4-0.5-0.8-0.7-1.3
		c-0.1-0.1-0.1-0.3-0.2-0.4c0.5,0.8,1.3,1.4,1.9,1.9c0.6,0.5,1.4,0.9,2.1,1.3c0.5,0.3,1.1,0.8,1.7,0.9c0.1,0,0.2-0.1,0.1-0.2
		c-0.2-0.4-0.7-0.9-1.1-1.2c-0.2-0.2-0.4-0.4-0.5-0.6c0.9,0.8,1.7,1.8,2.6,2.6c0,0,0.1,0.1,0.1,0.1c0.1,0.1,0.2,0.2,0.3,0.3
		C93.9,66.1,94,66,93.9,65.9z"/>
	<g>
		<path class="st27" d="M48.5,34.5c-0.8-0.5-1.6-1.1-2.2-1.9c-0.2,0.6,0.2,1.7,0.4,1.9c0.1,0.1,0.1,0.2,0.2,0.2
			c0.1,0.2,0.2,0.4,0.3,0.5c-0.7-0.6-1.4-1.3-1.9-2c-0.3-0.3-0.6-0.5-0.9-0.8c0,0.1-0.1,0.1,0,0.2c0.3,0.8,0.6,1.6,0.7,2.4
			c-0.7-0.9-1.1-2.1-2.3-2.6c0.6,0.6,1.1,1.3,1.6,2.1c0.3,0.5,0.6,0.9,0.9,1.4c0.1,0,0.3-0.2,0.3-0.3c0-0.6-0.1-1.1-0.2-1.6
			c0.7,0.9,1.4,1.7,2.4,2.2c0.2,0.1,0.4-0.2,0.3-0.4c-0.1-0.1-0.1-0.2-0.2-0.3c1.2,0.8,2.6,1.2,4,0.8c0.1,0,0.1-0.1,0.1-0.1
			C50.8,35.9,49.6,35.2,48.5,34.5z"/>
		<path class="st27" d="M56.3,37.6c-0.1-0.1-0.3-0.2-0.4-0.4c1,0.6,2.2,0.8,3.4,0.7c0.1-0.1,0.3-0.1,0.4-0.2c0,0,0,0-0.1-0.1
			c-1.6-0.2-3.2-0.1-4.4-1.3c-0.1-0.1-0.3,0.1-0.2,0.2c0.2,0.3,0.3,0.6,0.6,0.9c-0.4-0.1-0.7-0.2-1.1-0.4c-0.7-0.4-1.3-1-2-1.4
			c0,0.1,0.1,0.2,0.1,0.4c0,0,0,0,0,0.1c0.7,1.5,2.5,2.2,4.2,2.3c0.1-0.1,0.2-0.3,0-0.4C56.8,37.8,56.6,37.7,56.3,37.6z"/>
		<path class="st27" d="M48.3,29.3c-0.1,0.4,0,0.9,0.2,1.3c0,0,0,0.1,0,0.1c0.1,0.2,0.3,0.6,0.5,0.9c-0.8-0.4-1.6-1-2-1.6
			c0,0-0.1,0-0.1,0c0.3,1,1.4,1.9,2.3,2.3c0.2,0.1,0.4-0.2,0.4-0.3c0,0,0-0.1,0-0.1c0.5,0.4,1.1,0.6,1.7,0.7
			c0.7-0.1,1.4-0.3,1.8-0.8c-0.2-0.1-0.5-0.1-0.7-0.2C50.9,31.5,49,30.6,48.3,29.3z"/>
		<path class="st27" d="M48.2,27.9C48.2,27.9,48.2,27.9,48.2,27.9C48.2,27.9,48.3,27.9,48.2,27.9c0.1,0,0.1,0,0.2,0h0
			c0.7-0.1,1.5-0.3,2.1-0.7c-1.2,0.1-2.4,0.3-3.5-0.1c-0.2-0.1-0.4,0.2-0.3,0.4c0.1,0.1,0.3,0.3,0.6,0.5c-0.6-0.3-1.2-0.6-1.8-0.6
			c0,0,0,0,0,0c0.1,0.1,0.2,0.1,0.3,0.2c0.8,0.3,1.5,0.8,2.1,1.3c0.2,0.1,0.3-0.1,0.3-0.3c0-0.3-0.2-0.6-0.5-0.9
			C47.8,27.9,48,27.9,48.2,27.9z"/>
		<path class="st27" d="M43.5,29.5c0,0.1,0,0.1,0,0.2c0.1,0.3,0.3,0.7,0.3,1.1c-0.2-0.2-0.3-0.5-0.5-0.7c-0.2-0.3-0.6-0.7-0.9-1
			c0,0-0.1,0,0,0c0.5,0.7,0.9,1.6,1.4,2.2c0.1,0.1,0.3-0.1,0.3-0.1c0.1-0.2,0.1-0.5,0.1-0.8c0.1,0.1,0.3,0.3,0.5,0.4
			c0.5,0.3,1.1,0.4,1.6,0.4c0,0,0.1,0,0.1,0c-0.3-0.1-0.7-0.2-1-0.4C44.7,30.6,44,30.1,43.5,29.5z"/>
		<path class="st27" d="M56,27.6c0.6,0,1.4-0.2,2-0.4c-0.4-0.1-0.9,0-1.2,0c-0.7,0-1.5-0.1-2.1-0.4c0,0.1,0.1,0.2,0.1,0.2
			C55.1,27.2,55.5,27.5,56,27.6z"/>
		<path class="st27" d="M61.8,31.4c-0.9-0.2-1.9-0.7-2.5-1.4c0,0.2,0.1,0.5,0.2,0.7c-0.9-0.3-1.9-0.4-2.7-1.1
			c-0.2-0.2-0.5,0.2-0.3,0.4c0.4,0.4,0.7,0.9,0.8,1.5c-0.5-0.5-1-1-1.5-1.4c0.1-0.1,0.2-0.2,0.2-0.3c-1.4,0.2-3.5-0.8-4.3-2
			c0,0,0,0,0,0c0,0.5,0.1,1,0.3,1.3c0,0,0,0.1,0,0.1c0,0.1,0.1,0.1,0.1,0.2c-0.2-0.2-0.5-0.3-0.8-0.4c0.3,0.2,0.5,0.4,0.7,0.6
			c0.4,0.4,0.5,0.8,0.7,1.2c0.2,0,0.4-0.2,0.3-0.4c0-0.1,0-0.3-0.1-0.4c0.8,0.4,1.8,0.5,2.6,0.2c0.7,0.6,1.2,1.4,1.8,2.1
			c0.1,0.1,0.4-0.1,0.4-0.2c0-0.4-0.1-0.8-0.2-1.2c0.9,0.6,1.9,1,2.9,0.8c0.9,0.6,2,0.6,3,0.1c0.1,0,0.2-0.1,0.2-0.2
			C63.1,31.5,62.4,31.5,61.8,31.4z"/>
		<path class="st27" d="M65.4,36.2c-0.2-0.5-0.5-1.1-0.8-1.5c-0.4-0.4-0.9-0.8-1.4-0.9c0,0,0,0,0,0c0.7,1,1.7,2,2,3.3
			c-0.3-0.3-0.7-0.7-1.1-1c-0.6-0.4-1.3-0.7-2-0.7c0,0,0,0,0,0.1c0.2,0.3,0.4,0.6,0.7,0.9c-0.4-0.2-0.9-0.4-1.3-0.6
			c-0.5-0.2-1.1-0.5-1.6-0.7c0,0.1,0,0.1,0,0.1c0.2,0.3,0.3,0.7,0.4,1c-0.6-0.6-1.2-1.2-2-1.4c0,0,0,0,0,0c0.9,0.6,1.6,1.5,2.2,2.4
			c0.2,0.2,0.5,0,0.5-0.3C61,36.4,61,36,60.9,35.6c0.8,0.6,1.7,1.1,2.7,1.3c0.2,0.1,0.5-0.2,0.3-0.4c-0.1-0.2-0.3-0.3-0.4-0.5
			c0.2,0.2,0.5,0.4,0.7,0.5c0.4,0.3,0.8,0.8,1.2,1.1c0,0,0.1,0,0.1,0C65.5,37.3,65.5,36.7,65.4,36.2z"/>
		<path class="st27" d="M71.9,31.9L71.9,31.9c0.1-0.1,0.1-0.2,0.1-0.2c-1.8,0.8-4,1.1-5.6-0.1c0,0,0,0,0,0c0.3,1,1.1,1.5,2,1.6
			c0.1,0.1,0.3,0.1,0.4,0.2c-1.2,0-2.6-0.2-3.3-1c-0.2-0.2-0.5,0.2-0.4,0.3c0.2,0.3,0.4,0.6,0.6,0.9c-0.8-0.3-1.7-0.8-2.2-1.3
			c0,0-0.1,0-0.1,0.1c0.5,1,1.8,1.8,2.8,2.2c0.3,0.1,0.6-0.3,0.5-0.5c-0.1-0.1-0.1-0.2-0.2-0.3c1,0.4,2.2,0.4,3,0.2
			c0.1,0,0.3-0.3,0.1-0.4c-0.1-0.1-0.3-0.1-0.4-0.2c0.8,0,1.6-0.2,2.3-0.5c0.3-0.3,0.6-0.6,0.9-0.9c0,0,0,0-0.1,0
			C72.2,31.8,72.1,31.8,71.9,31.9z"/>
		<path class="st27" d="M78.2,27.6c-0.2-0.3-0.5-0.6-0.9-0.8c-0.5-0.3-1.1-0.5-1.7-0.5c-1.3-0.1-2.6,0.4-3.3,1.5c0,0,0,0,0,0
			c0,0,0,0.1,0.1,0.1c0.7,0.1,1.6-0.1,2.1,0.5c-0.3,0-0.7,0-0.9,0c-0.8,0.1-1.6,0.3-2.4,0.5c-0.2,0-0.3,0.3-0.1,0.4
			c0.5,0.1,1.1,0.2,1.7,0.3c-0.8,0-1.5,0.2-2.3,0.2c-0.5,0-1.1-0.1-1.6-0.2c-0.3-0.1-0.5-0.3-0.9-0.4c0,0,0,0,0,0
			c0.3,0.9,1.5,1.3,2.4,1.4c0.2,0,0.5,0,0.7,0c1-0.2,1.9-0.6,2.7-1.2c0,0-0.1,0-0.1-0.1c-0.5-0.1-1.1-0.2-1.6-0.3
			c0.5-0.1,0.9-0.2,1.4-0.2c0.4,0,1,0.1,1.4-0.1c0.1,0,0.2-0.2,0.2-0.3c-0.2-0.3-0.6-0.5-0.9-0.6c-0.3-0.1-0.6-0.1-0.9-0.1
			c0,0,0,0,0,0c0.7-0.1,1.6-0.4,1.7-0.4C75.9,27.1,77,27.6,78.2,27.6z"/>
		<path class="st27" d="M78.7,29.7c0.1-0.2,0.2-0.3,0.2-0.5c0,0,0,0,0,0c-0.7,0.4-1.5,0.7-2.3,0.8c-0.5,0-1.1,0-1.5-0.2
			C75.9,30.7,77.8,30.9,78.7,29.7z"/>
		<path class="st27" d="M81.1,21.4c-0.6-0.3-1.2-0.3-1.8-0.1c0.5,0,1.3,0.1,1.8,0.4c-0.2,0-0.4,0-0.5,0c-0.5,0.1-0.9,0.2-1.4,0.3
			c-0.8,0.3-1.6,0.6-2.2,1.1c-0.1,0.1-0.1,0.2,0,0.2c0.5,0,1.8-0.1,2.3,0.3c-0.1,0-0.3,0-0.4,0c-0.2,0-0.4,0.1-0.6,0.1
			c-0.6,0-1.3,0.2-1.9,0.5c-0.2,0.1-1.6,1-1.6,1.5c0.9-0.7,1.9-1,3-1c0.6-0.1,1.1,0,1.7,0c0,0,0,0,0.1,0c0.1,0,0.3-0.2,0.2-0.4
			c-0.1-0.1-0.1-0.1-0.2-0.2c0.1,0,0.2-0.1,0.3-0.1c0.1-0.1,0.2-0.2,0.1-0.3c-0.4-0.7-1.7-0.6-2.5-0.6c0.7-0.5,1.6-0.7,2.5-0.9
			c0.6-0.1,1.4,0.2,1.9-0.1c0,0,0.1,0,0.1-0.1C81.6,21.7,81.4,21.5,81.1,21.4z"/>
		<path class="st27" d="M83.5,22.9c0-0.1,0-0.2-0.1-0.1c-0.9,0.1-2.1,0.5-2.4,1.4c0,0,0,0,0,0C81.6,23.5,82.5,23,83.5,22.9z"/>
		<path class="st27" d="M67.8,27.9c-0.8,0.2-1.7,0.4-2.5,0.4c-0.8,0-2.1,0.1-2.9-0.3c0,0.3,0.3,0.5,0.5,0.7c0,0,0,0.1,0,0.1
			c0.1,0.1,0.3,0.2,0.4,0.3c-0.7,0-1.5-0.2-2-0.6c-0.1-0.1-0.3,0.1-0.2,0.2c0.2,0.2,0.3,0.4,0.4,0.7c0,0,0,0,0,0
			c-0.7-0.3-1.5-0.7-1.8-1.2l0,0c0.1,0.3,0.2,0.6,0.4,0.9c0.2,0.2,0.4,0.3,0.6,0.4c0.6,0.2,1.2,0.3,1.9,0.4c0,0,0-0.1,0-0.1
			c-0.1-0.1-0.2-0.2-0.3-0.4c0.6,0.2,1.3,0.3,2.1,0.3c0.2,0,0.6-0.4,0.3-0.6c0,0,0,0,0,0c1.2,0.1,2.4-0.3,3.3-1.1
			c0,0,0.1-0.1,0.1-0.2C67.9,27.9,67.9,27.9,67.8,27.9z"/>
		<path class="st27" d="M65.9,24c-0.6,0-1.1,0.1-1.7,0c-0.1,0.1-0.2,0.3,0,0.3c0.3,0.1,0.6,0.2,0.8,0.3c-0.2,0-0.3,0-0.4,0
			c-0.8,0.1-1.6,0.1-2.5-0.1c-0.2,0-0.4,0.3-0.2,0.4c0.2,0.1,0.6,0.5,0.9,0.9c-0.7-0.4-1.5-0.6-2.3-0.5c0.6,0.1,1.2,0.3,1.8,0.7
			c0.3,0.2,0.6,0.4,0.8,0.7c0,0,0.1,0.1,0.1,0.1c0.2,0.1,0.4-0.1,0.4-0.3c0.1-0.5-0.3-1-0.7-1.4c1.1,0.1,2.2,0.2,3.2-0.2
			c0.1-0.1,0.3-0.3,0.1-0.4c-0.2-0.1-0.4-0.1-0.6-0.2c0.5-0.1,1.1-0.1,1.7-0.2c0.1,0,0.1-0.1,0.1-0.1C67,24,66.5,24,65.9,24z"/>
		<path class="st27" d="M71.6,25.1c-0.6-0.3-0.9-0.4-1.5-0.4c-0.2-0.1-0.4-0.1-0.7-0.1c0.2-0.1,0.5-0.2,0.7-0.2c0.4-0.1,1,0,1.3-0.2
			c0.1-0.1,0.3-0.2,0.2-0.4c-0.1-0.3-0.4-0.4-0.8-0.5c0.7-0.2,1.5-0.2,2.1-0.3c-0.9-0.3-2.2,0-3.1,0.4c0,0.1,0,0.2,0.1,0.3
			c0.2,0.1,0.7,0.1,1,0.2c-0.4,0.1-0.8,0.1-1.1,0.2c-0.5,0.1-0.9,0.4-1.4,0.6c-0.1,0.1-0.3,0.4,0,0.4c0.2,0,0.4,0,0.6,0
			c-0.4,0.2-0.8,0.4-1.1,0.6c-0.5,0.3-0.9,0.7-1.1,1.2c0,0,0,0.1,0,0.2c0.7-0.6,1.5-1,2.4-1.2c0.7-0.2,1.6-0.5,2.5-0.5
			C71.7,25.2,71.7,25.1,71.6,25.1z"/>
		<path class="st27" d="M79.2,19.5C79.2,19.5,79.2,19.4,79.2,19.5c-0.5-0.4-1.5-0.3-2.1-0.2c-0.1,0-0.3,0.1-0.4,0.1
			c-0.5,0.2-1,0.4-1.3,0.7c-0.1,0.1-0.2,0.4,0.1,0.4c0.4,0,1-0.1,1.4,0c-0.2,0.1-0.5,0.1-0.6,0.1c-0.7,0.3-1.1,0.5-1.7,0.9
			c0,0,0,0,0,0c0.8-0.7,1.9-0.8,3-0.9c0,0,0.1,0,0.1-0.1c0.1-0.1,0.2-0.3,0-0.4c-0.4-0.3-0.9-0.3-1.4-0.3c0.1-0.1,0.2-0.1,0.3-0.2
			C77.5,19.4,78.3,19.5,79.2,19.5z"/>
		<path class="st27" d="M74,21.6c0.1-0.1,0.3-0.3,0.2-0.4c-0.5-0.8-1.6-0.8-2.4-0.6c-0.5,0.1-1,0.3-1.4,0.6
			c-0.2,0.1-0.4,0.3-0.5,0.5c-0.1,0.1-0.2,0.2-0.2,0.3c-0.1,0.1-0.2,0.2-0.1,0.3C70.7,21.3,72.6,21,74,21.6z"/>
		<path class="st27" d="M56.6,25.8c0.4,0,0.8,0.1,0.9,0c0.4,0,0.9-0.1,1.3-0.2c0.3-0.2,0.6-0.4,0.9-0.7c0,0-0.1-0.1-0.1-0.1
			c-1.2,0.1-2.4,0.7-3.6,0.6C56.1,25.6,56.3,25.7,56.6,25.8z"/>
		<path class="st27" d="M50.9,26.5C50.9,26.5,51,26.5,50.9,26.5c0.9-0.2,1.8-0.3,2.7-0.2c0,0,0,0,0,0c-0.4-0.1-0.7-0.2-1.1-0.2
			C52,26.2,51.5,26.3,50.9,26.5C50.9,26.5,50.9,26.5,50.9,26.5L50.9,26.5z"/>
		<path class="st27" d="M43.9,28.2c0.1,0,0.2,0.1,0.2,0.1c0.1,0.1,0.3,0.2,0.4,0.2c0.1,0,0.2,0,0.2,0.1c0.1,0,0.2-0.2,0.2-0.3
			c-0.5-0.6-1.2-0.6-1.9-0.7C43.3,27.9,43.6,28.1,43.9,28.2z"/>
		<path class="st27" d="M51,38C51,38,51,37.9,51,38c-0.5-0.5-1.2-0.6-1.8-0.8c0.9,0.5,1.8,1.4,2.3,2.4c0,0,0.1,0,0.1,0
			C51.7,39,51.4,38.5,51,38z"/>
		<path class="st27" d="M58.7,35.1c-0.5-0.5-1.2-0.9-1.7-1.3c-0.3-0.2-0.5-0.5-0.7-0.7c-0.2-0.2-0.7-0.5-0.7-0.9c0,0-0.1,0-0.1,0
			c-0.1,0.3,0.1,0.6,0.2,0.9c0.1,0.2,0.1,0.5,0.2,0.7c0,0-0.1,0-0.1-0.1c-0.7-0.3-1.3-1-1.8-1.5c0,0,0,0,0,0
			c0.2,0.8,0.3,1.5,0.8,2.2c0.5,0.7,1.5,0.8,2.3,0.8c0,0,0,0,0.1,0c0,0,0,0,0.1,0.1c0.4,0.2,0.9,0.2,1.3,0.2
			C58.6,35.4,58.8,35.2,58.7,35.1z"/>
		<path class="st27" d="M70.6,36.1c-0.1,0-0.3-0.1-0.4-0.1c-0.6-0.1-1.1-0.2-1.6-0.4c-0.3-0.1-0.6-0.2-0.9-0.4
			c1.1,1.2,3,1.7,4.5,1.1c0.1,0,0.1-0.1,0.1-0.2C71.7,36.3,71.1,36.2,70.6,36.1z"/>
		<path class="st27" d="M82.8,26.4C82.8,26.3,82.8,26.3,82.8,26.4c-0.7-0.1-1.3,0-2-0.1c-0.5,0-1-0.1-1.5-0.1
			C80.2,27,81.8,26.9,82.8,26.4z"/>
	</g>
</g>
</svg>
