<?xml version="1.0" encoding="utf-8"?>
<!-- Generator: Adobe Illustrator 21.0.0, SVG Export Plug-In . SVG Version: 6.00 Build 0)  -->
<svg version="1.1" id="OBJECTS" xmlns="http://www.w3.org/2000/svg" xmlns:xlink="http://www.w3.org/1999/xlink" x="0px" y="0px"
	 viewBox="0 0 500 500" style="enable-background:new 0 0 500 500;" xml:space="preserve">
<style type="text/css">
	.st0{fill:#FFDF85;stroke:#000000;stroke-miterlimit:10;}
	.st1{fill:#00D408;stroke:#000000;stroke-miterlimit:10;}
	.st2{fill:#EB23FF;stroke:#000000;stroke-miterlimit:10;}
	.st3{fill:#3EFF2A;stroke:#000000;stroke-miterlimit:10;}
	.st4{fill:#BF7600;stroke:#000000;stroke-miterlimit:10;}
	.st5{opacity:0.21;fill:#EB46FF;stroke:#000000;stroke-miterlimit:10;}
	.st6{fill:#00F7A7;stroke:#000000;stroke-miterlimit:10;}
	.st7{fill:#E4FF38;stroke:#000000;stroke-miterlimit:10;}
	.st8{opacity:0.65;fill:#6400E2;stroke:#000000;stroke-miterlimit:10;}
	.st9{fill:#FF1CFB;stroke:#000000;stroke-miterlimit:10;}
	.st10{fill:#23FF2C;stroke:#000000;stroke-miterlimit:10;}
	.st11{fill:#AAB800;stroke:#000000;stroke-miterlimit:10;}
	.st12{fill:#E38DFF;stroke:#000000;stroke-miterlimit:10;}
	.st13{fill:#43B800;stroke:#000000;stroke-miterlimit:10;}
	.st14{fill:#00B192;stroke:#000000;stroke-miterlimit:10;}
	.st15{fill:#0E60FF;stroke:#000000;stroke-miterlimit:10;}
	.st16{fill:#5CFF78;stroke:#000000;stroke-miterlimit:10;}
	.st17{fill:#8EFF15;stroke:#000000;stroke-miterlimit:10;}
	.st18{opacity:0.14;fill:#386DFF;stroke:#000000;stroke-miterlimit:10;}
	.st19{fill:#635600;stroke:#000000;stroke-miterlimit:10;}
	.st20{opacity:0.65;fill:#BFFF5C;stroke:#000000;stroke-miterlimit:10;}
	.st21{fill:#FF8531;stroke:#000000;stroke-miterlimit:10;}
	.st22{fill:#78FFFB;stroke:#000000;stroke-miterlimit:10;}
	.st23{opacity:0.5;fill:#CF38FF;stroke:#000000;stroke-miterlimit:10;}
	.st24{fill:#FF2376;stroke:#000000;stroke-miterlimit:10;}
	.st25{fill:#F700F7;stroke:#000000;stroke-miterlimit:10;}
	.st26{fill:#86FF31;stroke:#000000;stroke-miterlimit:10;}
	.st27{opacity:0.5;fill:#BC2AFF;stroke:#000000;stroke-miterlimit:10;}
	.st28{fill:#718AFF;stroke:#000000;stroke-miterlimit:10;}
	.st29{fill:#FFDF6A;stroke:#000000;stroke-miterlimit:10;}
	.st30{opacity:0.29;}
	.st31{fill:#FF71F1;stroke:#000000;stroke-miterlimit:10;}
	.st32{fill:#4DCDFF;stroke:#000000;stroke-miterlimit:10;}
	.st33{fill:#FF2A61;stroke:#000000;stroke-miterlimit:10;}
	.st34{fill:#FF4DF9;stroke:#000000;stroke-miterlimit:10;}
	.st35{fill:#F7006C;stroke:#000000;stroke-miterlimit:10;}
	.st36{fill:#F51CFF;stroke:#000000;stroke-miterlimit:10;}
	.st37{fill:#6938FF;stroke:#000000;stroke-miterlimit:10;}
	.st38{fill:#54CD00;stroke:#000000;stroke-miterlimit:10;}
	.st39{fill:#543626;stroke:#000000;stroke-miterlimit:10;}
	.st40{fill:#FF38A4;stroke:#000000;stroke-miterlimit:10;}
	.st41{fill:#00BF78;stroke:#000000;stroke-miterlimit:10;}
	.st42{fill:#FF7923;stroke:#000000;stroke-miterlimit:10;}
	.st43{fill:#7100BF;stroke:#000000;stroke-miterlimit:10;}
	.st44{fill:#003EBF;stroke:#000000;stroke-miterlimit:10;}
	.st45{fill:#FF8DC2;stroke:#000000;stroke-miterlimit:10;}
	.st46{fill:#FF46CC;stroke:#000000;stroke-miterlimit:10;}
	.st47{fill:#07FFB2;stroke:#000000;stroke-miterlimit:10;}
	.st48{fill:#940060;stroke:#000000;stroke-miterlimit:10;}
	.st49{opacity:0.27;fill:#55D2FF;stroke:#000000;stroke-miterlimit:10;}
	.st50{opacity:0.18;fill:#EE1CFF;stroke:#000000;stroke-miterlimit:10;}
	.st51{opacity:0.18;fill:#55BDFF;stroke:#000000;stroke-miterlimit:10;}
	.st52{opacity:0.18;fill:#00CD36;stroke:#000000;stroke-miterlimit:10;}
	.st53{opacity:0.18;fill:#770094;stroke:#000000;stroke-miterlimit:10;}
	.st54{fill:#EF78FF;stroke:#000000;stroke-miterlimit:10;}
	.st55{opacity:0.25;fill:#F563FF;stroke:#000000;stroke-miterlimit:10;}
	.st56{fill:#D74451;stroke:#000000;stroke-miterlimit:10;}
	.st57{fill:#00F05D;stroke:#000000;stroke-miterlimit:10;}
	.st58{fill:#E2A2FF;stroke:#000000;stroke-miterlimit:10;}
	.st59{fill:#FAFF94;stroke:#000000;stroke-miterlimit:10;}
	.st60{fill:#4BE900;stroke:#000000;stroke-miterlimit:10;}
	.st61{fill:#E2004B;stroke:#000000;stroke-miterlimit:10;}
	.st62{fill:#6400D4;stroke:#000000;stroke-miterlimit:10;}
	.st63{fill:#55CCFF;stroke:#000000;stroke-miterlimit:10;}
	.st64{fill:#B01CFF;stroke:#000000;stroke-miterlimit:10;}
</style>
<g>
	<path class="st0" d="M86.1,123.7c11.5-0.6,16.4-14.7,16.6-26.7c-0.2,12.1,5.4,25.8,16.2,26.3c-10.9,0.7-17.3,17.8-16.6,29.9
		C101.8,141.5,95.6,123.5,86.1,123.7z"/>
	<path class="st1" d="M409.2,329.6c7.7-0.4,11-9.8,11.1-17.9c-0.1,8.1,3.6,17.3,10.8,17.6c-7.3,0.5-11.6,11.9-11.1,20
		C419.7,341.5,415.6,329.5,409.2,329.6z"/>
	<path class="st2" d="M344.5,54c7.7-0.4,11-9.8,11.1-17.9c-0.1,8.1,3.6,17.3,10.8,17.6c-7.3,0.5-11.6,11.9-11.1,20
		C355,65.9,350.9,53.9,344.5,54z"/>
	<path class="st3" d="M392.4,177.1c11.8-0.6,16.8-15.1,17-27.4c-0.2,12.4,5.6,26.5,16.6,27c-11.2,0.7-17.8,18.3-17,30.6
		C408.5,195.3,402.2,176.9,392.4,177.1z"/>
	<path class="st4" d="M68.9,297c11.8-0.6,16.8-15.1,17-27.4c-0.2,12.4,5.6,26.5,16.6,27c-11.2,0.7-17.8,18.3-17,30.6
		C84.9,315.2,78.6,296.8,68.9,297z"/>
</g>
<g>
	<ellipse class="st5" cx="250" cy="395.2" rx="128.4" ry="52"/>
	<g>
		<path class="st6" d="M258.4,59.3c-70.4,6.8-60.7,33-67.8,61.2c-7.2,28.2,3.8,60.3-15.3,83.7c-19.1,23.4-17.3,51.9-24.6,75.5
			c-11.2,35.9,4.5,44.1,60.3,49.8c55.7,5.7,123.1,10.2,134.1-21.9c11-32.1-0.9-62.2-10.5-82.8c-9.6-20.6-7.6-25.8,0-46.9
			c7.6-21,4.4-48.8-20.5-65C289.1,96.6,302.8,55,258.4,59.3z"/>
		<path class="st7" d="M242.5,196.2c0.3,10.3,0.6,17.3-16.9,14.9c0.7,15.8,11.6,24.2,25.6,24.2s23.1-10.2,23.1-25.6
			c-16.6,1.6-17.5-2.6-17.2-13.5H242.5z"/>
		<path class="st8" d="M241.9,206.3c5.4,1.6,11.2,1.6,16.8,0.5c-1.5-2.3-1.6-5.8-1.5-10.5h-14.6
			C242.6,200.2,242.8,203.6,241.9,206.3z"/>
		<g>
			<path class="st9" d="M227,254.6c-27.5,4.4-93.9,54.2-97.8,131.9c23.8,33.9,151.8,86.4,242.9,0c-4.2-42.6-51.5-127.6-98.5-131.9
				C254.2,254.2,227,254.6,227,254.6z"/>
			<path class="st10" d="M330.3,416.2c-1.3,0.6-2.5,1.2-3.8,1.8c-2-13.7-4.2-27.3-7-40.9c-5.7-28.3-13.7-55.9-23-83.2
				c-0.1-0.4,0.5-0.5,0.6-0.2c11,27.2,19.4,55.5,26,84.1C325.9,390.5,328.4,403.3,330.3,416.2z M148,403.6
				c4.3-32.8,10.7-65.2,24.3-95.9c0.1-0.2-0.2-0.3-0.2-0.1c-13.8,29.7-21.6,61.9-26.3,94.5C146.5,402.6,147.2,403.1,148,403.6z
				 M280,414.5c-0.8-17.3-2.2-34.7-4.1-51.9c-1.8-16.8-4.2-33.5-7-50.1c-1.4-8.5-3-17.1-4.8-25.6c-1.9-9.3-4.5-18.7-4.7-28.3
				c0-0.2-0.3-0.2-0.3,0c-0.1,8.5,1.8,16.8,3.4,25.2c1.6,8.5,3,17.1,4.4,25.7c2.8,17.6,5,35.3,6.7,53.1c1.6,17.3,2.8,34.6,3.4,51.9
				c0.2,5.9,0.3,11.8,0.4,17.6c1.1-0.1,2.2-0.3,3.3-0.5C280.5,425.9,280.3,420.2,280,414.5z M278.2,286.2c-0.1-0.3-0.6-0.2-0.5,0.1
				c13.1,46,21.1,92.9,25.8,140.3c1.1-0.3,2.2-0.6,3.2-1C302.1,378.4,291.8,331.6,278.2,286.2z M324.5,307.5c-0.1-0.2-0.3,0-0.2,0.1
				c13.9,31.3,20.2,64.4,24.6,97.8c0.7-0.5,1.5-1,2.2-1.5C346.4,370.7,338.6,337.8,324.5,307.5z M219.6,414.5
				c0.6-17.3,1.7-34.6,3.4-51.9c1.7-17.8,3.9-35.5,6.7-53.1c1.4-8.6,2.8-17.1,4.4-25.7c1.5-8.3,3.5-16.6,3.4-25.2
				c0-0.2-0.3-0.2-0.3,0c-0.1,9.6-2.7,18.9-4.7,28.3c-1.7,8.5-3.4,17-4.8,25.6c-2.8,16.6-5.1,33.3-7,50.1
				c-1.9,17.3-3.3,34.6-4.1,51.9c-0.3,5.2-0.5,10.4-0.6,15.6c1.1,0.2,2.2,0.4,3.2,0.6C219.3,425.3,219.4,419.9,219.6,414.5z
				 M247.3,433.6c1.3,0,2.6,0.1,4,0.1c1-23.6,0.9-47.2,0.7-70.8c-0.3-36.2-1.7-72.3-3-108.4c-0.1,0-0.2,0-0.2,0
				c0.4,36.1,0.6,72.3,0.4,108.4C248.8,386.5,248,410,247.3,433.6z M218.8,286.4c0.1-0.3-0.4-0.5-0.5-0.1
				c-13.4,44.6-23.5,90.7-28.3,137.2c1.1,0.4,2.2,0.7,3.2,1C198,377.8,205.9,331.7,218.8,286.4z M177.1,377.1
				c5.7-28.3,13.7-55.9,23-83.2c0.1-0.4-0.5-0.5-0.6-0.2c-11,27.2-19.4,55.5-26,84.1c-2.7,11.9-5.1,24-6.9,36.2
				c1.2,0.6,2.5,1.2,3.8,1.8C172.3,402.9,174.4,390,177.1,377.1z"/>
			<path class="st11" d="M129.9,387.9c61.1,36.8,131.1-54.6,123.4-130.8c0,0-13.5-2.8-24.2-2.4c-5.3,1.3-8,2.2-11.9,3.5
				C182.3,269.5,127.6,301.8,129.9,387.9z"/>
			<path class="st12" d="M372.1,386.6C309.5,423,239.6,332.5,247.6,257c0,0,11.5-3,22.8-2.4C294.4,251.9,374.4,301.4,372.1,386.6z"
				/>
			<path class="st13" d="M127.6,386.6c61.1,35.8,130.6-55.5,122.8-129.6c0,0-13.5-2.7-24.2-2.4c-5.3,1.3-8,2.2-11.9,3.4
				C179.4,269.1,125.3,303,127.6,386.6z"/>
			<path class="st14" d="M227,254.6c-27.3-0.2-57.5,17.5-69.4,36.3c-11.8,18.8,26.1,1,26.1,1s-16.8,33.1,19.5,3.5
				c-5.1,12.9-2.8,32.3,19.5,10.3c22.2-22,28-51.3,28-51.3L227,254.6z"/>
			<path class="st15" d="M372.1,386.6C311,422.4,242.7,331.1,250.5,257c0,0,11.2-2.9,22.3-2.4C296.2,252,374.4,303,372.1,386.6z"/>
			<path class="st16" d="M274.2,254.6c27.3-0.2,54.6,18.8,66.4,37.6c11.8,18.8-23.1-0.3-23.1-0.3s16.8,33.1-19.5,3.5
				c5.1,12.9,2.8,32.3-19.5,10.3c-22.2-22-28-51.3-28-51.3L274.2,254.6z"/>
		</g>
		<g>
			<path class="st17" d="M228.4,211.4c-10.5-2.8-17.1-0.3-17.1-0.3c4.1,17.4,8.4,34,15,43.6c16,3.1,31.6,3.2,46.5,0
				c5.4-9.2,10.7-27.2,16-46c-4.8-0.2-12-0.3-16,1.1c0,0-1.9,20.7-24.3,19.9C226,228.9,228.4,211.4,228.4,211.4z"/>
			<path class="st18" d="M274.3,209.2c-1.5,19.4-20.6,35.4-35.9,44.7c-1.2,0.7-2.3,1.4-3.5,2.1c12.9,1.6,25.5,1.2,37.7-1.4
				c5.4-9.2,10.7-27.2,16-46C284.5,208.4,278.5,208.3,274.3,209.2z"/>
		</g>
		<g>
			<g>
				<path class="st19" d="M218.9,244.9c2.4,7.8,7,20.7,22.9,32.6c2.9,2.2,10,1.9,10.2,3.8c0.2,1.5-5.2,1-3.5,1.4
					c7.4,1.7,11.8,12.6-2.8,9.4c-27-6-39.8-42.3-39.3-43.1C206.9,248.1,218.9,244.9,218.9,244.9z"/>
				<path class="st20" d="M248.5,282.7c-1.7-0.4,3.7,0.1,3.5-1.4c-0.1-1-2.2-1.4-4.5-1.9c-0.9-0.2-2.8,2-1,3.3
					c0.4,0.3-0.7,1.8-1.1,2.1c-2.1,1.7-5.4,5.4-1.5,6.7c0.6,0.2,1.2,0.3,1.9,0.5C260.3,295.3,255.9,284.4,248.5,282.7z"/>
				<g>
					<path class="st21" d="M205.9,253.8l1.6,5.2c6.6-0.9,12.5-3.5,17.8-8.3l-3.5-5.8L205.9,253.8z"/>
					<path class="st22" d="M222.4,212.8c-5.2-6.8-17.8-13-28.1-5.9c-7.4,1.8-14.2,6.2-13.9,12.7c-10.3,14.4,6.8,42.9,22.5,36.3
						c6.2,0,16.9-2.7,23.5-11.9C231,237.6,229.5,222.2,222.4,212.8z"/>
					<path class="st23" d="M202.9,255.8c-12.2-3.5-18.5-20.5-20.3-33.5c0-0.2,0.2-0.3,0.3-0.1c1.8,7.1,4.2,14.2,8.5,20.1
						c4.3,5.9,7.8,9.4,14,12.7C206.5,255.8,204,256.1,202.9,255.8z M208.2,214.2c-0.1-0.1-0.2,0-0.2,0.1c3.2,5.6,5.7,11.5,7.2,17.8
						c1.6,6.4,1.1,12.3,0.7,18.7c0,0.7,1,0.8,1.2,0.2C221.4,238.7,215.1,224.3,208.2,214.2z"/>
				</g>
			</g>
			<g>
				<path class="st24" d="M279.8,244.9c-2.4,7.8-7,20.7-22.9,32.6c-2.9,2.2-10,1.9-10.2,3.8c-0.2,1.5,5.2,1,3.5,1.4
					c-7.4,1.7-11.8,12.6,2.8,9.4c27-6,39.8-42.3,39.3-43.1C291.8,248.1,279.8,244.9,279.8,244.9z"/>
				<g>
					<path class="st25" d="M294.1,253.8l-1.6,5.2c-6.6-0.9-12.5-3.5-17.8-8.3l3.5-5.8L294.1,253.8z"/>
					<path class="st26" d="M277.6,212.8c5.2-6.8,17.8-13,28.1-5.9c7.4,1.8,14.2,6.2,13.9,12.7c10.3,14.4-6.8,42.9-22.5,36.3
						c-6.2,0-16.9-2.7-23.5-11.9C269,237.6,270.5,222.2,277.6,212.8z"/>
					<path class="st27" d="M294.6,255.2c6.2-3.3,9.8-6.8,14-12.7c4.3-6,6.7-13.1,8.5-20.1c0-0.2,0.3-0.1,0.3,0.1
						c-1.8,12.9-8.2,29.9-20.3,33.5C296,256.1,293.5,255.8,294.6,255.2z M282.9,251c0.2,0.6,1.3,0.6,1.2-0.2
						c-0.4-6.5-0.9-12.3,0.7-18.7c1.5-6.3,4-12.2,7.2-17.8c0.1-0.1-0.1-0.2-0.2-0.1C284.9,224.3,278.6,238.7,282.9,251z"/>
				</g>
			</g>
		</g>
		<g>
			<path class="st28" d="M249.8,53.6c-41.8,2.2-86.9,85.4-60.9,128c9.5,15.6,28.6,22.7,60.9,22.7c35.4,0,55.1-4.2,63.6-22.7
				C334.2,136.7,290.3,51.4,249.8,53.6z"/>
			<path class="st29" d="M226.6,126c9.4-5.2,23.5-18.3,25.7-24.2c3.3,9,19,21.1,24.5,24.1c10,5.3,21.4,8.8,30.8,15.2
				c5.6,3.9,9.1,8.7,11.2,14c0.2-45.5-35.6-103.3-69-101.5c-40.7,2.2-84.5,81-62.9,124.5c1.4-11.8,5.3-23.2,13-32.7
				C207.1,136.5,216.8,131.5,226.6,126z"/>
			<g class="st30">
				<path class="st31" d="M198.4,175.8c-4,0-7.8,1.1-11,3.1c0.5,0.9,0.9,1.8,1.5,2.6c6,9.8,15.6,16.2,30,19.6
					c0.3-1.4,0.5-2.9,0.5-4.4C219.3,185.2,209.9,175.8,198.4,175.8z"/>
				<path class="st32" d="M301.3,175.8c-11.6,0-20.9,9.4-20.9,20.9c0,1.9,0.3,3.8,0.8,5.6c16.4-2.7,26.8-8.7,32.4-20.8
					c0.2-0.4,0.4-0.9,0.6-1.4C310.5,177.4,306.1,175.8,301.3,175.8z"/>
			</g>
			<g>
				<g>
					<g>
						<path class="st33" d="M186.1,158.6c-1.9,13.4,20.7,27.6,48.4,8.6C234.6,158,201.8,126.7,186.1,158.6z"/>
						<path class="st34" d="M194.1,136.8c1.8-2.3,4.3-4.2,7-5.7c2.7-1.5,5.8-2.6,8.9-3.1c3.2-0.5,6.5-0.5,9.5,0.3
							c3,0.8,5.6,2.5,7.1,4.7c-2.6-1.2-5.2-2.1-8-2.4c-2.7-0.3-5.5-0.1-8.2,0.3c-2.8,0.5-5.5,1.2-8.2,2.2
							C199.5,134.2,196.8,135.4,194.1,136.8z"/>
						<g>
							<path class="st35" d="M186.1,158.6c-2,12,19.2,28.6,48.4,8.6C234.6,158,201.8,126.7,186.1,158.6z"/>
							<g>
								<circle class="st36" cx="210.3" cy="159.4" r="16"/>
								<circle class="st37" cx="210.3" cy="159.4" r="10.7"/>
								<circle class="st38" cx="204.6" cy="153" r="6.9"/>
							</g>
						</g>
						<path class="st39" d="M234.6,167.2c-1.2-2.4-2.8-4.4-4.5-6.2c-1.8-1.8-3.7-3.4-5.7-4.9c-4.1-2.9-8.5-5.1-13.2-6.5
							c-4.6-1.4-9.5-1.8-13.9-0.4c-2.2,0.7-4.3,1.9-6.1,3.5c-1.9,1.6-3.5,3.6-5,5.8c0.5-2.6,1.5-5.2,3.1-7.5
							c1.6-2.3,3.9-4.3,6.5-5.6c2.6-1.3,5.6-1.9,8.5-2c2.9-0.1,5.7,0.4,8.4,1.2c5.4,1.6,10.3,4.5,14.3,8.3c2,1.9,3.8,4.1,5.1,6.4
							C233.4,161.9,234.4,164.5,234.6,167.2z"/>
					</g>
				</g>
				<g>
					<g>
						<path class="st40" d="M313.9,158.6c1.9,13.4-20.7,27.6-48.4,8.6C265.4,158,298.2,126.7,313.9,158.6z"/>
						<path class="st41" d="M305.9,136.8c-1.8-2.3-4.3-4.2-7-5.7c-2.7-1.5-5.8-2.6-8.9-3.1c-3.2-0.5-6.5-0.5-9.5,0.3
							c-3,0.8-5.6,2.5-7.1,4.7c2.6-1.2,5.2-2.1,8-2.4c2.7-0.3,5.5-0.1,8.2,0.3c2.8,0.5,5.5,1.2,8.2,2.2
							C300.5,134.2,303.2,135.4,305.9,136.8z"/>
						<g>
							<path class="st42" d="M313.9,158.6c-15.6-31.9-48.4-0.6-48.4,8.6C294.6,187.2,315.9,170.6,313.9,158.6z"/>
							<g>
								<circle class="st43" cx="289.7" cy="159.4" r="16"/>
								<circle class="st44" cx="289.7" cy="159.4" r="10.7"/>
								<circle class="st45" cx="295.4" cy="153" r="6.9"/>
							</g>
						</g>
						<path class="st46" d="M265.4,167.2c1.2-2.4,2.8-4.4,4.5-6.2c1.8-1.8,3.7-3.4,5.7-4.9c4.1-2.9,8.5-5.1,13.2-6.5
							c4.6-1.4,9.5-1.8,13.9-0.4c2.2,0.7,4.3,1.9,6.1,3.5c1.9,1.6,3.5,3.6,5,5.8c-0.5-2.6-1.5-5.2-3.1-7.5c-1.6-2.3-3.9-4.3-6.5-5.6
							c-2.6-1.3-5.6-1.9-8.5-2c-2.9-0.1-5.7,0.4-8.4,1.2c-5.4,1.6-10.3,4.5-14.3,8.3c-2,1.9-3.8,4.1-5.1,6.4
							C266.6,161.9,265.6,164.5,265.4,167.2z"/>
					</g>
				</g>
			</g>
			<path class="st47" d="M243.3,181.6c0.4,1.8,1.2,3.4,2.4,4.4c1.2,1,2.8,1.6,4.3,1.6c1.6,0,3.1-0.5,4.3-1.6c1.2-1,2-2.6,2.4-4.4
				c0.4,1.8,0.1,3.9-1.3,5.5c-0.6,0.8-1.5,1.4-2.4,1.8c-0.9,0.4-2,0.6-3,0.6c-2,0-4.1-0.9-5.4-2.5
				C243.2,185.6,242.9,183.4,243.3,181.6z"/>
		</g>
		<g>
			<path class="st48" d="M252.1,86.4c-1.3,26.6-25.4,31.3-37.5,38.7c-31.5,19.2-33.2,51.9-11.5,81.7c15.5,21.3,2.9,45.1-27.5,52.2
				c-20.5,4.8-31.5,31.6-22.7,41.2c-8.6,12.3-11.7,18.8-17.2,31.6c-10.4-15,0-23.3,3.6-35.2s-13.1-14.1-15.7-40.1
				c-3.2-31.8,47.5-38.2,23.7-74.7c-23.7-36.5,14.2-37,13.8-70.9c-0.3-33.1,38.8-72.2,91-72.2c56.9,0,85.4,35.3,90.8,64.8
				c4.7,25.6-0.2,24,18.1,44.7c12.5,14.2-3.6,41.6-7.1,52.7c-11.1,34.6,46.5,35.4,11,83.5c-9.7,13.1,11.9,40.9-0.9,53.8
				c-11.7-24.8-12.9-26.6-20.1-35.7c0,0,11.4-22.8-11-36c-10.5-6.2-51.6-31.8-31.2-63.9c19.9-31.3,24.9-57.6-12.8-76.5
				C272.8,117.8,254.1,114.5,252.1,86.4z"/>
			<path class="st49" d="M298.8,131.7c8.5,0.1,13.4,8.1,20.4,11.9c0.5,0.3,1.2,0,1.4-0.6c1.4-5.1,1.2-10.2,1.1-15.4
				c1.4,3.3,2.9,6.5,5.2,9.4c0.4,0.5,1.5,0.3,1.6-0.4c1-6.6,0.6-13.3,1.8-19.8c0.9,5.7,3.1,11.1,7.2,15.2c0.6,0.6,1.5,0.1,1.6-0.7
				c0.7-5.5,0.9-11.2,1.4-16.7c0.2-2.4,0.4-8.9,1.9-13.2c0.2,0.7,0.3,1.4,0.4,2.1c4.7,25.2,0,24.1,17.4,44c-1.2-0.2-2.4-0.5-3.6-0.8
				c-3.3-0.8-5.3-1.9-7-5.1c-1.2-2.2-1.9-4.4-3.5-6.3c-0.5-0.6-1.6-0.1-1.6,0.7c0.1,5.6,0.7,11.3-0.9,16.8c-3-2.8-5.1-6.3-8.1-9.1
				c-0.4-0.4-1.2-0.4-1.5,0.2c-2.8,6.6-2.5,15-7.3,20.6c-0.4-3.8-0.3-7.5-1.6-11.1c-0.3-0.9-1.5-0.9-1.8,0
				c-1.8,4.3-3.5,8.3-6.6,11.7C317.7,152.3,312.6,141.2,298.8,131.7z M200.9,131.2c-0.6,0.8-2.1,0.4-1.7-0.7c1.8-5,4.9-9.6,6.4-14.7
				c-7.3,3.8-11.5,11.6-18.4,16.2c-0.7,0.4-1.4-0.2-1.4-0.8c-0.5-5.3,1.5-10.3,1.8-15.6c-4.1,3.4-6.9,8.1-10.3,12.1
				c-0.5,0.6-1.7,0.1-1.6-0.7c0.4-3.7,0.7-7.5,0.8-11.2c-3,3.7-5.5,8-9.6,10.6c-0.7,0.4-1.4-0.1-1.4-0.8c-0.5-5.9-2.3-11.2-4.3-16.6
				c0,0.6,0,1.1,0,1.7c0.1,12.2-4.7,20-9.8,26.8c1.6-1,3.3-2,5.1-2.7c0.6-0.2,1.1,0.4,1.2,0.9c0.5,3.9-0.8,7.5-1.9,11.2
				c6.7-1.9,11.9-11.8,18.2-14.8c0.5-0.2,0.7,2.7,0.8,3.3c0.6,3.9-0.4,7.6-0.8,11.4c4.5-3,7.6-7.7,12.3-10.6c0.5-0.3,1.3,0,1.4,0.6
				c0.6,4.5-0.4,8.8-0.8,13.2c3.7-2.8,5.4-7.8,8.9-10.9c0.5-0.4,1.5-0.3,1.6,0.4c0,0.3,0.1,0.5,0.1,0.8c2.9-3.9,6.5-7.6,10.8-11
				c3.7-4.6,7.7-8.9,11.9-13.2C212,118.8,206.1,124.2,200.9,131.2z"/>
			<g>
				<path class="st50" d="M345.6,297.6c1.7-1.9,3.5-3.7,5.4-5.5c0.6-0.6,1.5-0.1,1.6,0.7c0.3,2.5,0.2,5.1,0.5,7.6
					c1.5-1.8,2.7-3.8,4.2-5.7c0.5-0.6,1.5-0.6,1.7,0.2c1.1,3.3,2.3,6.3,4.7,8.5c-1.7-7.4-2.4-14.3,1.2-19.2c1.9-2.6,3.5-5,4.9-7.3
					c-0.5,0.5-0.9,0.9-1.4,1.4c-0.7,0.7-1.7,0-1.6-0.9c0.6-3.5,2.2-6.7,3.1-10c-3.7,4.5-6.1,10-10.8,13.7c-0.6,0.4-1.4,0.3-1.6-0.4
					c-0.8-2.7-1-5.3-1.2-8.1c-1.2,3.4-2,6.9-3.6,10.1c-0.3,0.7-1.3,0.6-1.6,0c-2.5-3.9-4.9-9.1-10.1-9.7
					C348.4,281.7,347.2,291.9,345.6,297.6z"/>
				<path class="st51" d="M311.8,236.9c0-0.8,0.8-1.1,1.4-0.8c4.7,2.4,8.4,6.3,13,9c-0.1-3.9-2.5-11.4,1.7-12.7
					c3.8-1.2,7.9,5.3,11.1,8.2c-0.3-3.9-2.4-7.5-2.3-11.5c0-0.8,0.8-1.1,1.4-0.8c4.9,2.1,7.6,7.2,12.5,9.2c0.1-4.6-2.2-8.8-3.3-13.2
					c-0.2-0.9,0.7-1.4,1.4-1.1c4.2,1.8,8.3,3.9,12.4,5.7c-6.3-7.5-11.4-15.6-7.3-28.2c0.8-2.4,2.1-5.5,3.6-9.1
					c-2,3.2-3.7,7.4-4.4,8.7c-2.3,5-4.3,10-6.2,15.2c-0.3,0.8-1.3,1-1.7,0.2c-3.2-5.1-2.3-11-3.3-16.7c-4.1,6.4-2.8,14.6-5.5,21.6
					c-0.3,0.7-1,0.9-1.6,0.4c-5.5-4.4-4.5-11.7-4.7-18.1c-2.7,3.9-3.8,9.6-5.3,13.8c-0.8,2.2-1.5,6.1-4.4,5.8
					c-6.8-0.5-6.7-12.1-6.9-18.7c-2.1,3.9-2.7,8.5-5.3,12.3c-0.4,0.6-1.2,0.6-1.6,0c-3.2-4.4-4.3-9.3-4.4-14.5
					c-0.1,0.2-0.3,0.5-0.4,0.7c-13.1,20.5-0.9,38.5,12.3,50.3C313,247.4,312,242.3,311.8,236.9z"/>
				<path class="st52" d="M139.6,294.9c0.2-0.2,0.4-0.5,0.5-0.7c0.5-0.6,1.5-0.6,1.7,0.2c1,3.8,1,7.5,1,11.3
					c3.8-1.9,5.5-7.3,7.3-11.2c-1.1-5.5,0.5-12.7,4.4-19.2c-0.4-1.9-0.8-3.9-1.1-5.9c-1.6,3.6-3.4,8.8-6.8,9.1
					c-3.7,0.3-5.7-5.4-7.1-8.9c-0.7,2.4,0,5.1,0.1,7.5c0,0.7-0.8,1.2-1.4,0.8c-4.6-2.8-7.7-7.7-12.3-10.4
					C130.9,282.5,141.1,286.2,139.6,294.9z"/>
				<path class="st53" d="M144.6,219.1c1.3-0.9,2.7-1.7,4.2-2.4c0.4-0.2,1.1-0.2,1.3,0.3c2.3,5.4,1.7,10.5-0.3,15.7
					c5.7-3.1,9.8-8.9,16.4-10.6c0.5-0.1,1.1,0.2,1.2,0.7c0.9,5.2-0.8,9.9-1.9,14.9c5.5-2.6,7.9-10.8,13-14.1
					c0.4-0.3,1.1-0.1,1.3,0.3c2.4,4.7,1.5,9.5,0.1,14.3c6.5-2.6,7.7-10.9,12.7-15.4c0.5-0.5,1.4-0.3,1.6,0.4c1.2,4,0.7,7.7-0.2,11.5
					c3-4.2,5.1-9.1,9.2-12.4c0.5-0.4,1.1-0.3,1.5,0.2c2.8,3.9,3.5,8.6,3,13.3c3.7-9,2.5-19.3-4.6-29.1c-2.5-3.4-4.6-6.9-6.5-10.3
					c-0.2-0.1-0.4-0.2-0.6-0.3c0.1,5.4,0.1,10.9-2.5,15.8c-0.3,0.6-1.1,0.6-1.5,0.2c-3.8-3.5-3.9-8.4-5.8-12.7
					c-0.7,5.5,0.9,11.4-3,15.9c-0.5,0.6-1.4,0.2-1.6-0.4c-2.4-6.3-4.3-12.8-8.8-17.8c0,6.8,1.2,15.2-3.9,20.1c-0.4,0.3-1,0.4-1.3,0
					c-6.9-7.4-6.7-18.5-13-26.3c-0.3,1.7-0.6,3.6-1.1,5.6C154.7,205.7,150.3,212.6,144.6,219.1z"/>
			</g>
		</g>
		<g>
			<path class="st54" d="M201,70.5c33-12.3,65.4-11.1,97.5-0.1c1.9,0.6,3.7-1.1,3.2-3c-2.9-10.7-6.7-20.4-11.4-28.9
				c-6,4.5-10.9,9.6-14.9,15.2c-1.4,2-4.6,1.7-5.5-0.6c-5-12.2-11.9-22.8-19.9-32.4C239.9,31.9,231.5,43,226.1,54
				c-1,2.1-3.9,2.4-5.4,0.6c-4.9-6.3-10.2-11.6-15.8-16.1c-3.5,10-6,19.8-7.3,29.3C197.4,69.7,199.2,71.1,201,70.5z"/>
			<path class="st55" d="M301.7,67.4c-2.9-10.7-6.7-20.4-11.4-28.9c-6,4.5-10.9,9.6-14.9,15.2c-1.4,2-4.6,1.7-5.5-0.6
				c-3.5-8.6-8-16.4-13.1-23.6c0.3,1.7,0.4,3.4,0.5,5.1c0.3,5.8,0.4,11.6-1.4,17.1c-1.2,3.6-2.9,6.9-5.1,9.9
				c16,0.2,31.9,3.2,47.7,8.7C300.4,71.1,302.2,69.3,301.7,67.4z"/>
			<g>
				<ellipse class="st56" cx="248.9" cy="41.2" rx="4.8" ry="9.8"/>
				<ellipse class="st57" cx="248.9" cy="41.2" rx="4.1" ry="8.3"/>
				<path class="st58" d="M250.3,34.3c-0.2-0.3-0.7-0.1-0.6,0.3c0.8,3.2,0.3,6.5,0.5,9.7c0,0.7,1,0.8,1.2,0.2
					C252.3,40.9,252.3,37.3,250.3,34.3z"/>
			</g>
			<g>
				
					<ellipse transform="matrix(0.2051 -0.9787 0.9787 0.2051 176.0197 324.3417)" class="st59" cx="287.7" cy="53.8" rx="6" ry="2.9"/>
				
					<ellipse transform="matrix(0.2051 -0.9787 0.9787 0.2051 176.0206 324.342)" class="st60" cx="287.7" cy="53.8" rx="5.1" ry="2.5"/>
				<path class="st61" d="M289.4,49.8c-0.1-0.2-0.4-0.2-0.4,0.1c0,2-0.6,3.9-0.9,5.9c-0.1,0.4,0.5,0.6,0.7,0.2
					C289.7,54.1,290.2,51.9,289.4,49.8z"/>
			</g>
			<g>
				<ellipse transform="matrix(0.9787 -0.2051 0.2051 0.9787 -6.6181 43.768)" class="st62" cx="207.8" cy="53.8" rx="2.9" ry="6"/>
				
					<ellipse transform="matrix(0.9787 -0.2051 0.2051 0.9787 -6.618 43.7665)" class="st63" cx="207.8" cy="53.8" rx="2.5" ry="5.1"/>
				<path class="st64" d="M206.1,49.8c0.1-0.2,0.4-0.2,0.4,0.1c0,2,0.6,3.9,0.9,5.9c0.1,0.4-0.5,0.6-0.7,0.2
					C205.7,54.1,205.3,51.9,206.1,49.8z"/>
			</g>
		</g>
	</g>
</g>
</svg>
